<svg width="156" height="185" viewBox="0 0 156 185" fill="none" xmlns="http://www.w3.org/2000/svg">
<path d="M130.504 120.792C132.136 118.481 131.917 114.886 129.684 113.038H129.709C128.259 111.847 126.42 111.24 124.6 110.87C123.543 110.726 122.461 110.82 121.41 110.595C120.472 110.432 120.297 109.349 120.247 108.553C120.047 106.937 118.971 105.528 117.551 104.77C116.85 104.388 116.082 104.131 115.287 103.999C115.675 103.103 116.007 102.183 116.207 101.231C116.557 99.145 116.006 96.9334 114.843 95.1858C112.71 92.3232 108.401 91.7223 105.131 92.5866C101.115 93.927 98.3072 97.4031 96.3623 101.017C96.0495 101.593 95.7432 102.176 95.4491 102.765C94.8612 103.93 94.4486 105.17 93.9232 106.354C93.6855 106.855 93.4291 107.344 93.1475 107.82C92.8347 108.284 92.5284 108.904 91.8907 108.904C90.8712 108.904 90.3146 107.789 89.689 107.137C87.7315 104.713 84.567 104.444 81.9467 105.941C80.4959 106.749 79.3449 108.033 78.6443 109.542C78.1814 110.52 77.7939 111.541 77.1185 112.399C76.5306 113.019 75.5861 112.925 74.8104 113.019C73.1844 113.131 71.5523 112.931 69.9263 113.006C67.3432 113.157 64.7354 113.25 62.1961 113.777C60.3761 114.146 58.6373 115.249 57.8681 117.009C56.4295 120.022 58.4807 122.502 61.6204 122.427C62.7275 122.578 63.8781 122.509 64.9852 122.534C67.5245 122.622 70.0699 122.446 72.6026 122.621C75.4668 122.621 78.3319 122.797 81.1961 122.809C84.0291 122.809 86.8625 122.922 89.6955 122.953C92.6287 122.972 95.5619 122.947 98.495 122.991C103.955 122.934 109.415 122.978 114.881 122.89C117.564 122.859 120.253 122.859 122.93 122.69C124.243 122.646 125.563 122.533 126.87 122.364C128.177 122.183 129.666 121.913 130.504 120.792Z" fill="#B7E8FF"/>
<path d="M60.8139 122.828C67.9436 123.348 75.1111 123.072 82.2469 123.529V123.535C83.4478 123.88 84.6356 122.477 83.1098 121.945C79.3823 121.644 75.6178 121.6 71.8777 121.55C69.3697 121.581 66.8621 121.45 64.3541 121.349C61.6712 121.243 56.5363 121.538 58.2625 117.353C60.02 114.366 63.9345 114.541 66.9679 114.209C70.0135 113.877 73.0907 114.691 76.0929 113.902C78.9072 113.275 79.0387 110.106 80.4959 108.133C81.8031 106.329 84.3042 105.609 86.4183 106.216C87.9567 106.693 88.751 108.196 89.9706 109.129C92.2469 110.82 94.1862 109.335 95.1055 107.043C96.3688 104.732 97.1814 102.214 98.2573 99.8148C100.553 95.6244 103.88 92.054 109.077 93.1377C114.149 94.0523 116.27 99.1443 114.237 103.635C113.793 105.064 115.975 105.064 116.488 103.091C117.07 101.08 117.201 98.7185 116.426 96.7328C114.631 92.3169 109.384 90.651 104.981 91.5278C102.823 91.9663 100.978 93.3254 99.4396 94.8536C98.0951 96.3817 96.919 98.1046 96.0309 99.9399C95.1927 102.076 94.3736 104.224 93.3229 106.266C92.8977 106.868 92.7229 107.895 91.991 108.183C90.5025 107.532 89.8083 105.784 88.2886 105.12C84.5862 103.153 79.4886 104.969 77.8439 108.834C77.2998 109.749 77.1497 110.889 76.4742 111.709C74.8482 113.162 72.3528 112.424 70.364 112.474C65.6295 112.612 57.5679 112.236 55.9671 117.892C55.3792 121.306 57.8495 122.552 60.8139 122.828Z" fill="#004449"/>
<path d="M67.7679 40.4387C67.8345 38.9417 66.8781 37.3233 65.2063 37.5245L65.2133 37.53C63.9297 37.6614 62.9551 38.6526 62.3244 39.7069C61.5123 40.9463 61.2607 42.4322 60.9365 43.8528C60.859 44.2755 60.5934 45.0993 60.9998 45.5014C61.1267 45.6347 61.3239 45.6878 61.4998 45.6365C61.8932 45.5155 62.1044 45.0987 62.2581 44.6332C63.1476 44.705 65.2304 43.6398 66.1082 43.3274C66.6123 43.9241 67.4693 43.3365 67.5468 42.6101C67.6059 41.8864 67.748 41.1694 67.7679 40.4387Z" fill="#FFA97F"/>
<path d="M85.5998 78.8114C85.9441 76.3558 86.257 73.7722 85.5607 71.3363L85.5533 71.3308C84.4491 68.3537 81.0647 68.5217 78.9242 70.2852C78.212 66.048 74.4231 66.876 72.2492 69.5369C71.7282 66.5691 68.3216 66.3289 66.2508 67.9175C66.4317 66.4667 66.5684 65.0167 66.7174 63.5644C66.7594 62.7228 68.6647 41.4174 67.0041 42.0027C66.5995 42.358 61.4405 43.8951 61.4405 43.8951C61.4405 43.8951 58.9345 66.7607 58.9584 67.184C59.0522 68.9992 59.1392 70.8098 59.2575 72.6215C59.4091 75.1373 59.8708 77.6138 60.2462 80.103C60.5283 81.9095 62.1564 88.5248 62.5575 90.061C62.9677 91.4882 63.5414 92.8656 64.1438 94.2203C64.3649 94.7384 64.5797 95.2578 64.8069 95.7751C65.0686 96.3127 65.2774 96.9656 65.625 97.484C65.5573 97.5826 65.5237 97.7013 65.5329 97.8518C65.5867 98.1794 65.8642 98.4302 66.1892 98.49C67.7715 98.5892 81.0423 96.6763 81.3554 96.6115C81.4061 97.047 83.0008 95.0094 83.2259 94.1663C83.6131 91.5714 84.0358 88.9589 84.3842 86.3569C84.7568 83.8339 85.2069 81.3246 85.5998 78.8114Z" fill="#FFA97F"/>
<path d="M65.8522 82.0029C74.0887 80.7936 81.7508 86.5039 82.9514 94.7462C84.1521 102.988 78.4395 110.662 70.2031 111.872C61.9667 113.081 54.3045 107.371 53.1039 99.1285C51.9033 90.8862 57.6158 83.2122 65.8522 82.0029Z" fill="#FFA97F"/>
<path d="M64.128 72.9254C63.6319 76.1183 61.5621 86.1817 66.4066 86.5272L66.4208 86.5379C67.7167 86.5755 68.7786 85.6157 69.3887 84.5515C69.7682 83.9009 70.3181 83.0291 69.8019 82.3076C69.5612 82.0014 69.1846 82.018 68.8832 82.208C68.1801 82.767 68.1134 83.8717 67.2676 84.3185C63.6485 85.698 65.2888 76.2044 65.5465 74.4135C66.0444 71.7963 66.5319 65.8515 70.5403 68.7945C71.6386 69.4305 71.0743 70.4182 71.9371 70.6968C72.8456 70.8101 73.1123 69.6892 72.8474 69.0002C72.5098 67.3788 70.7602 66.2686 69.2127 66.0212C65.4758 65.5951 64.6164 70.1133 64.128 72.9254Z" fill="#004449"/>
<path d="M69.2741 81.0517C68.9505 83.6938 68.7864 87.2111 72.0717 87.8808C73.6137 88.395 77.6822 85.1079 76.6095 83.5628C75.5266 82.4689 74.8039 85.2775 73.0912 85.763C72.3211 86.0784 71.309 85.4675 70.9902 84.7548C70.4954 82.5745 71.0757 80.3061 71.3729 78.1358C71.8445 75.9466 72.6218 71.1241 74.0076 69.5663C75.1882 68.6839 77.1478 68.8901 78.0158 70.1171C78.2706 70.4783 78.1426 70.9905 78.4862 71.3071C78.8808 71.6732 79.4293 71.3969 79.6332 70.9745C80.5231 66.8379 73.836 65.4336 72.1194 69.2802C70.4851 73.0388 69.8519 76.9859 69.2741 81.0517Z" fill="#004449"/>
<path d="M76.1767 81.9652C76.0055 84.0027 76.5123 86.0487 78.8414 86.3648L78.8359 86.3718C79.8246 86.4733 80.8048 86.0827 81.5625 85.4653C82.2011 84.9856 82.9485 84.2556 82.501 83.3972C82.1224 82.7947 81.4656 83.0176 81.0844 83.4849C80.4281 84.1445 79.403 84.6181 78.5156 84.1281C77.6576 83.6653 77.8342 82.5766 77.8414 81.759C77.9094 80.1413 78.1507 78.5426 78.5604 76.9701C79.0044 75.0694 79.8429 70.5352 82.3092 70.534C83.0979 70.5639 84.2913 71.0279 84.6579 71.7652C84.8131 72.1349 85.1819 72.3652 85.5563 72.114C85.9299 71.8568 85.9883 71.3482 85.866 70.942C85.5248 69.467 83.4804 68.4129 82.0474 68.6044C78.2803 69.0117 77.3461 75.0157 76.6388 78.0178C76.3532 79.3127 76.2369 80.6402 76.1767 81.9652Z" fill="#004449"/>
<path d="M71.2329 71.8876C71.1412 72.2997 70.8961 72.9183 71.3923 73.1555L71.3978 73.1481C71.8648 73.2692 72.0549 72.7101 72.1096 72.3478C72.2391 71.8032 72.3082 71.2359 72.3022 70.6735C72.3058 69.5275 71.9156 68.3256 70.8885 67.704C70.6542 67.5294 70.3731 67.4187 70.1123 67.2796C69.888 67.1733 69.6475 67.044 69.3909 67.0627C69.1112 67.0976 69.0481 67.4867 69.2724 67.6373C69.4712 67.7855 69.6372 67.9697 69.8199 68.1391C70.3813 68.6073 71.1359 69.0094 71.2806 69.7855C71.4695 70.473 71.3726 71.1963 71.2329 71.8876Z" fill="#004449"/>
<path d="M67.9755 83.6214C67.7855 84.0102 67.9237 84.6541 68.4334 84.6807L68.4395 84.6798C68.8713 84.6924 69.1278 84.2816 69.2996 83.9398C69.5868 83.4358 69.7989 82.898 69.9912 82.3508C70.4849 81.0503 70.706 79.4865 70.8144 78.0591C70.8878 77.1751 71.13 76.3163 71.268 75.4417C71.3803 74.8242 71.493 74.2061 71.554 73.5834C71.5627 73.4684 71.4763 73.3542 71.3586 73.3715C71.1975 73.3951 71.1583 73.5594 71.1205 73.6914C70.8884 74.2698 70.7708 74.8061 70.5617 75.4128C70.1963 76.4222 69.9137 77.4761 69.6935 78.5274C69.2754 80.0003 68.9818 81.4545 68.3548 82.8821C68.3599 82.8752 68.3641 82.8619 68.3641 82.8619C68.2438 83.1201 68.1092 83.3677 67.9755 83.6214Z" fill="#004449"/>
<path d="M77.3851 74.8103C77.2695 75.1882 77.1903 75.7315 77.6317 75.939L77.6257 75.9399C77.8293 76.0364 78.0489 75.9349 78.2149 75.8157C78.4721 75.626 78.5441 75.2985 78.6221 75.0086C78.7342 74.6063 78.8536 74.209 78.9656 73.8066C79.3476 72.5225 79.6928 70.8961 79.1218 69.6253C78.8374 68.9329 78.3423 68.3153 77.5893 68.1409C77.3721 68.084 77.1021 67.9656 76.9041 68.1277C76.4565 68.5731 77.6549 68.9795 77.8137 69.4181C78.0316 69.8292 78.1213 70.2278 78.22 70.688C78.3202 71.6796 77.961 72.6438 77.6991 73.581C77.5816 73.9908 77.4768 74.3982 77.3851 74.8103Z" fill="#004449"/>
<path d="M72.9723 86.1999C72.8266 86.5883 72.8776 87.1125 73.3028 87.2968L73.3102 87.3023C73.7267 87.469 74.0858 87.1125 74.4081 86.8944C75.3397 86.1246 76.0346 85.1239 76.5766 83.981C77.1626 82.5344 77.4375 80.9878 77.5657 79.4373C77.6891 78.3304 77.8049 77.2189 77.9418 76.1166C77.9859 75.7686 78.0566 75.4289 78.0688 75.079C78.0622 74.9913 78.074 74.8947 78.0073 74.8285C77.7561 74.6248 77.4233 75.813 77.322 76.0302C76.6043 77.8315 76.3153 79.7538 75.7691 81.6059C75.4808 82.8823 74.9458 84.119 74.0495 85.086C73.9041 85.2593 73.7646 85.4317 73.588 85.5652C73.3346 85.7354 73.1092 85.8383 72.9723 86.1999Z" fill="#004449"/>
<path d="M91.8274 29.2658C92.2651 28.1008 91.6209 26.9733 90.6517 26.3154L90.6326 26.322C89.951 25.8019 89.1883 25.3821 88.3627 25.1692C86.5805 24.7182 84.7289 24.6495 82.9215 24.305C82.2087 24.1546 81.4955 23.9165 80.9137 23.4655C80.482 23.1587 80.6074 22.7203 80.7827 22.3006C81.2768 21.173 81.8395 20.0642 82.1272 18.8554C82.5211 17.2394 82.7836 15.4606 82.0582 13.8946C81.0638 11.7898 78.8998 10.3742 76.6235 10.0735C74.5844 9.80413 72.4708 10.5558 70.8135 11.7333C70.6196 11.8776 70.3258 12.1096 70.0005 12.3851C70.0382 11.9906 70.0504 11.6269 70.0378 11.3388C69.9501 8.78303 68.6248 6.39671 66.7796 4.67432C64.8222 2.99581 62.4517 1.52978 59.8187 1.38553C57.9176 1.29776 55.941 1.59235 54.2837 2.57564C52.5263 3.67799 51.0191 5.33825 50.3184 7.31744C49.8868 8.58881 49.862 9.94838 49.8122 11.2762C49.731 13.0178 49.4807 14.9092 48.6803 16.4938C47.5046 18.5295 46.0095 18.1788 44.0143 17.8595C43.02 17.6905 42.0009 17.6718 41 17.7782C39.9618 17.916 39.0174 18.5299 38.3857 19.3503C37.6039 20.321 37.2351 21.5302 36.6347 22.6013C36.2907 23.2526 35.7466 23.7975 35.0213 23.9917C33.3514 24.3801 31.9314 24.6678 30.7058 26.0022C29.5865 27.1171 29.1796 29.0342 30.1679 30.362C30.862 31.3266 32.0438 31.7273 33.1822 31.8337C33.9076 31.8902 34.6395 31.8902 35.3714 31.8776C36.3158 31.9528 37.1722 31.9719 37.6915 31.9906C39.5367 32.0032 41.3753 31.8215 43.2204 31.7651C44.9592 31.7399 46.7037 31.7086 48.4425 31.6834C53.9588 31.6456 59.4746 31.5083 64.9909 31.6334C70.951 31.7525 76.9111 31.7898 82.8712 31.8337C83.4651 31.8276 84.0656 31.8276 84.6599 31.7777C85.4981 31.7837 86.3423 31.759 87.1805 31.7212C89.0191 31.7399 91.1645 31.195 91.8274 29.2658Z" fill="#B7E8FF"/>
<path d="M37.1041 32.442C39.4555 32.5862 41.7948 32.7487 44.1588 32.7674V32.7548C47.3796 32.6105 50.6008 32.6297 53.8217 32.6736C55.0412 32.5797 56.4234 32.9677 57.5553 32.4541C58.331 31.8276 57.3614 30.9008 56.6048 31.0011C55.5102 31.045 54.4156 31.0011 53.321 31.0011C51.0447 30.9885 48.7618 30.932 46.4789 30.9885C43.5518 31.1954 40.6191 30.995 37.6984 30.8008C35.7783 30.594 33.7579 31.0011 31.9006 30.3937C30.4433 29.8988 31.1002 28.0135 31.7943 27.1114C32.6637 26.0217 34.1023 25.658 35.3344 25.1257C38.8303 23.7414 38.2676 19.1751 40.9006 18.6928C42.9145 18.3548 44.9531 19.1564 46.9605 18.5864C48.5991 18.2731 49.8503 16.9391 50.1692 15.3167C50.5444 13.9636 50.4941 12.5545 50.6256 11.1702C50.9822 8.8777 51.3136 6.27195 53.0399 4.56172C58.7249 -0.493348 66.8113 3.92256 68.7562 10.4871C69.0312 11.145 69.1692 11.8467 69.3757 12.5232C69.626 13.1932 70.6889 13.3497 70.9453 12.6045C71.1957 11.0259 70.2946 9.44125 69.7631 7.98826C67.1675 2.60774 60.282 -0.962617 54.5531 1.46759C49.3245 3.27167 48.6368 8.68955 48.4056 13.5191C48.1744 16.1123 47.1549 17.2776 44.4655 17.1334C41.9826 16.814 38.7049 16.5129 37.3605 19.1438C35.5405 23.1087 35.7969 23.0023 31.7882 24.7186C29.3366 25.7836 27.6542 29.8927 30.4186 31.5212C32.426 32.7487 34.8715 32.2977 37.1041 32.442Z" fill="#004449"/>
<path d="M131.584 31.6376C135.006 30.136 138.446 28.6634 141.906 27.2513L141.91 27.2762C143.63 26.5872 145.372 25.9583 147.045 25.1626C147.607 24.8967 148.15 24.5898 148.723 24.36C149.003 24.9766 148.933 25.6256 148.224 26.2228C146.864 27.4723 145.17 28.2588 143.577 29.1691C141.771 30.1804 139.874 31.0032 137.993 31.8483C135.425 33.0096 132.863 34.1636 130.263 35.2344C124.34 37.672 118.458 40.2051 112.568 42.7327C110.627 47.0714 108.559 51.3595 106.509 55.6388C104.664 59.3313 102.661 62.939 100.625 66.5332C98.0856 71.0167 97.0932 71.3203 92.0774 72.1261C87.4402 72.6233 90.3561 67.4706 91.0933 65.1994C92.0308 62.7405 92.9287 60.269 93.8192 57.7919C94.9195 55.0182 95.8219 52.1472 96.7399 49.2928C96.0224 49.5753 95.3053 49.8574 94.5879 50.1399C90.333 51.9155 86.1414 53.821 81.9149 55.6618C78.2528 57.2114 74.609 58.796 70.9364 60.3151C68.0753 61.4181 65.2156 62.527 62.3518 63.6115C60.3011 64.374 58.3924 65.1157 56.4071 65.894C56.1466 66.0143 55.8793 66.136 55.618 66.2502C54.7919 66.6119 53.9483 66.938 53.1035 67.2581C50.9452 68.1947 48.8007 69.1803 46.6227 70.0689C43.184 71.4146 39.8548 73.2501 36.166 73.7914C36.0359 73.8105 35.8998 73.8305 35.7697 73.8496C33.015 74.1209 29.9221 73.8917 27.5885 72.28C26.1611 71.465 24.8306 70.402 23.5551 69.2418C21.1141 66.8931 18.8774 64.3432 16.7329 61.7298C14.498 59.0599 12.2022 56.4494 9.92849 53.8167C9.29094 53.0438 8.31941 52.0163 7.43622 50.8999C7.38654 50.8628 7.3351 50.8138 7.28961 50.7634C6.99849 50.3696 6.70743 49.9762 6.40986 49.5834C5.78037 48.7333 5.14607 47.8081 5.05176 46.7277C4.92963 45.8476 5.40175 45.007 6.14423 44.5501C8.20171 43.268 10.9223 44.5443 12.9985 45.2136C15.505 46.1045 17.8615 47.3522 20.2339 48.5348C23.8974 50.2931 27.553 52.0845 31.2703 53.7336C32.278 54.1424 33.2746 54.6473 34.3629 54.785C35.8244 54.8803 37.2287 54.364 38.5585 53.8148C46.4685 50.3581 54.4435 47.0436 62.3929 43.6825C70.5238 40.3513 78.5666 36.8063 86.628 33.3019C93.6226 30.4604 100.559 27.5699 107.635 24.9375C111.345 23.4569 115.041 21.9659 118.772 20.5457C121.001 19.7001 123.158 18.6689 125.436 17.9488C125.857 17.8049 126.28 17.6671 126.709 17.5342C126.724 17.6335 126.764 17.7346 126.843 17.8433C127.173 19.237 127.781 20.5456 128.339 21.8615C128.727 22.6583 129.083 23.4976 129.657 24.185C130.399 24.9804 131.494 25.4208 132.585 25.362C134.022 25.2902 135.383 24.6922 136.695 24.1517C137.841 23.6861 138.988 23.2273 140.081 22.662C141.145 22.0692 142.231 21.4927 143.219 20.772C143.573 20.5112 144.01 20.1689 144.054 19.6943C145.457 20.6458 146.74 21.7668 147.854 23.0327C146.726 23.4513 145.665 24.0625 144.529 24.4696C140.402 26.0808 136.294 27.7397 132.253 29.5472C128.965 30.9721 125.645 32.3069 122.319 33.6488C120.747 34.3095 119.189 34.9874 117.616 35.6481C116.878 35.9145 116.447 36.9516 117.432 37.1994C118.024 37.3591 118.587 37.0549 119.115 36.8194C119.895 36.49 120.675 36.1605 121.448 35.8255C124.802 34.3721 128.233 33.1035 131.584 31.6376Z" fill="#D5FFBF"/>
<path d="M91.867 70.4607C91.6551 70.9159 91.6018 71.5498 92.0603 71.8749C92.3912 72.1047 92.8454 71.9243 93.0843 71.6552C93.4637 71.1755 93.5751 70.5515 93.8168 69.9971C94.2505 68.8512 94.6989 67.7159 95.1266 66.5709C95.9888 64.1531 96.9252 61.7687 97.8211 59.3652C98.9201 56.3177 99.9177 53.2663 100.928 50.1751C100.915 50.2152 100.902 50.2549 100.889 50.295C100.88 50.3153 100.876 50.3351 100.867 50.3554C101.458 48.5976 102.054 46.8269 102.718 45.0902C103.168 43.8344 103.759 42.6017 103.997 41.2822C104.039 40.3519 102.971 40.2303 102.594 40.982C102.395 41.3971 102.251 41.8419 102.086 42.2714C100.15 47.0046 98.6618 51.8943 97.0065 56.7255C95.7215 60.3636 94.3032 63.9576 92.9711 67.5771C92.5924 68.5375 92.2332 69.5021 91.867 70.4607Z" fill="#FFFBED"/>
<path d="M23.2112 55.924C23.5126 56.1264 23.8669 56.2579 24.234 56.261L24.24 56.2601C25.3469 56.2622 24.9189 55.1483 24.3613 54.7048C23.638 54.1658 22.8077 53.7624 22.0367 53.287C18.3813 51.242 14.726 49.1975 11.1105 47.0773C10.093 46.5179 9.102 45.9234 8.07613 45.3906C7.71375 45.2033 7.34711 45.0289 6.97965 44.8489C6.76874 44.7469 6.55368 44.6586 6.31924 44.6992C5.71008 44.8141 5.71104 45.5162 6.07048 45.9001C6.35363 46.1939 6.72934 46.3854 7.08108 46.587C10.9678 48.8319 14.7767 51.1959 18.7191 53.344C19.7513 53.9201 20.789 54.4893 21.8063 55.0927C22.2768 55.3717 22.7467 55.6441 23.2112 55.924Z" fill="#FFFBED"/>
<path d="M35.9835 70.025C35.6928 70.3713 35.7835 70.7374 36.2032 70.8403L36.2096 70.8394C37.6668 71.2516 41.559 68.9416 43.3381 68.4402C48.6946 66.2882 53.9958 64.018 59.3738 61.9261C71.1341 57.0452 83.1392 52.7605 94.7261 47.4685C95.9885 46.8911 95.2968 45.6138 94.1393 46.0872C91.1096 47.4613 87.9815 48.6414 84.8895 49.8918C72.6167 54.9874 60.1764 59.6706 47.9206 64.7953C45.2145 65.9197 42.2671 67.0795 39.5223 68.1968C38.3584 68.7975 36.827 68.959 35.9835 70.025Z" fill="#FFFBED"/>
<path d="M147.834 23.0357C147.856 23.0579 147.894 23.1027 147.894 23.1027L147.893 23.0967C148.083 23.3154 148.291 23.5692 148.408 23.8495C148.532 24.0085 148.625 24.1716 148.7 24.3379C148.127 24.5677 147.583 24.8751 147.022 25.1409C145.349 25.9365 143.601 26.5659 141.887 27.2539C138.427 28.6658 134.987 30.1322 131.565 31.6397C128.221 33.1106 124.783 34.374 121.429 35.8273C120.65 36.1631 119.876 36.4917 119.096 36.8211C118.568 37.0566 118.012 37.3662 117.413 37.201C116.423 36.9606 116.86 35.9226 117.598 35.6499C119.17 34.9892 120.728 34.3114 122.3 33.6507C125.627 32.315 128.947 30.9803 132.234 29.5494C136.276 27.7421 140.383 26.083 144.51 24.4719C145.645 24.0589 146.707 23.4542 147.834 23.0357Z" fill="#FFFBED"/>
<path d="M129.992 24.2172C129.448 23.5633 129.106 22.7719 128.742 22.0156L128.736 22.0165C128.206 20.7659 127.634 19.5278 127.321 18.2071C127.248 18.0976 127.21 18.0024 127.196 17.9096C129.79 17.0987 132.482 16.482 135.208 16.7966C138.216 17.1331 141.111 18.258 143.617 19.965C143.575 20.414 143.161 20.7406 142.824 20.9863C141.893 21.6732 140.866 22.2163 139.854 22.7761C138.82 23.3136 137.733 23.7519 136.652 24.1887C135.412 24.6999 134.128 25.2675 132.766 25.3344C131.73 25.3852 130.697 24.9743 129.992 24.2172Z" fill="#B7E8FF"/>
<path d="M8.68625 77.9611C8.68531 77.9547 8.67795 77.9492 8.67795 77.9492C8.68531 77.9547 8.68625 77.9611 8.68625 77.9611Z" fill="#0FFF80"/>
<path d="M8.70779 77.9751C8.70866 77.9811 8.70866 77.9811 8.70866 77.9811L8.73087 77.959C8.89134 78.1062 9.11951 78.2816 9.37928 78.2434C9.42265 78.237 9.45958 78.2316 9.50113 78.2128C9.68932 78.204 9.89056 78.1495 10.0661 78.0539C10.2657 77.9487 10.4547 77.813 10.6534 77.7018C11.6769 77.0898 12.7012 76.4839 13.7417 75.9011C19.06 73.0011 24.2453 69.7533 29.5536 66.8294C29.9879 66.5567 30.5058 66.2911 30.7042 65.8319C30.727 65.7715 30.7373 65.7129 30.7486 65.6608C31.0488 64.8132 30.4183 63.824 30.0158 63.2314C29.8505 63.009 29.6622 62.7584 29.4722 62.4954C29.4248 62.4326 29.378 62.3697 29.3298 62.3008C29.1879 62.1066 29.0511 61.9051 28.9295 61.7206C28.8238 61.6032 28.6335 61.2963 28.4125 61.0377C28.0866 60.5796 27.5992 59.9674 26.8364 60.244C26.4674 60.2727 26.1059 60.5219 25.7746 60.7224C25.4724 60.9059 25.1776 61.0949 24.8685 61.2732C23.8272 61.85 22.7775 62.4149 21.7523 63.0148C19.5955 64.2679 17.4587 65.4799 15.2967 66.7843C12.4122 68.4669 9.51622 70.1129 6.67253 71.8588C6.64343 71.8758 6.62121 71.8979 6.59299 71.9209C6.40919 72.005 6.22689 72.1836 6.12477 72.3947C5.61977 73.3988 6.25988 74.2795 6.65673 75.0498C6.95282 75.6071 7.25954 76.1501 7.66521 76.6348C7.95992 77.0532 8.30362 77.5851 8.69996 77.9635C8.70685 77.9687 8.70685 77.9687 8.70685 77.9687C8.70772 77.9747 8.70779 77.9751 8.70779 77.9751Z" fill="#0FFF80"/>
<path d="M8.72962 77.9993C8.72225 77.9939 8.72131 77.9874 8.72131 77.9874C8.72868 77.9929 8.72962 77.9993 8.72962 77.9993Z" fill="#0FFF80"/>
<path d="M42.0347 61.5667C42.2318 61.8354 42.5203 62.078 42.8681 62.0774C42.9903 62.0911 43.0978 62.0942 43.197 62.0796C44.1879 61.9341 44.2287 60.3016 43.821 59.5449C43.5881 58.9461 43.1995 58.32 42.5909 58.0485C41.9911 57.795 41.3958 58.2683 41.2533 58.8525C41.0057 59.8002 41.2354 60.9435 42.0347 61.5667Z" fill="#0FFF80"/>
<path d="M64.074 52.8192C64.271 53.0879 64.5595 53.3304 64.9073 53.3299C65.0295 53.3435 65.137 53.3466 65.2362 53.332C66.2271 53.1866 66.2679 51.5541 65.8602 50.7974C65.6273 50.1985 65.2387 49.5725 64.6301 49.301C64.0304 49.0475 63.4351 49.5208 63.2925 50.1049C63.0449 51.0527 63.2746 52.1959 64.074 52.8192Z" fill="#0FFF80"/>
<path d="M70.6277 49.8652C70.8247 50.1339 71.1132 50.3764 71.461 50.3759C71.5832 50.3895 71.6907 50.3926 71.7899 50.3781C72.7809 50.2326 72.8216 48.6001 72.4139 47.8434C72.1811 47.2445 71.7924 46.6185 71.1839 46.347C70.5841 46.0935 69.9888 46.5668 69.8462 47.151C69.5986 48.0987 69.8284 49.2419 70.6277 49.8652Z" fill="#0FFF80"/>
<path d="M77.8525 46.971C78.0496 47.2397 78.338 47.4823 78.6859 47.4817C78.8081 47.4954 78.9155 47.4985 79.0148 47.4839C80.0057 47.3384 80.0464 45.7059 79.6388 44.9492C79.4059 44.3504 79.0172 43.7243 78.4087 43.4528C77.8089 43.1993 77.2136 43.6726 77.071 44.2568C76.8235 45.2045 77.0532 46.3478 77.8525 46.971Z" fill="#0FFF80"/>
<path d="M106.382 34.3154C106.579 34.5841 106.867 34.8266 107.215 34.8261C107.337 34.8397 107.445 34.8428 107.544 34.8283C108.535 34.6828 108.576 33.0503 108.168 32.2936C107.935 31.6947 107.546 31.0687 106.938 30.7972C106.338 30.5437 105.743 31.017 105.6 31.6012C105.353 32.5489 105.582 33.6921 106.382 34.3154Z" fill="#0FFF80"/>
<path d="M112.942 31.3671C113.139 31.6358 113.427 31.8784 113.775 31.8778C113.897 31.8915 114.005 31.8946 114.104 31.88C115.095 31.7345 115.136 30.102 114.728 29.3453C114.495 28.7465 114.107 28.1205 113.498 27.8489C112.898 27.5955 112.303 28.0687 112.16 28.6529C111.913 29.6006 112.143 30.7439 112.942 31.3671Z" fill="#0FFF80"/>
<path d="M120.167 28.4672C120.364 28.7359 120.652 28.9785 121 28.9779C121.122 28.9916 121.23 28.9947 121.329 28.9801C122.32 28.8346 122.361 27.2021 121.953 26.4454C121.72 25.8466 121.332 25.2206 120.723 24.949C120.123 24.6956 119.528 25.1688 119.385 25.753C119.138 26.7007 119.368 27.844 120.167 28.4672Z" fill="#0FFF80"/>
<path d="M87.2057 43.0183C87.4028 43.287 87.6913 43.5295 88.0391 43.5289C88.1613 43.5426 88.2688 43.5457 88.368 43.5311C89.3589 43.3857 89.3997 41.7532 88.992 40.9965C88.7591 40.3976 88.3705 39.7716 87.7619 39.5001C87.1621 39.2466 86.5669 39.7199 86.4243 40.304C86.1767 41.2518 86.4064 42.395 87.2057 43.0183Z" fill="#0FFF80"/>
<path d="M93.765 40.0701C93.9621 40.3388 94.2506 40.5814 94.5984 40.5808C94.7206 40.5945 94.8281 40.5976 94.9273 40.583C95.9182 40.4375 95.959 38.805 95.5513 38.0483C95.3184 37.4495 94.9298 36.8235 94.3212 36.5519C93.7214 36.2985 93.1262 36.7717 92.9836 37.3559C92.736 38.3036 92.9657 39.4469 93.765 40.0701Z" fill="#0FFF80"/>
<path d="M56.6469 45.7985C56.2108 46.3621 56.8205 47.0311 57.4209 47.0316L57.426 47.0248C58.816 46.802 60.0925 45.9756 61.4188 45.4903C65.0918 43.8891 68.7968 42.378 72.5001 40.8548C82.5322 36.74 92.5478 32.596 102.511 28.3144C105.71 26.9284 108.909 25.5485 112.157 24.2817C116.986 22.1947 121.799 19.9591 126.969 18.8275C133.967 16.5741 141.575 18.5119 146.936 23.499C147.646 24.0334 148.002 25.2208 148.997 25.2329C149.439 25.2312 149.825 24.8394 149.721 24.3931C149.208 23.1722 148.166 22.2245 147.187 21.3628C142.932 17.8896 137.318 15.8865 131.807 16.2396C123.556 17.0959 116.08 20.8418 108.501 23.914C101.304 26.9299 94.1706 30.0695 86.9644 33.0614C79.3359 36.1912 71.7183 39.3509 64.0915 42.4931C62.3099 43.2352 60.5598 44.0231 58.785 44.7704C58.0849 45.1262 57.2176 45.2468 56.6469 45.7985Z" fill="#004449"/>
<path d="M112.647 63.101C112.641 63.0636 112.591 63.1091 112.591 63.1091C112.596 63.1465 112.651 63.1319 112.647 63.101Z" fill="#004449"/>
<path d="M89.3043 71.6645C90.3039 72.4922 92.3648 72.1834 93.6013 72.0778L93.5953 72.0787C97.5641 71.5846 99.4494 70.6814 101.677 67.2663C103.297 64.8895 104.395 62.2228 105.753 59.6947C107.459 56.5586 108.864 53.2709 110.203 49.9608C111.575 46.7856 112.906 43.5969 114.243 40.4074C114.604 39.4116 113.592 38.7564 112.961 39.6339C112.682 40.0607 112.487 40.5454 112.27 41.0075C111.181 43.4328 110.2 45.8993 109.11 48.3181C107.636 51.8693 106.196 55.4405 104.341 58.8135C103.026 61.2465 101.98 63.8297 100.417 66.1223C99.821 67.0262 99.1655 67.9073 98.3091 68.5835C97.6866 69.0862 96.9383 69.4173 96.1619 69.601C94.5306 69.9924 92.9062 70.2564 91.2114 70.1699C90.9501 70.1135 90.6081 70.1509 90.4146 69.9515C90.2628 69.5182 90.5148 69.0317 90.6099 68.6003C90.93 67.585 91.3101 66.5925 91.6556 65.58C92.5999 62.8151 93.5572 60.0549 94.5412 57.3035C95.1105 55.5682 95.6126 53.8054 96.2145 52.078C97.1572 49.3892 98.0539 46.6889 98.9497 43.982C99.1322 43.4553 99.2764 42.9275 99.4396 42.3975C99.7061 41.8395 99.683 40.8557 98.8981 40.8063C97.8207 40.9202 97.8311 42.2922 97.5111 43.0919C97.3154 43.7027 97.1129 44.3088 96.9172 44.9196C95.6958 48.6043 94.3765 52.2214 93.2625 55.9475C92.2208 58.9984 91.1256 62.0255 90.0973 65.081C89.7164 66.2001 89.2769 67.3084 88.9494 68.4451C88.6338 69.4914 88.4182 70.8329 89.3043 71.6645Z" fill="#004449"/>
<path d="M112.225 41.7039C111.916 41.9264 111.741 42.3316 111.938 42.6882L111.924 42.6776C112.18 43.0893 112.552 43.1672 112.942 43.11C113.375 43.0464 113.828 42.8154 114.205 42.6715C115.396 42.212 116.547 41.6513 117.72 41.1503C121.304 39.5873 124.912 38.1032 128.535 36.6354C130.169 35.9213 131.817 35.2558 133.461 34.5653C133.47 34.545 133.474 34.5257 133.484 34.5054C133.563 34.2721 133.782 34.1642 133.988 34.0581C134.14 33.9786 134.299 33.8987 134.452 33.8192C134.735 33.6764 135.025 33.5456 135.308 33.4028C135.603 33.2582 135.899 33.1195 136.203 32.9929C136.358 32.9319 136.507 32.8663 136.662 32.8053C136.806 32.7526 136.948 32.6814 137.092 32.6287C137.272 32.5641 137.451 32.4938 137.631 32.4293C137.973 32.3032 138.309 32.178 138.65 32.0459C138.812 31.984 138.973 31.9161 139.135 31.8607C139.195 31.8391 139.262 31.8172 139.322 31.7956C139.529 31.5313 139.572 31.2149 139.207 30.9206C138.689 30.5793 138.092 30.9069 137.574 31.0842C136.415 31.5009 135.303 32.0247 134.17 32.4944C132.055 33.3361 129.953 34.2197 127.858 35.1154C123.805 36.7538 119.748 38.4178 115.746 40.1878C114.856 40.5903 113.961 40.9933 113.044 41.3367C112.77 41.4528 112.472 41.5347 112.225 41.7039Z" fill="#004449"/>
<path d="M58.6798 64.5108C58.2505 65.0796 58.733 65.7423 59.3805 65.7171L59.3856 65.7097C59.8934 65.6795 60.3083 65.4037 60.8023 65.2365C62.313 64.6292 63.8241 64.0214 65.3338 63.4077C68.2968 62.138 71.297 60.952 74.2503 59.6584C78.1903 57.98 82.1188 56.2647 86.0679 54.6038C88.3462 53.6247 90.566 52.5904 92.8672 51.6395C93.7049 51.27 94.5503 50.9121 95.3779 50.5187C95.7683 50.2908 96.2588 50.1425 96.539 49.7662C96.797 49.412 96.6135 48.9779 96.2127 48.8722C95.987 48.7978 95.7036 48.8517 95.4793 48.9162C94.9171 49.0934 94.3718 49.3384 93.8123 49.5341C91.3561 50.5078 88.9187 51.5235 86.5257 52.627C82.0732 54.5197 77.6303 56.4368 73.1796 58.3419C69.0425 60.1001 64.8958 61.8343 60.7257 63.4959C60.2188 63.7033 59.7095 63.8977 59.2086 64.1042C59.0008 64.1978 58.8165 64.3201 58.6798 64.5108Z" fill="#004449"/>
<path d="M18.366 64.0865C18.6342 64.4521 19.0407 64.6834 19.4972 64.6923L19.5138 64.6771C19.6402 64.6774 19.7883 64.6496 19.9014 64.6014C20.3211 64.445 20.4404 63.9211 20.229 63.5536C20.013 63.1996 19.6892 62.9308 19.4398 62.6067C18.5377 61.4928 17.463 60.5373 16.5054 59.4759C14.0067 56.8188 11.3405 54.3131 9.11559 51.4073C8.28475 50.3462 7.40924 49.2856 6.82615 48.0617C6.35283 47.1127 6.47017 45.7478 7.47079 45.1959C8.96646 44.4388 11.7177 45.7494 13.2424 46.2782C17.0199 47.6466 20.6212 49.4524 24.1494 51.3638C26.3448 52.5471 28.5314 53.7572 30.8949 54.574C32.1906 55.0482 33.5193 55.4473 34.8995 55.5927C37.4129 56.0083 39.8303 54.9829 42.0602 53.928C43.1884 53.4272 44.2474 52.7973 45.3133 52.1726C46.5274 51.4819 47.7677 50.8382 48.9979 50.1705C49.314 49.9534 49.7323 49.8288 49.9487 49.4933C50.1324 49.15 49.9022 48.741 49.5711 48.5934C48.8127 48.2493 48.0565 48.7842 47.3717 49.0743C45.9748 49.6844 44.6374 50.3994 43.3188 51.156C42.2496 51.8 41.1126 52.3276 39.9802 52.8419C38.7837 53.3528 37.5743 53.859 36.244 53.9722C32.8994 54.0582 29.1124 52.1913 26.2196 50.6044C22.0051 48.3194 17.734 46.1248 13.2074 44.5183C11.5774 43.9164 9.8944 43.2586 8.1365 43.2573C5.91188 43.2614 4.28626 44.8603 4.54643 47.1246C4.82253 49.0198 6.33424 50.7146 7.46717 52.1996C8.90016 54.0074 10.4002 55.7544 12.0519 57.3717C13.6906 59.029 15.2566 60.7537 16.8953 62.411C17.41 62.9489 17.8744 63.5324 18.366 64.0865Z" fill="#004449"/>
<path d="M6.45626 75.5854C7.06027 76.4771 7.60763 77.4978 8.53454 78.0894L8.5336 78.0829C9.84826 78.6869 11.2621 77.8917 12.4593 77.3425C13.3234 76.9374 14.2226 76.514 15.0654 76.0488C17.2616 74.7205 19.5243 73.5023 21.7367 72.1971C23.8378 71.0407 25.9224 69.8552 28.031 68.7044C28.7165 68.3317 29.3999 67.9469 30.0745 67.5442C30.4525 67.318 30.9363 67.1645 31.1907 66.7857C31.7688 65.7204 30.4566 65.3052 29.6967 65.8596C26.0296 67.9414 22.3117 69.9364 18.6634 72.0598C16.1391 73.4362 13.7456 75.0217 11.0924 76.1638C10.6772 76.3512 10.2579 76.5523 9.79608 76.5946C9.45412 76.3727 9.2262 75.9823 8.96616 75.6724C8.61725 75.1861 8.29745 74.6827 8.00674 74.1623C7.84501 73.8319 7.71059 73.4782 7.75745 73.1044C7.71713 72.3068 8.37791 71.8933 8.97492 71.5209C9.8155 70.999 10.7677 70.4607 11.7135 69.9234C15.0106 68.035 18.2846 66.118 21.5807 64.2231C23.4814 63.166 25.3312 62.0215 27.1901 60.8946C27.4974 60.7038 27.8675 60.5104 27.931 60.1214C28.009 59.5281 27.271 59.4086 26.8433 59.5978C25.4763 60.064 24.2337 60.8222 22.984 61.531C20.8018 62.7813 18.6183 64.0252 16.443 65.2811C13.8172 66.8304 11.157 68.3159 8.52423 69.8601C7.67732 70.3386 6.82568 70.8749 6.23975 71.6697C5.83624 72.2415 5.73844 72.958 5.73671 73.6416C5.76352 74.3464 6.08646 75.0007 6.45626 75.5854Z" fill="#004449"/>
<path d="M26.1814 72.2552C28.9022 74.1833 32.0528 74.8085 35.3444 74.623C36.8621 74.5394 38.337 74.1646 39.7954 73.7611C42.6105 73.0383 45.317 71.9139 47.9616 70.7164C48.1186 70.6236 48.4473 70.5377 48.5681 70.3682C49.0945 69.7281 48.3009 68.8386 47.6032 68.8651C47.167 68.8659 46.8041 69.1534 46.4094 69.3061C45.0393 69.9243 43.6505 70.5014 42.2341 71.019C40.9081 71.5487 39.5264 71.9159 38.1442 72.2767C36.8521 72.6053 35.5476 72.8919 34.2137 72.8915C31.77 72.9527 29.3417 72.4302 27.2946 71.0482C26.6401 70.6762 26.0277 70.2475 25.4047 69.8331C25.1449 69.6119 24.5678 69.2539 24.1729 69.4509C23.3499 69.8753 24.1013 70.6503 24.5553 71.0329C25.0749 71.4752 25.6033 71.8908 26.1814 72.2552Z" fill="#004449"/>
<path d="M126.476 19.7364C127.317 23.1174 129.143 26.0189 133.044 25.6358L133.039 25.6431C135.133 25.5695 137.045 24.669 138.919 23.8246C140.682 23.1231 142.36 22.2317 144.116 21.5246C144.905 21.257 145.106 19.9436 144.316 19.5596C143.881 19.3897 143.46 19.7165 143.064 19.8632C141.706 20.436 140.388 21.1104 139.025 21.6901C136.419 22.7685 133.433 24.44 130.613 23.1777C128.927 22.2421 128.377 20.2038 127.793 18.493C127.38 16.7444 125.796 17.8437 126.476 19.7364Z" fill="#004449"/>
<path d="M130.146 34.1585C129.384 34.4411 128.86 35.1825 129.744 35.6978L129.748 35.6784C129.966 35.7855 130.189 35.8032 130.406 35.7713C130.771 35.7177 131.128 35.5201 131.459 35.3639C132.137 35.0683 132.809 34.8178 133.478 34.5106C133.484 34.5097 133.483 34.4972 133.483 34.4972C133.563 34.2639 133.781 34.1564 133.987 34.0502C134.14 33.9707 134.298 33.8903 134.451 33.8108C134.734 33.6679 135.025 33.5371 135.307 33.3942C135.602 33.2495 135.898 33.1112 136.202 32.9845C136.358 32.9235 136.506 32.8579 136.662 32.7968C136.806 32.7441 136.947 32.6729 137.091 32.6201C137.271 32.5555 137.451 32.4852 137.631 32.4206C137.973 32.2945 138.309 32.1688 138.65 32.0367C138.812 31.9748 138.973 31.9072 139.135 31.8517C139.165 31.8412 139.195 31.8242 139.226 31.8196C140.117 31.3851 141.015 30.9556 141.916 30.5387C143.789 29.6878 145.722 28.9362 147.457 27.8209C148.714 27.1237 150.34 25.9112 149.722 24.2745C148.781 22.1543 146.485 20.9348 144.466 19.9659C144.183 19.8051 143.589 19.6768 143.542 20.1331C143.551 20.2836 143.645 20.3586 143.753 20.4502C144.306 20.9952 144.831 21.5632 145.44 22.0497C146.11 22.6157 146.704 23.2623 147.264 23.9394C147.756 24.5821 148.079 25.193 147.325 25.7908C144.977 27.5083 142.141 28.5254 139.514 29.7651C137.333 30.8063 135.277 31.931 133.021 32.8443C132.078 33.318 131.071 33.6492 130.146 34.1585Z" fill="#004449"/>
<path d="M127.938 35.1219C127.172 35.7274 127.77 36.6202 128.628 36.5198L128.634 36.5124C129.062 36.4557 129.382 36.2697 129.82 36.1106C130.65 35.7738 131.481 35.4495 132.31 35.1063C134.942 34.0812 137.439 32.779 139.996 31.5876C141.797 30.7161 143.595 29.8261 145.413 28.9776C146.116 28.6466 146.796 28.2371 147.392 27.7258C147.761 27.3936 148.008 27.0914 148.327 26.6778C148.539 26.4 148.849 26.1396 148.896 25.772C148.921 25.5091 148.548 25.4625 148.402 25.6296C148.247 25.7852 148.067 25.8937 147.882 26.0095C147.001 26.4297 146.229 26.6882 145.324 27.2005C141.615 28.9023 137.915 30.7545 134.217 32.4927C132.562 33.2354 130.875 33.8936 129.198 34.5763C128.86 34.7273 128.268 34.8773 127.938 35.1219Z" fill="#004449"/>
<path d="M105.867 57.022C105.841 57.1018 105.819 57.2126 105.873 57.3249L105.872 57.3189C105.919 57.4196 106.012 57.4503 106.105 57.4367C106.458 57.3466 106.533 56.9053 106.742 56.6468C107.371 55.6685 107.96 54.5886 108.516 53.5386C109.386 51.8286 110.195 50.0899 110.922 48.3061C111.919 45.9446 112.969 43.6007 113.918 41.221C114.216 40.4432 114.559 39.6711 114.863 38.8925C114.984 38.552 115.183 38.2252 115.193 37.8567C115.138 36.6562 113.745 36.9937 113.457 37.8776C111.852 42.0117 110.019 46.0589 108.347 50.165C107.931 51.1309 107.483 52.0953 107.135 53.0894C106.767 54.0359 106.539 55.0313 106.21 55.9909C106.108 56.2908 105.986 56.6631 105.867 57.022Z" fill="#004449"/>
<path d="M65.7134 99.0128C66.6716 99.6823 67.251 98.3187 66.7722 97.509L66.7787 97.5081C65.8278 95.6726 64.9602 93.7999 64.1402 91.9075C62.577 88.0416 62.2279 83.7135 61.5017 79.5983C61.1218 77.1667 60.0987 75.031 60.0064 72.5761C59.9518 71.1597 59.9213 69.7341 59.8917 68.3141C59.9389 64.2119 59.8943 60.085 59.3521 56.0187C58.8174 53.2173 58.2836 46.5163 55.0862 45.6753C51.9199 45.393 51.5727 49.786 51.0634 52.0636C50.5501 54.8353 50.1347 57.6308 49.7897 60.4283C48.9395 65.8382 48.2282 71.3735 47.6128 76.8315C47.0308 81.911 48.523 84.5974 50.1476 89.1884C51.1659 91.7038 51.9874 94.2985 53.0709 96.7854C53.7227 98.3481 54.6179 99.8053 55.1495 101.411C55.5456 102.391 56.6855 101.964 56.7128 101.068C56.7449 100.81 56.7395 100.513 56.6503 100.248L56.6748 100.244C59.6863 99.8972 62.665 98.9345 65.7134 99.0128ZM65.6337 98.9867C65.6604 98.9955 65.6798 98.9988 65.7056 99.0012L65.7065 99.0076L65.6337 98.9867Z" fill="#FFA97F"/>
<path d="M57.4239 76.3544C57.4113 77.1348 57.0979 78.1556 57.831 78.7128L57.8199 78.7206C58.872 79.1235 59.045 77.5345 59.0403 76.8072C59.2216 74.0586 59.4993 71.3213 59.7323 68.5779C60.0867 63.0253 61.4822 47.8564 55.739 45.0529C54.4806 44.0602 53.466 45.6519 54.6187 46.5275C55.0998 46.9189 55.6602 47.2038 56.114 47.6246C57.3015 49.1722 57.7263 51.1736 58.0089 53.0691C58.8717 58.0317 58.4211 63.187 58.1091 68.2082C57.8974 70.9231 57.6097 73.6368 57.4239 76.3544Z" fill="#004449"/>
<path d="M90.7814 106.434C90.8234 103.372 91.0597 100.313 90.8578 97.2566L90.8446 97.2447C90.7832 96.6396 90.7395 96.0146 90.492 95.4502C90.4362 94.0736 88.5317 93.0592 86.8108 93.221C85.969 93.2946 84.8078 93.2398 84.5451 94.2566C84.3831 94.7728 84.8105 95.3216 85.3578 95.2375C86.4344 95.0956 87.8033 94.908 88.5768 95.8535C88.2654 96.145 87.8653 96.2782 87.4706 96.4046C86.6989 96.6313 85.9093 96.7527 85.1201 96.8803C82.8192 97.3408 80.5613 97.2846 78.1678 97.3923C72.8351 97.6037 67.5196 98.0278 62.1826 98.1516C60.9435 98.1699 59.6397 98.2794 58.3892 98.3235C57.3575 98.3627 56.3273 98.3018 55.2986 98.2722C53.7765 98.1481 48.8079 98.7428 48.0756 97.3684C48.5784 96.8977 49.1803 96.5412 49.8275 96.3269C50.3087 96.1835 50.8834 96.2673 51.2378 95.8358C51.2082 95.8686 51.1778 95.8954 51.1481 95.9282C51.1182 95.9549 51.0879 95.9752 51.0579 96.0019C51.915 95.3507 51.4679 94.2944 50.3715 94.5439C48.9338 94.7288 47.396 95.5399 46.5666 96.7478C46.3633 97.0717 46.2742 97.4211 46.2784 97.7593C45.9869 98.4512 45.8741 99.1973 45.7921 99.9413C45.4749 102.127 45.1634 104.312 44.8337 106.498C43.9327 113.065 43.2528 119.671 42.4093 126.267C41.8844 131.335 41.5234 136.413 40.9982 141.475C40.3008 148.238 39.5344 154.987 38.7122 161.756C38.2054 165.676 37.9373 169.609 37.4556 173.527C37.1415 176.158 36.834 178.782 36.5705 181.417C36.5548 181.731 36.4652 182.199 36.4315 182.659C36.3404 183.089 36.2826 183.569 36.553 183.844C36.587 183.899 36.6272 183.947 36.6796 183.995C36.9334 184.189 37.2417 184.211 37.5738 184.213C38.087 184.206 38.6071 184.205 39.1197 184.186C40.2206 184.155 41.3236 184.169 42.4207 184.064C43.1062 183.991 43.7898 183.888 44.4772 183.854C48.1039 183.728 51.7074 183.39 55.3399 183.251C60.5865 183.076 65.8246 182.85 71.0653 182.687C74.0111 182.595 76.9438 182.372 79.8896 182.281C81.5955 182.195 83.3007 182.103 85.0026 181.936C85.2827 181.897 85.7974 181.928 86.1137 181.736C86.574 181.669 86.9858 181.134 86.9812 180.664C86.9878 180.545 86.9948 180.431 87.0018 180.318C87.0627 179.149 87.1736 177.99 87.2597 176.819C87.3722 175.308 87.3913 173.796 87.5168 172.291C88.181 163.855 88.3426 155.388 88.9753 146.947C89.2693 141.771 89.6135 136.599 89.7691 131.418C89.8459 128.053 90.1237 124.69 90.2192 121.324C90.3481 116.358 90.7153 111.404 90.7814 106.434Z" fill="#0FFF80"/>
<path d="M90.1222 99.7819C90.144 99.8435 90.1915 99.9168 90.2668 99.9191L90.2608 99.9194C90.5913 99.8902 90.5467 98.3686 90.5936 98.0525C90.7109 97.1374 90.7401 96.2142 90.5446 95.3082C90.4575 94.8171 89.8857 93.9113 89.2988 94.0725C88.9228 94.1919 88.8145 94.661 88.894 95.002C88.9298 95.2134 89.1537 95.4341 89.261 95.5731C89.7455 96.3641 89.7068 97.3574 89.8389 98.2474C89.896 98.7653 89.947 99.2826 90.1222 99.7819Z" fill="#0FFF80"/>
<path d="M52.9898 110.603C55.5434 110.695 57.3433 107.964 56.9429 105.583C56.776 103.616 55.4162 102.343 53.4386 102.373C52.3637 102.546 51.3648 103.236 50.7056 104.09C48.8981 106.282 49.909 110.369 52.9898 110.603Z" fill="#FFFBED"/>
<path d="M70.216 98.6511C72.7031 98.5515 75.1937 98.3827 77.6811 98.2893L77.6998 98.2884C78.9695 98.2625 80.2438 98.1986 81.5154 98.0783C82.5822 97.9996 83.7485 97.9033 84.9456 97.6743C85.8755 97.4899 86.7906 97.2502 87.6963 96.954C88.1389 96.7876 88.6336 96.6563 88.9993 96.3312C89.392 95.923 89.1172 95.4293 88.671 95.27C88.3129 95.119 87.9378 95.2633 87.5922 95.3619C87.3389 95.4311 87.0791 95.5002 86.8198 95.5697C84.9354 96.084 83.0003 96.3374 81.0587 96.4535C79.3949 96.6182 77.5797 96.628 75.8868 96.7129C71.6095 96.9587 67.34 97.1102 63.0599 97.1684C58.7934 97.2572 54.5164 97.3774 50.2666 96.9205C49.8514 96.8788 49.4423 96.8367 49.0326 96.7821C48.6663 96.7192 48.2654 96.7202 47.9642 96.9608C47.2356 97.5423 47.9406 98.3712 48.6685 98.4038C52.205 98.8778 55.7761 98.9116 59.3386 98.8959C62.9609 98.8268 66.5897 98.7638 70.216 98.6511Z" fill="#004449"/>
<path d="M35.8446 181.691C35.8131 182.194 35.6667 182.772 36.0627 183.173L36.0756 183.178C36.3732 183.49 36.87 183.402 37.1303 183.094C37.3565 182.851 37.4597 182.532 37.4873 182.204C37.5362 181.675 37.5722 181.14 37.6084 180.611C37.9666 176.348 38.4439 172.216 38.956 167.901C39.9234 159.762 40.6088 151.619 41.5318 143.47C42.3159 137.065 42.9551 130.649 43.7194 124.22C44.4824 118.273 45.4409 112.349 45.8451 106.365C45.9245 105.314 46.042 104.267 46.0521 103.213C46.0454 102.956 46.0761 102.691 45.9947 102.444C45.8891 102.086 45.4892 101.861 45.1468 102.029C44.729 102.194 44.5678 102.729 44.5515 103.162C44.4545 103.983 44.3823 104.801 44.2979 105.621C44.0502 108.079 43.8366 110.705 43.5233 113.223C43.0606 117.273 42.3584 121.297 41.9146 125.351C41.4377 129.238 41.0786 133.107 40.6207 136.999C40.1466 140.943 39.6589 144.874 39.2852 148.826C38.519 156.597 37.6913 164.527 36.7629 172.313C36.5125 174.96 36.1514 177.662 35.9454 180.319C35.9118 180.778 35.8782 181.232 35.8446 181.691Z" fill="#004449"/>
<path d="M86.1342 178.233C86.2092 179.233 85.5341 180.903 86.4703 181.578L86.4824 181.577C87.6648 181.913 87.7435 180.341 87.7339 179.52C87.8786 177.142 88.0933 174.773 88.2505 172.395C88.5103 168.174 88.8463 163.961 89.0935 159.741C89.7681 149.622 90.3856 139.494 90.6518 129.359C90.6881 127.187 90.8879 125.026 91.0245 122.862C90.9506 122.006 91.3658 120.907 90.8899 120.159C89.0929 119.19 89.5242 122.699 89.3309 123.724C89.1093 126.2 88.951 128.679 88.9304 131.164C88.8963 135.518 88.4921 139.852 88.3073 144.202C87.9767 152.923 87.2693 161.62 86.6997 170.328C86.5553 172.963 86.3225 175.596 86.1342 178.233Z" fill="#004449"/>
<path d="M52.4562 105.795C52.1759 106.455 52.5972 107.368 53.3302 107.501L53.3305 107.507C54.9306 107.822 55.4995 105.028 53.8342 104.791C53.1919 104.717 52.6723 105.232 52.4562 105.795Z" fill="#004449"/>
</svg>
