<svg width="115" height="138" viewBox="0 0 115 138" fill="none" xmlns="http://www.w3.org/2000/svg">
<path d="M54.7 27.3384C52.5867 27.0611 51.8274 25.9161 50.2718 24.4971C49.7197 23.9726 49.2751 23.351 48.7898 22.7667C48.494 22.4771 48.1552 22.0921 47.9324 21.7746C47.773 21.5687 47.5741 21.3299 47.7218 21.0592C48.002 20.5437 48.5207 21.1429 48.8383 21.3187C49.8317 21.8014 50.7248 22.4554 51.6507 23.0524C52.6614 23.6484 53.5523 24.1489 54.6214 24.5791C56.2483 25.0512 58.0651 25.3229 59.6898 24.7086C61.1996 24.0529 62.4075 22.9034 63.6895 21.9029C64.5001 21.2674 65.3481 20.6904 66.2902 20.2674C66.8435 20.0454 67.3861 19.5538 68.0096 19.6698C68.7768 19.9103 68.925 20.9817 68.5188 21.5933C68.1338 22.1518 67.3867 22.2556 66.8368 22.6043C65.9342 22.9955 65.157 23.5954 64.3826 24.1913C62.2426 26.06 60.3477 35.7084 57.6969 35.7324C57.1431 35.7374 55.3212 27.4656 54.7 27.3384Z" fill="#004448"/>
<path d="M40.251 63.6838C40.2037 63.6392 40.2026 63.5716 40.2249 63.5119C40.3057 63.3501 40.5029 63.2765 40.6316 63.1526C41.513 62.4116 42.3364 61.901 43.268 61.3212C44.6536 60.4357 45.9367 59.5719 47.3279 58.7349C49.2628 57.6088 50.9142 56.0693 52.8436 54.9371C54.3679 54.0298 55.4321 43.083 56.9286 43.1354C58.0044 43.1728 59.4903 53.9874 60.6581 54.4835C63.3625 55.8227 65.7153 57.7768 68.4748 59.0178C69.7663 59.6149 71.0627 60.2052 72.4344 60.5964C72.8645 60.737 73.2985 60.8681 73.7309 61.0026C74.0145 61.0841 74.2936 61.1689 74.4719 61.4228C74.7867 61.8759 74.6262 62.5259 74.2752 62.9138C73.8652 63.3802 73.3125 63.479 72.7564 63.2279C70.8449 62.6599 68.979 61.9919 67.1883 61.1103C65.9169 60.5065 64.6946 59.8068 63.5146 59.0412C62.0298 58.0943 60.6297 57.1089 59.0329 56.441C57.9944 56.0855 56.8885 55.8718 55.7914 56.0258C53.1467 56.5648 51.263 58.7059 49.016 60.0434C47.6672 60.8536 46.3122 61.6638 44.8982 62.3552C43.8914 62.8786 42.7872 63.1102 41.698 63.3869C41.3057 63.5075 40.9163 63.6369 40.5135 63.7173C40.426 63.7335 40.3235 63.7513 40.251 63.6838Z" fill="#004448"/>
<path d="M52.5795 55.7484C52.0112 55.571 51.8692 54.8523 52.0447 54.344C52.1851 53.8005 52.6809 53.4779 52.9695 53.0198C53.6849 51.8 54.0632 50.4346 54.3964 49.0714C54.802 47.7121 55.1814 46.3489 55.3987 44.9444C55.8282 43.1069 55.9463 41.2176 56.0048 39.3354C55.9625 36.8668 55.6861 34.4033 55.1346 31.9961C54.9206 30.9007 54.6409 29.8165 54.2872 28.7585C54.0933 28.3462 53.9306 27.9176 53.7222 27.5125C53.4637 27.1108 53.1383 26.3993 53.7083 26.1164C54.8348 25.8285 55.9575 27.9902 56.2567 28.8701C57.4144 31.9006 57.8545 35.1683 57.9855 38.3969C58.0144 39.0899 57.986 39.7829 57.9415 40.4754C57.849 41.8503 57.771 43.2286 57.4679 44.5767C57.2205 45.8557 57.0121 47.1452 56.6255 48.3923C56.07 50.2181 55.7329 52.1242 54.7958 53.8099C54.5278 54.3579 54.1579 54.8422 53.7506 55.2937C53.4715 55.6329 53.023 55.879 52.5795 55.7484Z" fill="#004448"/>
<path d="M62.2521 57.1608C61.8877 57.1273 61.6515 56.8237 61.4041 56.5877C60.7439 55.9399 60.3494 55.095 59.9316 54.2843C59.2468 53.1002 58.9638 51.7627 58.6741 50.4413C58.3961 49.1585 58.0467 47.8874 57.8841 46.5833C57.4707 43.7693 57.0901 40.9419 57.201 38.0905C57.201 36.676 57.2484 35.2604 57.4629 33.8598C57.7609 31.5703 58.2969 29.2781 59.4056 27.2363C59.7455 26.5729 60.2068 25.9769 60.7773 25.4965C61.189 25.0886 61.3222 25.5378 61.1695 25.9278C60.1672 29.2329 59.3761 32.4983 59.205 35.93C59.1566 37.5738 59.1605 38.8902 59.2017 40.4615C59.3521 42.631 59.6691 44.7865 60.0062 46.9337C60.2842 48.2177 60.5895 49.4966 60.8859 50.7767C61.0386 51.6633 61.4659 52.4535 61.8788 53.2408C62.6972 52.8803 63.2265 53.8401 63.4911 54.4701C63.6249 54.8657 63.626 55.3166 63.504 55.7144C63.5246 56.3935 63.0053 57.2361 62.2521 57.1608Z" fill="#004448"/>
<path d="M62.861 24.6863C62.2364 24.6322 61.9261 23.9559 62.1913 23.4118C62.7111 22.5525 63.6549 22.0191 64.4177 21.388C66.2479 20.0136 68.3957 18.6923 70.5017 17.8759C71.933 17.3185 73.4406 16.8726 74.9816 16.8046C75.5126 16.8224 75.9566 16.8587 76.4742 16.8805C76.6124 16.8905 76.7656 16.9541 76.8063 17.1009C76.8687 17.4591 76.4141 17.4848 76.17 17.5601C75.2836 17.8106 74.4813 18.2872 73.62 18.6075C71.6956 19.3825 69.818 20.2686 68.0686 21.3885C66.8474 22.1798 65.4339 23.1898 64.4255 24.1261C64.0277 24.5407 63.4354 24.7711 62.861 24.6863Z" fill="#004448"/>
<path d="M39.6159 64.6737C39.3975 64.4482 40.0967 64.1704 40.2277 64.056C40.8544 63.6341 41.5275 63.3551 42.2055 63.0689C43.7371 62.2609 45.2548 61.4049 46.7111 60.468C47.017 60.2683 47.4248 59.8665 47.7953 60.141C47.8605 60.2024 47.8522 60.3146 47.8371 60.3933C47.763 60.7548 47.4131 60.9351 47.1373 61.1315C46.096 61.8223 45.0759 62.392 43.9962 62.9952C42.8535 63.6894 41.6311 64.268 40.3151 64.5431C40.1419 64.581 39.968 64.6168 39.802 64.6809C39.7407 64.7021 39.6727 64.7166 39.6159 64.6737Z" fill="#004448"/>
<path d="M40.3324 64.3098C39.9608 63.9856 42.8557 62.8233 43.1565 62.6827C44.7009 62.007 46.1005 61.069 47.4738 60.1019C48.7196 59.1589 50.0785 58.3738 51.2808 57.3767C51.5415 57.2243 51.8569 57.1239 52.1594 57.1747C52.1822 57.8203 51.5109 58.1752 51.0763 58.5362C50.6785 58.8453 50.2668 59.14 49.8456 59.4162C48.5703 60.2264 47.4248 61.1426 46.1612 61.9517C44.6853 62.8295 43.2501 63.6793 41.5692 64.0303C41.3386 64.1028 41.1051 64.1625 40.87 64.2183C40.6967 64.2758 40.5162 64.3679 40.3324 64.3098Z" fill="#004448"/>
<path d="M74.3387 64.1933C74.2273 64.1632 74.1153 64.133 74.0044 64.1007C73.8863 64.0666 73.7699 64.0309 73.654 63.9902C73.6768 63.9986 73.6997 64.0064 73.7225 64.0142C73.0433 63.7893 72.3664 63.5215 71.7257 63.2051C71.7296 63.2073 71.7335 63.209 71.7374 63.2112C71.7374 63.2112 71.7391 63.2118 71.7424 63.2135C71.0387 62.916 70.3785 62.5589 69.71 62.2381C68.4163 61.6494 67.141 61.0311 65.8829 60.3704C65.2857 60.0764 64.6979 59.7566 64.148 59.3794C63.6661 59.0262 61.9646 57.7378 63.7385 58.432C64.9882 58.99 66.1532 59.6462 67.3644 60.2505C68.5216 60.8542 69.73 61.3553 70.8839 61.9401C70.8749 61.9362 70.8666 61.9312 70.8577 61.9267C70.8488 61.9228 70.8404 61.9183 70.832 61.9139C71.729 62.358 72.6377 62.7916 73.5793 63.1353C73.5776 63.1348 73.5754 63.1342 73.5737 63.1337C73.5632 63.1298 73.552 63.1259 73.5409 63.1219C73.7715 63.2012 73.986 63.2787 74.2195 63.3407C74.4652 63.4071 74.7515 63.4634 74.8931 63.6995C75.131 64.0705 74.6557 64.3049 74.3387 64.1933Z" fill="#004448"/>
<path d="M45.6993 86.944C45.5979 88.286 44.7227 140.409 43.6903 141.207C41.6807 142.664 39.2638 143.376 36.8792 143.944C30.8782 145.394 24.6499 145.726 18.4946 145.607C14.7929 145.477 11.0824 145.29 7.43309 144.619C5.78116 144.332 4.04176 144.111 2.54471 143.317C0.991401 142.501 1.01981 90.2948 1.14907 88.8725C1.14016 88.7318 1.1318 88.5912 1.124 88.4506C1.04767 87.0573 0.995301 85.3822 0.974129 84.0625C1.00254 81.0471 0.645414 76.5061 2.21656 73.8968C2.44331 73.4945 3.27569 72.6363 3.75594 72.8997C4.23174 73.2434 3.80999 73.8344 3.6434 74.2372C3.53921 74.5531 3.47904 74.8795 3.39937 75.2015C3.37876 75.3064 3.35814 75.4118 3.3392 75.5173C3.73143 75.678 4.1426 75.9218 4.4078 75.9709C5.21622 76.1953 5.9873 76.5412 6.80853 76.7142C7.51443 76.8353 8.2298 76.8587 8.93737 76.9714C10.1152 77.1952 11.3024 77.4189 12.5081 77.3403C15.598 77.1673 18.6968 77.0892 21.7812 76.8146C23.7629 76.5987 25.7447 76.3766 27.737 76.2717C30.4147 76.0385 33.1012 75.8281 35.7605 75.4341C38.2838 74.9783 40.7391 74.2255 43.234 73.6413C43.4267 73.5905 43.6223 73.5475 43.8101 73.4783C43.9376 73.4326 44.0619 73.4053 44.18 73.3924C44.1772 72.9388 44.1477 72.4868 44.0502 72.0409C43.9666 71.5767 43.7939 71.2162 43.7059 70.7676C43.5688 70.3095 43.9243 69.6376 44.4614 69.8603C45.0358 70.18 45.3879 70.8128 45.6364 71.4015C46.0698 72.4304 45.7684 85.9329 45.6993 86.944Z" fill="#0FFF80"/>
<path d="M6.95173 76.2394C5.85471 76.0865 4.57161 75.9124 3.8217 75.0123C3.06231 73.8729 3.7281 72.6425 4.91147 72.1771C6.67148 71.2508 8.67107 71.0154 10.5971 70.6387C12.3766 70.377 14.1333 69.982 15.9123 69.7136C19.6501 69.155 23.2933 68.0089 27.0908 67.904C30.4247 67.8694 33.7648 67.7237 37.0898 68.0463C39.1278 68.2404 41.26 68.3225 43.1292 69.2381C44.1856 69.7761 45.8175 71.2832 44.8402 72.4941C44.2887 74.9175 38.6615 74.7958 36.6703 74.8684C34.9922 75.0095 33.3168 75.1546 31.6354 75.2601C27.5142 75.4437 23.2548 76.0139 19.1894 75.9715C16.7502 76.034 14.316 76.3454 11.8713 76.2622C10.2322 76.2014 8.58583 76.3911 6.95173 76.2394Z" fill="#004448"/>
<path d="M21.5812 77.6048C19.1838 77.5033 16.7507 77.5284 14.408 76.9369C13.5728 76.7901 12.9772 76.0965 12.8106 75.2847C12.4112 73.8885 12.0067 72.4941 11.6495 71.0874C10.562 67.9386 9.33294 64.854 7.81305 61.9245C7.20243 60.6422 6.60517 59.3538 5.93047 58.1038C5.30257 56.8249 4.74208 55.513 4.1426 54.2207C3.51637 52.9105 3.06341 51.5328 2.57201 50.1702C1.21481 46.758 0.408626 43.0992 0.63037 39.4159C0.615884 38.604 0.686083 37.7938 0.858798 36.9992C0.998084 36.2475 1.07107 35.4781 1.27276 34.7387C2.54917 30.1882 5.59563 26.4664 8.5184 22.8622C13.0196 17.5629 17.6333 12.5588 22.3796 7.50496C23.7195 6.04244 25.0895 4.60671 26.5091 3.22175C26.9944 2.77647 27.4925 2.22795 28.0479 1.80387C28.1789 1.73301 28.3131 1.66716 28.4507 1.61248C28.541 1.579 28.634 1.55612 28.7288 1.53547C28.8357 1.51204 28.9421 1.48191 29.0497 1.45847C29.1115 1.44731 29.1739 1.44117 29.2369 1.43336C29.3204 1.4222 29.404 1.41216 29.4881 1.40937C29.5801 1.40881 29.6737 1.4116 29.7645 1.42499C29.8503 1.44117 29.9355 1.46684 30.0208 1.48972C30.1233 1.51706 30.2252 1.54943 30.325 1.58625C30.4158 1.62419 30.5044 1.66884 30.5896 1.71962C30.6197 1.73914 30.6492 1.76035 30.6771 1.78434C30.754 1.85577 30.8231 1.93668 30.8905 2.01759C30.881 2.00587 30.8715 1.99471 30.8621 1.98299C30.8793 2.00308 30.896 2.02372 30.9133 2.04437C30.998 2.14537 31.0766 2.25027 31.1512 2.35908C31.2844 2.64032 31.378 2.94219 31.4426 3.24798C31.7958 4.70882 31.4214 6.19254 30.9061 7.56634C30.335 9.189 29.5823 10.7458 28.7377 12.2496C30.008 11.666 31.3958 11.3127 32.7736 11.1347C35.3716 10.7693 38.0737 10.9322 40.5474 11.8462C42.0172 12.378 43.5733 12.9812 44.6229 14.1904C45.3004 14.9498 45.8208 16.0373 45.3951 17.044C44.5594 19.1783 41.7932 19.2972 39.8666 19.3357C39.4192 19.3401 38.866 19.3524 38.5846 18.9668C37.4118 19.0377 36.2329 19.026 35.0534 19.0137C33.138 18.9936 31.2231 18.973 29.3383 19.3117C27.9989 19.7118 26.4044 19.9467 25.1151 20.3869C24.0387 20.719 23.0102 21.4321 21.9049 21.6581C21.628 21.8534 21.3617 22.0609 21.1065 22.2858C19.8691 23.4292 19.2261 25.034 18.5553 26.5434C16.6805 30.2234 16.4354 34.3023 18.5503 37.945C20.7321 41.6317 23.4114 45.0199 26.4239 48.0576C30.9662 52.011 36.6485 53.7141 38.3573 60.2231C39.0125 63.0047 38.9768 65.8907 38.7289 68.7226C38.6793 69.3788 38.5512 72.676 38.5484 72.8255C38.5451 72.9132 38.5412 73.0008 38.54 73.0889C38.5356 73.2424 38.5228 73.3964 38.5161 73.5498C38.5127 73.6252 38.5044 73.701 38.4966 73.7758C38.4893 73.8495 38.4849 73.9237 38.4765 73.9968C38.4732 74.0169 38.4687 74.0364 38.4643 74.0559C38.4531 74.0604 38.442 74.066 38.4308 74.0693C38.398 74.0788 38.3629 74.085 38.33 74.0944C38.2604 74.1145 38.1941 74.1396 38.1322 74.1776C38.018 74.2485 37.945 74.3573 37.9322 74.4929C37.9233 74.5866 37.95 74.6893 38.0102 74.7629C37.6247 75.1055 37.0402 75.4286 36.2034 75.678C33.9642 76.6601 31.5173 76.9553 29.1087 77.2248C27.113 77.4525 25.1096 77.6433 23.1011 77.6433C22.5946 77.6433 22.0882 77.6316 21.5812 77.6048Z" fill="#A3453A"/>
<path d="M38.5406 73.0481C38.5406 73.0548 38.54 73.062 38.5395 73.0693C38.5395 73.062 38.5406 73.0548 38.5406 73.0481Z" fill="#A3453A"/>
<path d="M28.4708 1.60522C28.468 1.60634 28.4647 1.60746 28.4619 1.60913C28.4524 1.61248 28.4418 1.61638 28.4329 1.61973C28.4452 1.61471 28.458 1.60969 28.4708 1.60522Z" fill="#A3453A"/>
<path d="M54.8816 37.3032C54.8788 37.9667 54.8593 38.6296 54.832 39.2914C54.7367 42.6394 54.3568 46.0192 53.3299 49.2177C52.8636 50.5066 52.4903 51.8386 51.858 53.0595C51.5488 53.6459 51.2006 54.2162 50.8456 54.7759C50.518 55.2937 50.1375 55.763 49.7419 56.2295C48.9007 57.2501 48.0917 58.3013 47.139 59.2232C44.6692 61.6438 41.4511 63.1716 38.0949 63.8986C36.3627 64.3556 34.6423 65.0587 32.831 65.0777C31.3512 65.0297 30.1807 64.4795 28.8998 64.056C27.6713 63.6397 26.3966 63.3853 25.1664 62.9751C23.8253 62.541 22.5668 61.901 21.3611 61.1756C18.698 59.7432 16.7758 58.8805 15.0331 56.23C14.2715 54.9824 13.6302 53.6443 13.2335 52.2331C12.5521 51.1935 12.1916 49.9754 11.7554 48.8192C11.1286 47.1062 10.6071 45.2486 10.5447 43.4267C10.3319 40.6987 10.5514 37.8919 11.0562 35.2191C11.2395 34.2437 11.4584 33.2739 11.7582 32.327C11.9437 31.8148 12.0323 31.1903 12.507 30.8589C12.8786 30.0074 13.3683 29.2217 13.8664 28.4405C14.5796 27.2777 15.3061 26.1153 16.2582 25.1288C17.5753 23.7132 18.976 22.3209 20.7009 21.4108C22.1054 20.6972 23.5518 20.032 25.0466 19.5298C26.8501 18.9473 28.6992 18.5327 30.5723 18.2487C32.2148 17.9646 33.8706 17.7481 35.5415 17.8073C37.116 17.7716 38.6916 17.896 40.2204 18.2883C41.8846 18.6621 43.5515 19.1275 45.0341 19.9935C46.988 21.1865 48.8918 22.5095 50.4016 24.2499C51.1526 25.0948 51.8563 26.1259 52.3789 27.0835C53.2319 28.4751 53.8509 30.0107 54.1551 31.6172C54.4676 33.5027 54.881 35.3843 54.8816 37.3032Z" fill="#0FFF80"/>
<path d="M49.1943 39.1178C49.284 41.2399 49.079 43.3849 48.5909 45.4517C48.4706 45.9578 48.2967 46.4516 48.192 46.9617C48.1502 47.2462 48.0711 47.5258 47.9608 47.7914C47.2777 49.4107 46.4805 50.9982 45.457 52.4278C45.0804 53.1147 44.6692 53.7832 44.219 54.4294C42.4629 56.6363 40.5229 57.8845 38.3339 58.5256C37.1154 59.15 35.8624 59.5535 34.3554 59.385C33.479 59.2901 32.5937 59.2895 31.7279 59.1177C30.8376 58.9659 29.9601 58.7449 29.0703 58.5932C28.4474 58.4687 27.8234 58.3404 27.2122 58.168C26.6261 57.9888 26.0745 57.7199 25.5129 57.4777C24.9887 57.2517 24.451 57.0497 23.9502 56.7746C23.2365 56.3478 22.4615 55.6771 22.0392 54.888C19.6512 52.7738 17.7085 50.0837 16.7697 47.0409C16.0371 43.9395 15.2938 40.5385 16.0822 37.3869C16.548 35.7849 17.3235 34.3196 18.3035 32.9832C18.4077 32.6852 18.5247 32.3917 18.6606 32.106C19.1225 31.2283 19.7582 30.4605 20.3577 29.6759C21.2018 28.4773 22.1812 27.3524 23.3613 26.4881C23.4526 26.4139 23.5451 26.3413 23.6393 26.2705C26.6088 24.4363 30.0932 23.4498 33.5709 23.2969C35.8858 23.3036 38.2587 23.6518 40.4555 24.4436C41.8428 24.8827 43.1655 25.5356 44.1923 26.4206C44.4207 26.6315 44.6352 26.8547 44.8402 27.0874C46.5529 28.7982 47.7156 31.0709 48.5224 33.3314C48.9308 34.7169 49.04 36.1644 49.0405 37.6107C49.1052 38.1118 49.157 38.614 49.1943 39.1178Z" fill="#D4FFBE"/>
<path d="M16.5602 58.3962C15.5646 58.0637 14.9295 57.0632 14.2202 56.3456C13.0257 54.9154 12.1209 53.3106 11.3832 51.6266C11.3281 51.4586 11.2585 51.2962 11.1888 51.1339C11.1147 50.9587 11.0406 50.7846 10.9715 50.6071C10.8913 50.3979 10.8099 50.1881 10.7386 49.9755C10.7024 49.8666 10.6618 49.759 10.6228 49.6507C10.5893 49.5558 10.5603 49.4599 10.5319 49.3633C10.4718 49.153 10.4133 48.9426 10.3458 48.735C10.3425 48.725 10.3392 48.7149 10.3358 48.7055C10.2874 48.5648 10.2339 48.4265 10.1843 48.287C10.1202 48.1023 10.0784 47.9109 10.0322 47.7217C10.0366 47.7373 10.0405 47.7541 10.0444 47.7697C10.0099 47.6257 9.97702 47.4812 9.93301 47.3395C9.92019 47.2993 9.90682 47.2591 9.89456 47.2189C9.85612 47.0744 9.81824 46.9299 9.77812 46.7854C9.77589 46.7753 9.77255 46.7653 9.76976 46.7558C9.74859 46.6643 9.72965 46.5733 9.71182 46.4807C9.66781 46.2525 9.62491 46.0248 9.57755 45.7977C9.57532 45.7871 9.57309 45.7771 9.57086 45.7665C9.54524 45.637 9.52184 45.507 9.49565 45.377C9.48005 45.3011 9.46334 45.2252 9.44829 45.1488C9.42601 45.0003 9.40484 44.8519 9.38478 44.7035C9.38589 44.6756 9.38366 44.6477 9.37921 44.6198C9.37475 44.5952 9.36974 44.5701 9.36416 44.545C8.90452 40.9442 9.15914 37.2508 9.91462 33.6913C10.9871 29.5153 13.2658 25.1874 16.6861 22.3891C18.0612 21.3037 19.5086 20.2915 21.0781 19.4953C21.9489 18.9043 22.9412 19.1616 22.9161 20.3116C22.9016 20.9578 22.442 21.4477 21.8302 21.6324C21.0959 21.9929 20.3889 22.4147 19.7075 22.865C18.4835 23.7344 17.2154 24.5909 16.2098 25.7069C13.0452 29.3964 11.3186 34.0451 11.1882 38.8227C10.7771 42.8615 11.6055 46.9171 13.1639 50.6317C13.8798 52.2917 14.8102 53.8692 15.8955 55.32C16.3752 56.0331 17.1346 56.6106 17.4054 57.4331C17.5107 57.8795 17.182 58.4107 16.6995 58.4107C16.6544 58.4107 16.6081 58.4063 16.5602 58.3962Z" fill="#004448"/>
<path d="M10.3453 48.7339L10.3458 48.7344C10.3458 48.7356 10.3464 48.7372 10.3464 48.7372C10.3458 48.7361 10.3458 48.735 10.3453 48.7339Z" fill="#004448"/>
<path d="M49.0388 58.231C48.5775 57.9542 48.3926 57.4068 48.4728 56.899C48.6455 56.7322 48.8165 56.562 48.9742 56.3818C49.0762 56.2651 49.1776 56.1468 49.2756 56.028C49.4233 55.8494 49.562 55.6647 49.6996 55.4795C49.6957 55.4851 49.6913 55.4912 49.6874 55.4968C49.9052 55.2021 50.1119 54.8997 50.3186 54.5973C50.503 54.3278 50.6869 54.0577 50.8663 53.7843C51.0763 53.4651 51.2891 53.147 51.4841 52.8184C51.6791 52.4886 51.8624 52.1527 52.0407 51.814C52.1366 51.6321 52.2307 51.4479 52.3115 51.2588C52.3817 51.0964 52.4452 50.9312 52.5126 50.7677C52.6859 50.3515 52.8096 49.9196 52.9489 49.4921C52.9483 49.4949 52.9472 49.4977 52.9461 49.5005C53.0815 49.0775 53.1773 48.644 53.2898 48.2149C53.2854 48.2305 53.2809 48.2461 53.2765 48.2617C53.335 48.0458 53.3918 47.8299 53.4458 47.6122C53.4419 47.6279 53.438 47.644 53.4341 47.6591C53.491 47.4348 53.5439 47.2094 53.6074 46.9873C53.6915 46.7066 53.7902 46.4298 53.8637 46.1464C53.9083 45.9728 53.9428 45.7965 53.984 45.6224C54.0186 45.474 54.0448 45.3256 54.0665 45.1749C54.0821 45.0633 54.096 44.9517 54.1038 44.8384C54.2821 43.8971 54.4398 42.9513 54.6248 42.011C54.8108 40.4581 54.8053 38.8901 54.734 37.3322C54.7011 36.286 54.6448 35.2419 54.4559 34.2119C54.3172 33.1372 54.0191 32.0954 53.6982 31.0625C53.2971 29.6167 52.789 28.1944 51.9828 26.916C51.4045 26.0132 50.8267 25.0852 50.0205 24.3581C49.1948 23.6779 48.2806 23.1093 47.4081 22.4877C45.8052 21.4532 44.0168 20.6988 42.2166 20.0526C40.6472 19.5699 39.0164 19.3038 37.394 19.0365C36.7254 18.9383 36.0446 18.8847 35.3666 18.8909C34.5219 18.9388 33.6751 18.9606 32.8293 18.964C30.7846 19.061 28.7533 19.402 26.7732 19.922C25.6957 20.1681 24.6271 20.4661 23.6203 20.927C22.8687 21.2311 22.1121 21.4839 21.4207 21.8912C20.7778 22.1585 20.1588 22.6066 19.5883 22.9665C18.8166 23.4497 17.9469 23.7812 17.2694 24.4022C17.0182 24.6293 16.7925 24.8821 16.5351 25.1036C16.2137 25.3932 15.8008 25.574 15.4688 25.8441C15.2816 26.0076 15.0866 26.1722 14.9233 26.3591C14.7339 26.5857 14.5885 26.8669 14.33 27.0265C14.1767 27.1035 13.9918 27.0042 13.9366 26.8558C13.9801 26.9718 13.9221 26.8172 13.9188 26.8061C13.9037 26.7548 13.8937 26.6945 13.9015 26.6404C14.009 26.1694 14.2492 25.7308 14.4949 25.314C14.8743 24.6109 15.4682 24.121 15.881 23.4564C16.4382 22.6668 17.1524 21.9905 18.0032 21.509C18.6266 21.1335 19.1515 20.624 19.7755 20.2507C20.2262 19.9868 20.6853 19.7401 21.1405 19.4829C21.8074 19.1386 22.5166 18.8853 23.1991 18.5722C24.0911 18.1855 25.026 17.8999 25.9726 17.6789C27.7097 17.2096 29.4776 16.8754 31.2665 16.6879C32.0081 16.612 32.7508 16.6098 33.4957 16.598C34.5141 16.5685 35.5359 16.4753 36.5516 16.5897C38.2921 16.7945 40.0237 17.1159 41.7213 17.5332C42.8 17.8245 43.839 18.233 44.8514 18.6911C46.3495 19.3205 47.7869 20.0872 49.0851 21.052C50.0835 21.7439 51.1326 22.3979 51.9059 23.342C53.4899 25.2761 54.7473 27.4935 55.397 29.903C56.2098 32.3381 56.699 34.8742 56.7319 37.4466C56.8088 39.351 56.8305 41.2773 56.5163 43.1678C56.4032 43.81 56.2538 44.4456 56.1402 45.0878C56.0315 45.7039 55.9402 46.3238 55.7936 46.9331C55.4588 48.1898 55.0192 49.4179 54.6209 50.6572C53.8587 52.9121 52.6397 54.9896 51.1967 56.8962C50.9047 57.2779 50.5827 57.6361 50.2646 57.9977C50.0774 58.2304 49.7977 58.3599 49.5124 58.3599C49.3508 58.3599 49.1882 58.318 49.0388 58.231Z" fill="#004448"/>
<path d="M29.8258 65.4326C28.6134 65.2484 27.4551 64.8344 26.303 64.4416C25.2438 64.061 24.1886 63.6693 23.164 63.2101C20.4251 61.9373 17.8829 60.2354 15.8493 58.0285C14.8721 57.0263 13.8809 56.0152 13.1343 54.8306C12.1265 53.3262 11.3899 51.6611 10.8344 49.947C10.5397 49.1596 10.2623 48.3656 9.9965 47.5671C9.977 47.4912 9.95695 47.4148 9.93299 47.3389C9.92017 47.2987 9.90792 47.2585 9.89399 47.2184C9.8561 47.0738 9.81822 46.9288 9.77866 46.7848C9.77532 46.7747 9.77309 46.7653 9.7703 46.7547C9.74913 46.6637 9.72963 46.5727 9.71236 46.4807C9.66612 46.2413 9.62099 46.0041 9.5714 45.7659C9.54578 45.6364 9.52238 45.5064 9.49619 45.377C9.46833 45.2414 9.43713 45.1069 9.41707 44.9691C9.40482 44.8842 9.39479 44.7994 9.3842 44.714C9.38699 44.6828 9.38476 44.651 9.37975 44.6203C9.36637 44.55 9.35022 44.4786 9.33295 44.4088C9.37585 44.3234 9.4349 44.2431 9.51458 44.1672C9.8756 43.8452 10.4027 43.9306 10.7782 44.1672C11.3682 44.5026 11.4395 45.1939 11.5933 45.7809C11.9292 46.9516 12.3008 47.9951 12.7098 49.1211C13.3889 51.1835 14.2369 53.2286 15.6326 54.9282C16.4928 55.9466 17.4583 56.869 18.3943 57.8187C20.6864 59.8922 23.5133 61.3218 26.4489 62.3296C27.5331 62.7151 28.629 63.1057 29.7745 63.286C31.8816 63.5276 34.0261 63.6063 36.1421 63.3808C38.1801 63.123 40.1351 62.4573 41.9654 61.54C42.0194 61.5177 42.074 61.4965 42.1286 61.4753C42.2088 61.444 42.2902 61.4133 42.3671 61.3748C42.4662 61.3268 42.5626 61.271 42.6573 61.2147C42.6674 61.2091 42.6768 61.2035 42.6869 61.1974C42.6746 61.2052 42.6612 61.2124 42.649 61.2197C42.6674 61.2091 42.6846 61.1979 42.7036 61.1873C42.7047 61.1862 42.7064 61.1851 42.7086 61.184C42.7086 61.184 42.7086 61.184 42.7091 61.1834C42.7091 61.1834 42.7097 61.1834 42.7097 61.1829C42.7125 61.1817 42.7153 61.1795 42.7181 61.1778C42.7175 61.1784 42.7175 61.1784 42.7169 61.179C42.7175 61.179 42.7175 61.1784 42.7181 61.1778C42.7186 61.1778 42.7192 61.1778 42.7192 61.1778C42.7197 61.1773 42.7203 61.1773 42.7208 61.1767C42.7214 61.1767 42.7208 61.1767 42.7214 61.1767C42.7214 61.1767 42.722 61.1762 42.7225 61.1762C42.7225 61.1762 42.722 61.1762 42.7214 61.1767C42.7242 61.1745 42.7264 61.1734 42.7292 61.1717C42.7298 61.1717 42.7309 61.1711 42.7314 61.1706C42.7325 61.17 42.7342 61.1689 42.7353 61.1684L42.7342 61.1695C42.7353 61.1689 42.7353 61.1678 42.7364 61.1672H42.737C42.7376 61.1667 42.7381 61.1667 42.7381 61.1661C42.7381 61.1661 42.7392 61.1656 42.7398 61.1656C42.7403 61.1656 42.7403 61.165 42.7409 61.165C42.7426 61.1639 42.7437 61.1633 42.7448 61.1622C42.7465 61.1611 42.7481 61.1605 42.7504 61.1594C42.7442 61.1633 42.7392 61.1656 42.7342 61.1695C42.8479 61.1014 42.9632 61.0361 43.0774 60.9686C43.2529 60.8654 43.4273 60.7616 43.6022 60.6595C43.7727 60.5601 43.9421 60.4597 44.1026 60.3453C44.0992 60.3475 44.0959 60.3498 44.0931 60.352C44.0975 60.3486 44.1026 60.3453 44.107 60.342C44.1092 60.3403 44.1115 60.3386 44.1137 60.3369C44.1126 60.338 44.1115 60.3386 44.1098 60.3397C44.1148 60.3358 44.1193 60.333 44.1237 60.3297C44.1248 60.3286 44.1265 60.3274 44.1276 60.3263C44.1282 60.3263 44.1287 60.3269 44.1293 60.3263C44.1287 60.3263 44.1287 60.3263 44.1282 60.3263C44.1354 60.3208 44.1421 60.3157 44.1488 60.3107C44.1505 60.3096 44.1527 60.309 44.1544 60.3079C44.1555 60.3068 44.1566 60.3057 44.1583 60.3046C44.1644 60.3007 44.1689 60.2968 44.1744 60.2929C44.1683 60.2973 44.1627 60.3018 44.1566 60.3062C44.2106 60.2672 44.2641 60.227 44.3182 60.1879C44.7299 59.9212 45.1333 59.6445 45.5277 59.3593C46.2737 58.7874 47.0264 58.2182 47.7218 57.5882C47.8538 57.4733 47.9853 57.3572 48.114 57.2389C48.1006 57.2512 48.0872 57.2635 48.0744 57.2757C48.1775 57.1809 48.28 57.0849 48.3809 56.9873C48.5848 56.792 48.7887 56.5933 48.9742 56.3818C49.0767 56.2652 49.1776 56.148 49.2756 56.0292C49.4216 55.8523 49.5587 55.6693 49.6957 55.4862C49.6952 55.4868 49.6946 55.4868 49.694 55.4868C49.9102 55.1961 50.1141 54.8959 50.3186 54.5973C50.503 54.3278 50.6869 54.0572 50.8668 53.7843C51.0758 53.4646 51.2891 53.1471 51.4841 52.8184C51.6786 52.4881 51.8624 52.1527 52.0407 51.8146C52.1366 51.6321 52.2307 51.4474 52.3121 51.2588C52.3817 51.0959 52.4452 50.9313 52.5126 50.7683C52.6848 50.3543 52.8074 49.9252 52.9461 49.5006C53.082 49.0776 53.1773 48.644 53.2898 48.2149C53.2865 48.2261 53.2832 48.2373 53.2804 48.2484C53.3355 48.0442 53.389 47.8388 53.4403 47.6329C53.4386 47.6419 53.4364 47.6508 53.4341 47.6592C53.4904 47.4354 53.5445 47.2094 53.608 46.9868C53.6921 46.7061 53.7907 46.4305 53.8637 46.1464C53.9083 45.9729 53.9428 45.7966 53.9835 45.6219C54.018 45.474 54.0448 45.3256 54.0665 45.1755C54.0788 45.0862 54.0905 44.9981 54.0983 44.9088C54.1462 44.7927 54.1958 44.6772 54.2465 44.5628C54.452 44.0305 54.5858 43.4775 54.7473 42.9329C54.9017 42.3783 55.0131 41.8091 55.2198 41.2695C55.2866 41.091 55.2761 40.8945 55.3251 40.7121C55.3641 40.5653 55.5128 40.4945 55.6583 40.5229C56.0956 40.6418 56.1541 41.1864 56.1831 41.563C56.3474 42.6617 56.3603 43.7777 56.1803 44.8798C55.9608 45.9629 55.5791 47.0113 55.3958 48.1039C55.0521 49.3951 54.7958 50.7204 54.2754 51.9586C53.9161 52.7827 53.4135 53.5377 52.9728 54.3206C52.4809 55.0984 52.0613 55.9187 51.566 56.6932C51.1031 57.3678 50.6557 58.0603 50.0829 58.6523C48.7374 60.0261 47.1574 61.1745 45.555 62.2436C44.9695 62.5985 44.3728 62.94 43.7644 63.262C43.6641 63.3088 43.5638 63.3546 43.4641 63.4037C43.41 63.4305 43.3549 63.4567 43.2997 63.4818C43.254 63.498 43.2095 63.5198 43.1671 63.5432C43.1292 63.5616 43.0919 63.5806 43.054 63.5984C42.9977 63.6236 42.9404 63.647 42.8841 63.6732C42.8852 63.6727 42.8863 63.6727 42.8874 63.6721C42.8819 63.6743 42.8768 63.6766 42.8713 63.6788C42.8702 63.6794 42.8696 63.6799 42.869 63.6805C42.8579 63.6855 42.8468 63.6905 42.8351 63.6961C42.8367 63.695 42.839 63.6939 42.8412 63.6927C42.8362 63.695 42.8317 63.6978 42.8267 63.7C42.8167 63.7045 42.8066 63.7089 42.7966 63.7139C42.7994 63.7128 42.8016 63.7112 42.805 63.71C42.7988 63.7128 42.7933 63.7162 42.7866 63.7184C42.7805 63.7218 42.7738 63.7251 42.7676 63.7273C42.7649 63.729 42.7626 63.7301 42.7604 63.7312C42.7587 63.7318 42.7571 63.7324 42.7554 63.7335C42.7548 63.7335 42.7543 63.7335 42.7537 63.7335C42.7532 63.7335 42.7532 63.7346 42.7526 63.7346C42.752 63.7352 42.7515 63.7352 42.7509 63.7357C42.7487 63.7368 42.7459 63.7379 42.7437 63.7391C42.7465 63.7379 42.7493 63.7357 42.752 63.7346H42.7526C42.7548 63.7335 42.7576 63.7324 42.7604 63.7312C42.7621 63.7301 42.7643 63.7296 42.7665 63.7285C42.6523 63.782 42.5414 63.8395 42.4311 63.8992C42.3487 63.9433 42.2684 63.9913 42.1854 64.0348C41.1686 64.489 40.1207 64.8707 39.0387 65.1413C38.1395 65.3539 37.2274 65.5135 36.3087 65.6178C35.3108 65.6937 34.3046 65.6887 33.3035 65.6993C32.1418 65.6642 30.9768 65.5866 29.8258 65.4326ZM45.3717 60.5992C45.3673 60.6221 45.384 60.6394 45.4068 60.6394C45.4302 60.6394 45.4536 60.6204 45.4586 60.597C45.4631 60.5741 45.4458 60.5562 45.4235 60.5562C45.4001 60.5562 45.3762 60.5763 45.3717 60.5992Z" fill="#004448"/>
<path d="M42.8635 63.6826C42.854 63.6865 42.8451 63.6915 42.8356 63.696C42.8445 63.6915 42.854 63.6865 42.8635 63.6826Z" fill="#004448"/>
<path d="M42.8708 63.6788L42.8702 63.6799H42.8685L42.8708 63.6788Z" fill="#004448"/>
<path d="M42.7036 61.1868L42.7025 61.1879L42.7036 61.1868Z" fill="#004448"/>
<path d="M42.7215 61.1761L42.7209 61.1773H42.7203L42.7215 61.1761Z" fill="#004448"/>
<path d="M44.1099 60.3397C44.1087 60.3403 44.1076 60.3408 44.1065 60.342C44.1048 60.3431 44.1032 60.3447 44.1021 60.3453C44.1043 60.3436 44.1076 60.3414 44.1099 60.3397Z" fill="#004448"/>
<path d="M42.6529 61.2163C42.6434 61.2213 42.6345 61.228 42.6251 61.233C42.6345 61.2275 42.6434 61.2213 42.6529 61.2163Z" fill="#004448"/>
<path d="M42.7354 61.1677C42.7337 61.1688 42.732 61.17 42.7309 61.1705L42.7298 61.1711C42.7315 61.17 42.7337 61.1688 42.7354 61.1677Z" fill="#004448"/>
<path d="M42.7354 61.1677L42.737 61.1666L42.7354 61.1677Z" fill="#004448"/>
<path d="M42.7376 61.1661H42.7381L42.737 61.1673L42.7376 61.1661Z" fill="#004448"/>
<path d="M42.7392 61.1655L42.7387 61.1661L42.7376 61.1666H42.737L42.7392 61.1655Z" fill="#004448"/>
<path d="M42.7387 61.1662L42.7393 61.165L42.7387 61.1662H42.7382H42.7387Z" fill="#004448"/>
<path d="M42.7404 61.165L42.7393 61.1662L42.7404 61.165Z" fill="#004448"/>
<path d="M42.7409 61.1644L42.7398 61.165L42.7387 61.1655C42.7387 61.1655 42.7398 61.165 42.7409 61.1644Z" fill="#004448"/>
<path d="M44.1276 60.3269C44.1265 60.3275 44.126 60.3286 44.1249 60.3291C44.121 60.3319 44.1176 60.3342 44.1137 60.3369C44.1187 60.3336 44.1232 60.3303 44.1276 60.3269Z" fill="#004448"/>
<path d="M44.1243 60.3285C44.1255 60.328 44.1271 60.3269 44.1282 60.3263H44.1277C44.1266 60.3274 44.1249 60.3285 44.1238 60.3296L44.1243 60.3285Z" fill="#004448"/>
<path d="M44.1555 60.3063L44.1538 60.3074C44.1521 60.3085 44.1505 60.3096 44.1488 60.3107C44.151 60.3096 44.1533 60.3079 44.1555 60.3063Z" fill="#004448"/>
<path d="M44.1572 60.3057L44.1583 60.3046L44.1572 60.3057Z" fill="#004448"/>
<path d="M44.1583 60.3046C44.1633 60.3007 44.1689 60.2968 44.1744 60.2928C44.1694 60.2968 44.1633 60.3007 44.1577 60.3051L44.1583 60.3046Z" fill="#004448"/>
<path d="M42.7521 63.7351H42.7526C42.7526 63.7351 42.7504 63.7357 42.7493 63.7362L42.7521 63.7351Z" fill="#004448"/>
<path d="M42.7537 63.734H42.7543L42.7521 63.7351L42.7537 63.734Z" fill="#004448"/>
<path d="M42.7593 63.7313C42.761 63.7307 42.7627 63.7296 42.7643 63.7285L42.7666 63.7279C42.7627 63.7296 42.7588 63.7318 42.7554 63.7335C42.7565 63.7324 42.7577 63.7318 42.7593 63.7313Z" fill="#004448"/>
<path d="M44.1237 60.3297L44.1226 60.3308L44.1237 60.3297Z" fill="#004448"/>
<path d="M45.5662 59.2863L45.5645 59.2868L45.564 59.2874L45.5662 59.2863Z" fill="#004448"/>
<path d="M42.708 61.184L42.7058 61.1856C42.7047 61.1862 42.7036 61.1867 42.7025 61.1873C42.7041 61.1862 42.7064 61.1851 42.708 61.184Z" fill="#004448"/>
<path d="M42.7164 61.1783C42.7153 61.1789 42.7142 61.18 42.7131 61.1806C42.7114 61.1817 42.7092 61.1828 42.7075 61.1839C42.7103 61.1823 42.7136 61.18 42.7164 61.1783Z" fill="#004448"/>
<path d="M42.718 61.1779L42.7158 61.179L42.718 61.1779Z" fill="#004448"/>
<path d="M42.7197 61.1767L42.7214 61.1755V61.1761L42.7197 61.1767Z" fill="#004448"/>
<path d="M42.7381 61.1661L42.7365 61.1673H42.7359C42.737 61.1673 42.7381 61.1661 42.7381 61.1661Z" fill="#004448"/>
<path d="M42.7376 61.1661L42.737 61.1673H42.7365L42.7376 61.1661Z" fill="#004448"/>
<path d="M42.7381 61.1662C42.7387 61.1662 42.7387 61.1662 42.7387 61.1656C42.7392 61.1656 42.7398 61.165 42.7403 61.1645C42.7414 61.1634 42.7437 61.1628 42.7448 61.1617C42.7453 61.1617 42.7459 61.1611 42.7465 61.1611C42.7437 61.1628 42.7403 61.1645 42.7375 61.1667L42.7381 61.1662Z" fill="#004448"/>
<path d="M45.3773 59.4146C45.3762 59.4151 45.3751 59.4162 45.374 59.4168C45.3751 59.4157 45.3762 59.4151 45.3773 59.4146Z" fill="#004448"/>
<path d="M46.1411 53.4457C45.2937 52.9719 45.6096 51.751 46.0175 51.068C46.452 49.966 46.8938 48.8667 47.4376 47.8121C48.2449 45.7129 48.6906 43.4904 49.1558 41.2952C49.8918 36.7269 48.5619 31.1167 45.1717 27.8502C43.9081 26.7973 42.5431 25.7281 40.9296 25.3007C38.759 24.7778 36.5315 24.3214 34.289 24.4369C31.8599 24.5636 29.3862 24.7566 27.0573 25.4988C25.8288 26.0116 24.631 26.631 23.5189 27.3642C21.4369 28.9439 19.985 31.2155 18.5537 33.3688C17.7859 34.7521 17.08 36.1711 16.3646 37.5823C15.8498 38.6263 15.31 37.8144 15.4938 36.9908C15.9078 34.1361 17.2288 31.4532 18.9453 29.157C20.0713 27.608 21.2664 26.054 22.9005 25.0105C24.456 24.0787 25.8244 23.2858 27.503 22.8438C28.1705 22.6887 28.8452 22.5548 29.5227 22.4409C29.6614 22.4276 29.7996 22.4142 29.9378 22.3974C30.013 22.3885 30.0876 22.379 30.1623 22.3662C30.2102 22.3651 30.2581 22.3639 30.3066 22.3628C30.4197 22.3589 30.5339 22.3561 30.6464 22.3472C30.7361 22.3405 30.8264 22.3293 30.9155 22.3193C31.1022 22.2987 31.2894 22.2802 31.476 22.2557C31.6443 22.2345 31.8131 22.2127 31.9802 22.1893C32.1318 22.1681 32.2811 22.1374 32.4321 22.1134C32.456 22.1106 32.48 22.1073 32.504 22.1039C32.6388 22.0983 32.7736 22.0922 32.9084 22.0822C33.0823 22.0699 33.2539 22.0442 33.426 22.0236C33.4489 22.0208 33.4712 22.0185 33.4934 22.0163C34.4506 21.9711 35.4083 21.9666 36.3622 22.004C38.384 22.2574 40.4332 22.5442 42.3609 23.2283C43.8457 23.8867 45.2074 24.871 46.413 25.9524C50.8139 30.1966 52.2714 37.8395 50.6863 43.6304C50.1637 45.9422 49.6144 48.2763 48.4889 50.3789C47.9563 51.3286 47.7218 53.4713 46.4013 53.4713C46.3189 53.4713 46.2325 53.463 46.1411 53.4457Z" fill="#004448"/>
<path d="M33.0767 60.7181C31.8683 60.7041 30.6688 60.4949 29.5171 60.1305C27.8457 59.6908 26.2545 58.9643 24.7402 58.1513C24.7664 58.1647 24.7931 58.1781 24.8199 58.1915C24.8305 58.197 24.841 58.2021 24.8968 58.23C23.7897 57.6798 22.7456 57.0124 21.7612 56.2658C21.2865 55.912 20.7499 55.5532 20.5115 54.9908C20.351 54.6119 20.3466 53.9763 20.8285 53.8296C21.2971 53.6912 21.8057 53.8385 22.223 54.0656C22.6192 54.3039 22.9378 54.6442 23.3217 54.902C24.1095 55.5175 25.1157 56.1363 25.9464 56.5526C27.2017 57.2216 28.4948 57.8315 29.8748 58.1948C30.9752 58.5558 32.1235 58.7428 33.2823 58.7199C34.6724 58.6786 36.1081 58.7093 37.4258 58.2037C39.5296 57.2881 41.5459 56.0839 43.1978 54.4774C43.8391 53.8513 44.5021 53.1778 45.0453 52.4943C45.3562 52.0708 45.6219 51.6171 45.9072 51.1763C46.286 50.5775 46.5529 49.918 46.8159 49.2623C47.7218 47.2111 48.3636 45.0701 48.7051 42.8565C49.2222 40.3232 49.2166 37.7335 48.8801 35.1762C48.6645 34.2672 48.4444 33.3465 48.021 32.5078C47.2766 30.8165 46.2387 29.277 45.0453 27.8714C44.1148 26.8157 42.9972 25.9564 41.9687 25.0044C41.6851 24.7237 41.2244 24.5574 40.9937 24.255H40.9976C40.6801 23.3795 42.6306 24.0229 42.9538 24.1975C45.3913 25.183 47.3062 27.0891 48.7252 29.267C49.123 29.7909 49.4539 30.359 49.7359 30.9532C50.2741 32.004 50.7955 33.0742 51.0435 34.2365C51.3778 35.3174 51.4062 36.4629 51.4897 37.5845C51.6691 39.8913 51.346 42.1875 50.9042 44.4468C50.5432 46.2257 50.0228 47.9722 49.303 49.639C48.9737 50.4113 48.7525 51.0368 48.3759 51.7493C47.9781 52.4346 47.5541 53.1064 47.1 53.7559C46.0626 54.9885 44.9305 56.1559 43.6574 57.1463C42.1582 58.2902 40.431 59.2924 38.7072 60.0167C36.9249 60.7242 34.9666 60.7125 33.0767 60.7181Z" fill="#004448"/>
<path d="M33.5102 60.9043C26.9492 60.2799 21.0747 57.7874 17.3981 52.0846C16.339 50.4854 15.6743 48.6747 15.2086 46.8221C14.5055 44.1705 14.067 41.3342 14.6152 38.6167C14.8492 36.5945 15.4637 34.8061 16.4075 33.0295C17.6411 30.8521 18.7871 28.585 20.4602 26.704C21.9929 25.2515 23.7652 24.083 25.7453 23.3465C26.7983 22.8967 27.9482 22.861 29.0302 22.5179C29.0664 22.5067 29.1032 22.4955 29.1394 22.4855C29.1449 22.4844 29.15 22.4833 29.1555 22.4827C29.1572 22.4821 29.1589 22.4827 29.1605 22.4827L29.1611 22.4816C29.1639 22.4816 29.1667 22.4816 29.1689 22.4816H29.1672C29.1683 22.481 29.1706 22.4805 29.1706 22.4805C29.175 22.4799 29.1789 22.4799 29.1834 22.4794C29.1812 22.4799 29.1789 22.4799 29.1767 22.4805C29.2792 22.4676 29.3823 22.4542 29.4854 22.4442C29.6363 22.4297 29.7868 22.4152 29.9372 22.3973C30.0124 22.389 30.0876 22.3789 30.1623 22.3661C30.2102 22.3644 30.2581 22.3638 30.3066 22.3622C30.4202 22.3583 30.5333 22.356 30.6464 22.3471C30.7361 22.3399 30.8258 22.3292 30.915 22.3192C31.1022 22.2986 31.2899 22.2796 31.476 22.2556C31.6443 22.2338 31.8125 22.2132 31.9802 22.1892C32.0137 22.1847 32.0465 22.1797 32.0794 22.1747C32.8767 22.5971 33.0784 24.1054 32.1 24.4491C31.4309 24.6779 30.7244 24.6857 30.0325 24.7895C29.2213 25.054 28.3271 25.2197 27.5231 25.3452C25.2912 26.0014 23.2181 27.2157 21.6269 28.9003C20.4184 30.3544 19.4657 32.116 18.5542 33.7487C15.7362 38.4169 15.9462 43.2582 17.6773 48.2651C19.0423 51.8899 21.9918 54.7998 25.45 56.4604C27.1192 57.2483 28.8502 57.7025 30.6308 58.092C32.3368 58.4151 34.0762 58.6874 35.7933 58.2745C37.8531 57.7444 39.8092 56.8376 41.6483 55.7808C43.2479 54.7189 43.4457 57.813 40.3162 59.2041C38.3333 60.1075 36.248 60.9211 34.0484 60.9216C33.8695 60.9216 33.6901 60.9155 33.5102 60.9043Z" fill="#004448"/>
<path d="M29.1416 22.485C29.1444 22.4845 29.1483 22.4845 29.1511 22.4839C29.1516 22.4839 29.1516 22.4839 29.1522 22.4839C29.1528 22.4834 29.1533 22.4828 29.1544 22.4828C29.1567 22.4822 29.1594 22.4822 29.1622 22.4817C29.1617 22.4817 29.1617 22.4817 29.1617 22.4822C29.1611 22.4822 29.16 22.4822 29.1594 22.4822C29.1583 22.4828 29.1567 22.4828 29.1555 22.4828C29.1511 22.4834 29.1455 22.4845 29.1411 22.485H29.1416Z" fill="#004448"/>
<path d="M29.1611 22.4822C29.1628 22.4816 29.1639 22.4811 29.1656 22.4811H29.1667C29.165 22.4811 29.1628 22.4822 29.1611 22.4822Z" fill="#004448"/>
<path d="M31.7747 60.2638C30.5105 60.2526 29.2982 59.9156 28.1204 59.482C27.2211 59.1868 26.3018 58.943 25.4266 58.5775C23.9618 57.9614 22.6732 57.0162 21.4319 56.0386C17.8723 53.3814 16.3518 51.1963 15.1378 46.9147C14.3355 43.81 13.9606 40.4235 14.8988 37.3099C15.1824 36.5348 15.5122 35.7787 15.8225 35.0143C16.0265 34.4501 16.2671 33.901 16.5206 33.3581C16.695 32.8241 17.2979 32.424 17.7647 32.9128C18.3492 33.5724 17.7447 34.4005 17.684 35.1365C17.4544 36.5164 16.7429 37.7618 16.4828 39.1317C15.9813 42.3994 16.6471 45.7664 17.9246 48.7857C18.162 49.3091 18.4177 49.8247 18.7202 50.3129C19.2529 51.1472 19.961 51.8497 20.6468 52.5567C22.1812 54.085 23.754 55.5799 25.7157 56.5118C27.0022 57.0832 28.395 57.3711 29.6999 57.895C30.5261 58.1852 31.4153 58.2483 32.275 58.342C32.7803 58.4274 33.4466 58.4659 33.923 58.4436C34.9025 58.356 35.8814 58.188 36.863 58.3448C37.2904 58.4045 37.7194 58.2784 38.1428 58.3359C38.6643 58.4547 38.4737 59.0434 38.0325 59.1589C37.2943 59.5936 36.4391 59.6181 35.6162 59.7688C35.049 59.8732 34.493 60.03 33.9314 60.1594C33.2204 60.2878 32.4939 60.314 31.7747 60.2638Z" fill="#004448"/>
<path d="M3.54261 76.5869C2.13304 75.6791 1.55974 74.1903 3.01444 72.9923C3.79499 72.3121 4.80175 72.0164 5.76895 71.7111C6.72222 71.3596 7.70892 71.1264 8.71234 70.9729C9.47339 70.9338 10.8267 70.3792 11.3153 71.1665C11.5722 71.6191 11.1459 72.1268 10.6986 72.2206C10.1331 72.3668 9.82105 75.7148 11.3097 75.784C14.6955 75.9073 18.0857 75.9659 21.4692 75.7533C24.6661 75.5323 27.8686 75.3616 31.0588 75.0603C33.9314 74.7868 36.7907 74.3494 39.6304 73.8377C40.6049 73.5838 43.0663 73.2964 43.5393 72.4282C43.6268 72.1693 43.4725 71.8897 43.3984 71.6425C43.1883 71.1275 42.8128 70.7129 42.3816 70.3719C41.5982 69.7559 40.6673 69.3419 39.685 69.18C39.4293 69.1611 39.2254 68.9323 39.4661 68.7336C39.709 68.5958 40.0132 68.641 40.2834 68.6154C42.2557 68.5813 44.545 69.2582 45.4704 71.1543C46.0153 72.162 45.7818 73.1307 44.9729 73.9091C44.3232 74.5463 43.4251 74.8465 42.5777 75.1194C40.4934 75.7271 34.405 76.8525 25.4495 77.4496C22.0843 77.6739 4.35771 77.0624 3.54261 76.5869Z" fill="#004448"/>
<path d="M23.5044 20.0343C22.8325 20.0449 22.5278 19.2598 22.7406 18.6973C22.8559 18.3341 23.1317 18.0238 23.3663 17.7482C24.3546 16.5278 25.2477 15.2316 26.1414 13.9409C27.3665 12.0075 28.5494 10.0327 29.4915 7.94355C29.9706 6.76449 30.5439 5.55363 30.5584 4.25851C30.6208 3.14475 29.7818 2.1582 28.6485 2.14369C28.4212 2.16434 28.1187 2.3323 27.9554 2.12082C27.8295 1.8301 28.1226 1.55947 28.3599 1.43782C28.985 1.13148 29.7467 1.19509 30.3851 1.43057C34.5448 3.25969 30.218 10.8117 28.7015 13.4438C27.7315 15.1217 26.6005 16.698 25.4639 18.2654C25.2288 18.5785 24.9825 18.8831 24.7301 19.1828C24.4265 19.5862 24.0588 20.0449 23.5044 20.0343Z" fill="#004448"/>
<path d="M0.642654 91.2054C0.437068 90.8667 0.467154 90.403 0.418125 90.0353C0.381354 89.6458 0.362411 89.2552 0.325082 88.8741C0.243182 88.046 0.171868 87.2196 0.179111 86.3871C0.127297 84.0123 0.133982 81.9923 0.340682 79.7045C0.54404 77.6689 0.711182 74.9743 2.28121 73.499C2.59043 73.2217 2.4595 77.6259 2.30294 78.9624C2.1592 81.0872 2.02883 83.2166 2.12187 85.3464C2.15028 86.6979 2.09178 88.2157 2.07395 89.5303C2.03384 90.0666 2.13524 90.6279 1.93801 91.1407C1.67448 91.7606 0.980283 91.8098 0.642654 91.2054Z" fill="#004448"/>
<path d="M1.28614 78.8552C1.07721 78.7989 1.12067 78.5355 1.10395 78.3692C1.10228 77.9233 1.07219 77.468 1.09169 77.0278C1.13682 75.5915 1.40592 73.9336 2.65281 73.0425C3.69689 72.3037 6.91885 73.5882 6.61577 73.6357C5.78339 73.7992 4.92205 73.8589 4.13759 74.2065C3.70079 74.4197 3.20661 74.5207 2.82831 74.8398C2.22047 75.5842 2.06279 76.5652 1.82768 77.4708C1.70009 77.7783 1.69062 78.9054 1.28614 78.8552Z" fill="#004448"/>
<path d="M44.9567 88.2074C44.7232 87.9373 44.7672 87.5679 44.7344 87.2365C44.7004 86.8252 44.6876 86.6394 44.6614 86.275C44.4084 83.3383 44.7182 80.3948 44.7901 77.4564C44.7176 75.7032 45.0341 73.8556 44.2736 72.2112C44.0513 71.5701 43.6674 70.9713 43.1042 70.5813C42.7231 70.2593 42.3214 69.9775 41.8679 69.7666C41.6729 69.6673 41.4155 69.6528 41.2778 69.4675C41.1915 69.3325 41.2773 69.126 41.4216 69.073C41.6723 69.0061 41.9531 69.0713 42.2049 69.1115C42.8936 69.2683 43.5488 69.5462 44.1962 69.823C44.4653 69.9413 44.6987 70.1076 44.921 70.2984C45.8258 71.1633 46.3846 72.3753 46.574 73.6068C46.8788 76.3795 46.4437 87.1812 46.3066 87.7532C46.1528 88.3039 45.3868 88.7241 44.9567 88.2074Z" fill="#004448"/>
<path d="M6.38067 87.093C3.73982 86.1483 4.95105 81.0197 7.86992 81.8712C10.6924 82.6374 9.22712 88.0617 6.38067 87.093ZM6.98852 85.0635C7.35456 84.9804 7.51 84.5413 7.52895 84.202C6.93169 84.0067 6.76343 84.5887 6.92723 85.0624C6.94729 85.0635 6.9679 85.0635 6.98852 85.0635Z" fill="#004448"/>
<path d="M68.833 74.2523C68.809 76.0066 68.8999 77.7593 68.9026 79.5136C68.9294 80.8445 69.0146 82.1736 69.0949 83.5022C69.0982 84.515 69.1539 85.5278 69.223 86.5389C69.3244 87.8808 70.154 143.879 71.1864 144.677C73.196 146.133 75.6129 146.846 77.9974 147.413C83.9984 148.864 90.2267 149.196 96.382 149.076C100.084 148.947 103.794 148.759 107.444 148.088C109.095 147.802 110.835 147.58 112.332 146.786C113.885 145.97 113.903 89.8896 113.773 88.4673C113.782 88.3267 113.791 88.1861 113.798 88.0455C113.875 86.6521 113.927 84.977 113.948 83.6573C113.92 80.6419 114.277 76.1009 112.706 73.4917C112.479 73.0894 111.647 72.2312 111.166 72.4946C110.691 72.8383 111.112 73.4292 111.279 73.8321C111.383 74.1479 111.443 74.4743 111.523 74.7963C111.544 74.9012 111.564 75.0067 111.583 75.1121C111.191 75.2728 110.78 75.5167 110.515 75.5658C109.706 75.7901 74.1827 73.8204 71.6878 73.2361C71.495 73.1854 71.3 73.1424 71.1123 73.0732C70.9847 73.0274 70.8604 73.0001 70.7423 72.9873C70.7451 72.5336 70.7746 72.0816 70.8721 71.6358C70.9557 71.1715 71.1284 70.8111 71.2165 70.3624C71.3535 69.9043 70.9981 69.2325 70.461 69.4551C69.8866 69.7749 69.5339 70.4076 69.2854 70.9963C68.8519 72.0253 68.833 73.1535 68.833 74.2523Z" fill="#0FFF80"/>
<path d="M107.971 75.8342C109.068 75.6813 110.351 75.5078 111.101 74.6077C111.861 73.4683 111.195 72.2373 110.011 71.772C108.251 70.8457 106.252 70.6102 104.326 70.2336C102.546 69.9719 100.79 69.5768 99.0107 69.3084C95.2728 68.7498 91.6297 67.6037 87.8322 67.4988C84.4983 67.4642 81.1582 67.3186 77.8332 67.6411C75.7951 67.8353 73.6629 67.9173 71.7937 68.833C70.7374 69.3709 69.1055 70.8786 70.0827 72.0895C70.6343 74.5129 76.2615 74.3907 78.2527 74.4632C79.9308 74.6044 81.6061 74.75 83.2876 74.8555C87.4088 75.0391 91.6681 75.6088 95.7336 75.5664C98.1728 75.6289 100.607 75.9402 103.052 75.8571C104.691 75.7963 106.337 75.986 107.971 75.8342ZM108.96 73.6111C108.962 73.6167 108.963 73.6217 108.965 73.6273C108.16 73.9286 107.668 73.3868 107.924 73.2758C108.055 73.2189 108.381 73.2741 108.96 73.6111Z" fill="#004448"/>
<path d="M106.459 75.1491C106.784 75.1362 107.132 74.9789 107.347 74.7228C107.513 74.6976 107.676 74.6452 107.822 74.5654C108.351 74.61 108.555 74.6268 109.02 74.6636C110.242 74.8533 111.363 73.5214 109.989 72.7915C108.162 72.0829 106.269 71.5433 104.327 71.2509C103.301 71.1231 101.631 70.6929 101.209 71.993C101.058 72.118 100.94 72.2787 100.885 72.4679C100.865 72.5365 100.855 72.6074 100.854 72.6777C99.7561 73.0147 99.8737 74.3757 101.005 74.5425C102.829 74.6787 104.639 75.0291 106.459 75.1491Z" fill="#004448"/>
<path d="M93.3418 77.1997C95.7391 77.0981 98.1716 77.1238 100.514 76.5323C101.35 76.3855 101.945 75.692 102.112 74.8801C102.511 73.4839 102.916 72.089 103.273 70.6822C104.36 67.5334 105.589 64.4488 107.109 61.5193C107.72 60.237 108.317 58.9492 108.992 57.6992C109.62 56.4203 110.18 55.1079 110.78 53.8156C111.406 52.5054 111.859 51.1282 112.35 49.7656C113.708 46.3534 114.514 42.6941 114.292 39.0107C114.306 38.1988 114.237 37.3892 114.064 36.5946C113.925 35.8429 113.851 35.0735 113.65 34.3341C112.373 29.7836 109.327 26.0618 106.405 22.4576C101.903 17.1583 97.2891 12.1536 92.5428 7.09981C91.2029 5.63729 89.8329 4.20156 88.4133 2.8166C87.928 2.37131 87.4299 1.8228 86.8744 1.39872C86.7435 1.32786 86.6098 1.26257 86.4722 1.20733C86.3819 1.17385 86.2883 1.15097 86.1936 1.13032C86.0866 1.10689 85.9802 1.07675 85.8727 1.05332C85.8109 1.04216 85.7485 1.03602 85.6855 1.02821C85.6019 1.01705 85.5189 1.007 85.4348 1.00422C85.3429 1.00366 85.2493 1.00645 85.1584 1.01984C85.0726 1.03658 84.9868 1.06169 84.9016 1.08457C84.7991 1.11191 84.6977 1.14427 84.598 1.1811C84.5071 1.21904 84.4186 1.26368 84.3333 1.31446C84.3032 1.33399 84.2737 1.3552 84.2458 1.37919C84.169 1.45061 84.0993 1.53153 84.0319 1.61243C84.0414 1.60072 84.0514 1.58956 84.0609 1.57784C84.0436 1.59793 84.0269 1.61857 84.0096 1.63922C83.9249 1.74022 83.8458 1.84512 83.7712 1.95393C83.638 2.23516 83.5444 2.53704 83.4798 2.84283C83.1265 4.30367 83.5009 5.78739 84.0163 7.16119C84.5874 8.78385 85.3401 10.3407 86.1847 11.8445C84.9144 11.2608 83.5271 10.9076 82.1493 10.7296C79.5514 10.3641 76.8487 10.527 74.3755 11.441C72.9052 11.9728 71.3491 12.5766 70.2994 13.7858C69.622 14.5452 69.1016 15.6327 69.5272 16.6394C70.363 18.7737 73.1292 18.8926 75.0558 18.9311C75.5032 18.9355 76.0564 18.9478 76.3378 18.5622C77.5105 18.6331 78.6895 18.6208 79.8689 18.6086C81.7844 18.5885 83.6998 18.5684 85.5847 18.9071C86.924 19.3072 88.518 19.5421 89.8072 19.9824C90.8836 20.3144 91.9121 21.0269 93.0175 21.2529C93.2944 21.4482 93.5607 21.6564 93.8159 21.8812C95.0533 23.0251 95.6962 24.6288 96.367 26.1382C98.2418 29.8182 98.487 33.8972 96.3721 37.5398C94.1903 41.2265 91.511 44.6147 88.4985 47.6525C83.9561 51.6059 78.2738 53.3089 76.5651 59.818C75.9099 62.5996 76.3712 72.2714 76.374 72.421C76.3773 72.5086 76.3996 72.9912 76.4063 73.1447C76.4096 73.22 76.418 73.2959 76.4258 73.3707C76.433 73.4443 76.4375 73.5191 76.4458 73.5922C76.4492 73.6123 76.4536 73.6313 76.4581 73.6508C76.4692 73.6553 76.4804 73.6608 76.4915 73.6642C76.5244 73.6737 76.5595 73.6798 76.5924 73.6893C76.662 73.7094 76.7283 73.7345 76.7902 73.7724C76.9044 73.8433 76.9768 73.9521 76.9896 74.0877C76.9985 74.1814 76.9718 74.2841 76.9116 74.3578C77.2972 74.7004 77.8822 75.024 78.719 75.2735C80.9581 76.2555 83.4057 76.5507 85.8142 76.8202C87.8099 77.0479 89.8128 77.2382 91.8213 77.2382C92.3278 77.2382 92.8348 77.2265 93.3418 77.1997Z" fill="#A3453A"/>
<path d="M76.3823 72.6431C76.3823 72.6498 76.3823 72.657 76.3829 72.6637C76.3829 72.657 76.3823 72.6498 76.3823 72.6431Z" fill="#A3453A"/>
<path d="M86.4521 1.19946C86.4549 1.20058 86.4577 1.20169 86.4605 1.20337C86.47 1.20672 86.48 1.21062 86.4889 1.21397C86.4767 1.20895 86.465 1.20393 86.4521 1.19946Z" fill="#A3453A"/>
<path d="M60.0413 36.8981C60.0441 37.5616 60.063 38.2245 60.0904 38.8862C60.1856 42.2342 60.5656 45.614 61.5924 48.8125C62.0587 50.102 62.4326 51.4334 63.0649 52.6549C63.3741 53.2408 63.7218 53.8111 64.0767 54.3707C64.4043 54.8886 64.7848 55.3584 65.1804 55.8243C66.0217 56.8449 66.8307 57.8962 67.7834 58.818C70.2532 61.2386 73.4712 62.7664 76.8275 63.494C78.5596 63.9505 80.2806 64.6536 82.0919 64.6725C83.5717 64.6245 84.7417 64.0744 86.0226 63.6508C87.2511 63.2346 88.5258 62.9801 89.7565 62.57C91.0976 62.1359 92.3556 61.4958 93.5613 60.7704C96.2244 59.3381 98.1465 58.4754 99.8893 55.8249C100.651 54.5772 101.292 53.2391 101.688 51.8279C102.37 50.7884 102.731 49.5703 103.168 48.4141C103.794 46.701 104.315 44.8434 104.378 43.0216C104.59 40.2935 104.371 37.4868 103.866 34.814C103.683 33.8386 103.464 32.8688 103.165 31.9218C102.979 31.4096 102.89 30.7852 102.415 30.4537C102.044 29.6022 101.555 28.8166 101.057 28.0354C100.343 26.8725 99.6163 25.7102 98.6641 24.7242C97.347 23.308 95.9469 21.9158 94.222 21.0057C92.8175 20.292 91.3706 19.6269 89.8758 19.1247C88.0723 18.5421 86.2231 18.1275 84.35 17.8441C82.7076 17.5595 81.0517 17.343 79.3809 17.4021C77.8064 17.3664 76.2313 17.4908 74.7025 17.8831C73.0383 18.257 71.3708 18.7224 69.8883 19.5884C67.9338 20.7819 66.0312 22.1044 64.5213 23.8448C63.7703 24.6896 63.066 25.7208 62.5434 26.6783C61.6905 28.07 61.0715 29.6056 60.7673 31.2121C60.4542 33.0975 60.0419 34.9791 60.0413 36.8981Z" fill="#0FFF80"/>
<path d="M65.7286 38.7122C65.6389 40.8343 65.844 42.9798 66.332 45.0466C66.4524 45.5527 66.6262 46.0466 66.7309 46.5566C66.7727 46.8412 66.8518 47.1207 66.9622 47.3863C67.6452 49.0056 68.4425 50.5931 69.466 52.0227C69.8426 52.7096 70.2538 53.3776 70.7039 54.0237C72.46 56.2306 74.4 57.4789 76.589 58.12C77.8075 58.7444 79.0605 59.1473 80.5676 58.9793C81.444 58.8845 82.3293 58.8845 83.1951 58.7126C84.0848 58.5608 84.9623 58.3399 85.8526 58.1881C86.4755 58.0636 87.0995 57.9347 87.7107 57.7623C88.2968 57.5832 88.8484 57.3148 89.41 57.0721C89.9343 56.8461 90.4719 56.6441 90.9728 56.369C91.6865 55.9421 92.4615 55.272 92.8838 54.483C95.2717 52.3687 97.2139 49.678 98.1532 46.6352C98.8859 43.5339 99.6291 40.1329 98.8408 36.9813C98.375 35.3793 97.5994 33.9145 96.6194 32.5781C96.5152 32.2801 96.3982 31.9861 96.2623 31.7004C95.8004 30.8226 95.1647 30.0554 94.5647 29.2708C93.7206 28.0723 92.7417 26.9473 91.5617 26.083C91.4703 26.0088 91.3778 25.9362 91.2837 25.8654C88.3135 24.0312 84.8297 23.0441 81.352 22.8912C79.0371 22.8979 76.6642 23.2467 74.4674 24.0385C73.0801 24.4776 71.7575 25.1305 70.7301 26.0155C70.5022 26.2264 70.2872 26.449 70.0827 26.6817C68.3701 28.3926 67.2073 30.6653 66.4006 32.9257C65.9922 34.3113 65.883 35.7587 65.8824 37.205C65.8178 37.7061 65.766 38.2083 65.7286 38.7122Z" fill="#D4FFBE"/>
<path d="M98.3621 57.9911C99.3578 57.6585 99.9929 56.658 100.702 55.9404C101.897 54.5103 102.801 52.9055 103.539 51.2214C103.594 51.0535 103.664 50.8911 103.734 50.7287C103.808 50.5535 103.882 50.3794 103.951 50.202C104.031 49.9927 104.112 49.7829 104.184 49.5703C104.22 49.4615 104.261 49.3538 104.3 49.2456C104.333 49.1507 104.362 49.0547 104.39 48.9582C104.451 48.7478 104.509 48.5375 104.577 48.3299C104.58 48.3198 104.583 48.3103 104.587 48.3003C104.635 48.1597 104.689 48.0213 104.738 47.8818C104.802 47.6971 104.844 47.5057 104.89 47.3165C104.886 47.3322 104.882 47.3489 104.878 47.3645C104.912 47.2206 104.945 47.076 104.989 46.9343C105.002 46.8941 105.016 46.854 105.028 46.8138C105.066 46.6693 105.104 46.5247 105.144 46.3802C105.146 46.3702 105.15 46.3601 105.153 46.3506C105.174 46.2591 105.193 46.1682 105.211 46.0756C105.255 45.8473 105.297 45.6197 105.345 45.3926C105.347 45.3825 105.349 45.3719 105.352 45.3613C105.377 45.2319 105.401 45.1018 105.427 44.9718C105.442 44.8959 105.459 44.8201 105.474 44.7436C105.496 44.5952 105.518 44.4468 105.538 44.2983C105.536 44.2704 105.539 44.2425 105.543 44.2146C105.548 44.1901 105.553 44.165 105.558 44.1399C106.018 40.5391 105.763 36.8457 105.008 33.2862C103.935 29.1101 101.657 24.7823 98.2362 21.9839C96.8612 20.8986 95.4137 19.8864 93.8443 19.0901C92.9735 18.4992 91.9812 18.7564 92.0063 19.9065C92.0207 20.5526 92.4804 21.0426 93.0921 21.2273C93.8264 21.5877 94.5335 22.0096 95.2148 22.4599C96.4389 23.3292 97.7069 24.1858 98.7126 25.3018C101.877 28.9913 103.604 33.64 103.734 38.4176C104.145 42.4564 103.317 46.5119 101.758 50.2265C101.043 51.8866 100.112 53.464 99.0268 54.9148C98.5471 55.628 97.7877 56.2055 97.517 57.028C97.4117 57.4744 97.7404 58.0056 98.2229 58.0056C98.268 58.0056 98.3142 58.0011 98.3621 57.9911Z" fill="#004448"/>
<path d="M104.577 48.3287L104.577 48.3293C104.577 48.3304 104.576 48.3321 104.576 48.3321C104.577 48.331 104.577 48.3299 104.577 48.3287Z" fill="#004448"/>
<path d="M65.8841 57.8259C66.3454 57.5492 66.5304 57.0018 66.4502 56.494C66.2774 56.3272 66.1064 56.157 65.9487 55.9767C65.8468 55.8601 65.7454 55.7418 65.6473 55.623C65.4997 55.4444 65.3609 55.2597 65.2233 55.0744C65.2272 55.08 65.2317 55.0862 65.2356 55.0917C65.0177 54.7971 64.811 54.4947 64.6043 54.1922C64.4199 53.9227 64.2361 53.6527 64.0567 53.3792C63.8466 53.0601 63.6338 52.742 63.4388 52.4133C63.2438 52.0836 63.0605 51.7477 62.8822 51.4089C62.7864 51.227 62.6922 51.0429 62.6114 50.8537C62.5412 50.6914 62.4777 50.5262 62.4103 50.3627C62.237 49.9464 62.1134 49.5145 61.9741 49.0871C61.9746 49.0899 61.9757 49.0927 61.9769 49.0955C61.8415 48.6725 61.7456 48.2389 61.6331 47.8098C61.6376 47.8255 61.642 47.8411 61.6465 47.8567C61.588 47.6408 61.5311 47.4248 61.4771 47.2072C61.481 47.2228 61.4849 47.239 61.4888 47.2541C61.432 47.0298 61.379 46.8043 61.3155 46.5822C61.2314 46.3016 61.1328 46.0248 61.0592 45.7413C61.0147 45.5678 60.9801 45.3915 60.9389 45.2174C60.9044 45.0689 60.8782 44.9205 60.8564 44.7699C60.8408 44.6583 60.8269 44.5461 60.8191 44.4334C60.6408 43.492 60.4832 42.5462 60.2982 41.606C60.1121 40.0531 60.1177 38.4851 60.189 36.9272C60.2219 35.8809 60.2781 34.8369 60.467 33.8068C60.6057 32.7321 60.9038 31.6903 61.2247 30.6575C61.6259 29.2117 62.134 27.7894 62.9402 26.511C63.5185 25.6081 64.0962 24.6802 64.9024 23.9531C65.7281 23.2729 66.6424 22.7043 67.5149 22.0827C69.1178 21.0482 70.9062 20.2937 72.7063 19.6476C74.2758 19.1649 75.9065 18.8987 77.5289 18.6315C78.1975 18.5333 78.8783 18.4797 79.5564 18.4858C80.401 18.5338 81.2479 18.5556 82.0936 18.5589C84.1383 18.656 86.1697 18.997 88.1498 19.517C89.2273 19.7631 90.2959 20.0611 91.3026 20.522C92.0542 20.8261 92.8108 21.0789 93.5022 21.4862C94.1452 21.7535 94.7642 22.2016 95.3347 22.5615C96.1063 23.0447 96.976 23.3761 97.6535 23.9972C97.9048 24.2243 98.1304 24.4771 98.3878 24.6986C98.7093 24.9882 99.1221 25.169 99.4542 25.4391C99.6414 25.6026 99.8364 25.7672 99.9996 25.9541C100.189 26.1806 100.334 26.4619 100.593 26.6215C100.746 26.6985 100.931 26.5991 100.986 26.4507C100.943 26.5668 101.001 26.4122 101.004 26.4011C101.019 26.3497 101.029 26.2889 101.021 26.2353C100.914 25.7644 100.674 25.3258 100.428 24.909C100.049 24.2059 99.4547 23.716 99.0419 23.0514C98.4848 22.2618 97.7705 21.5855 96.9197 21.104C96.2963 20.7284 95.7715 20.219 95.1475 19.8457C94.6967 19.5817 94.2377 19.3351 93.7825 19.0779C93.1156 18.7336 92.4063 18.4802 91.7238 18.1672C90.8318 17.78 89.897 17.4948 88.9504 17.2739C87.2132 16.8046 85.4454 16.4703 83.6564 16.2828C82.9148 16.207 82.1722 16.2047 81.4273 16.193C80.4088 16.1634 79.387 16.0702 78.3713 16.1846C76.6308 16.3894 74.8992 16.7108 73.2016 17.1282C72.123 17.4195 71.0839 17.8279 70.0716 18.2861C68.5734 18.9155 67.136 19.6822 65.8379 20.647C64.8395 21.3389 63.7904 21.9929 63.017 22.937C61.4331 24.871 60.1756 27.0885 59.526 29.498C58.7131 31.9331 58.2239 34.4692 58.1911 37.0416C58.1142 38.946 58.0925 40.8722 58.4067 42.7627C58.5198 43.405 58.6691 44.0406 58.7828 44.6828C58.8914 45.2988 58.9828 45.9188 59.1293 46.5281C59.4641 47.7847 59.9037 49.0129 60.3021 50.2522C61.0643 52.5071 62.2833 54.5845 63.7263 56.4912C64.0182 56.8729 64.3403 57.2311 64.6584 57.5927C64.8456 57.8254 65.1253 57.9548 65.4105 57.9548C65.5721 57.9548 65.7348 57.913 65.8841 57.8259Z" fill="#004448"/>
<path d="M85.0971 65.0275C86.3095 64.8433 87.4678 64.4293 88.6199 64.0365C89.6791 63.6559 90.7343 63.2642 91.7589 62.805C94.4978 61.5322 97.04 59.8303 99.0736 57.6234C100.051 56.6212 101.042 55.6101 101.789 54.4255C102.796 52.9211 103.533 51.256 104.088 49.5419C104.383 48.7545 104.661 47.9605 104.926 47.162C104.946 47.0861 104.966 47.0096 104.989 46.9338C105.003 46.8936 105.015 46.8534 105.029 46.8132C105.067 46.6687 105.105 46.5236 105.144 46.3797C105.148 46.3696 105.15 46.3601 105.153 46.3495C105.174 46.2586 105.193 46.1676 105.211 46.0756C105.257 45.8362 105.302 45.599 105.351 45.3608C105.377 45.2313 105.401 45.1013 105.427 44.9718C105.455 44.8362 105.486 44.7018 105.506 44.5639C105.518 44.4791 105.528 44.3943 105.539 44.3089C105.536 44.2777 105.538 44.2459 105.543 44.2152C105.557 44.1443 105.573 44.0735 105.59 44.0037C105.547 43.9183 105.488 43.838 105.408 43.7621C105.047 43.4401 104.52 43.5255 104.145 43.7621C103.555 44.0974 103.483 44.7888 103.33 45.3758C102.994 46.5465 102.622 47.59 102.213 48.716C101.534 50.7784 100.686 52.8234 99.2903 54.5231C98.4301 55.5415 97.4646 56.4638 96.5286 57.4136C94.2365 59.4871 91.4096 60.9167 88.474 61.9244C87.3892 62.31 86.2939 62.7006 85.1484 62.8808C83.0413 63.1225 80.8968 63.2011 78.7808 62.9757C76.7422 62.7179 74.7878 62.0522 72.9575 61.1349C72.9035 61.1125 72.8489 61.0913 72.7943 61.0701C72.7141 61.0389 72.6327 61.0082 72.5553 60.9697C72.4567 60.9217 72.3603 60.8659 72.2656 60.8095C72.2555 60.804 72.2461 60.7984 72.236 60.7922C72.2483 60.8001 72.2617 60.8073 72.2739 60.8146C72.2555 60.804 72.2377 60.7928 72.2193 60.7822C72.2182 60.7811 72.2165 60.78 72.2143 60.7789C72.2143 60.7789 72.2143 60.7789 72.2138 60.7783C72.2138 60.7783 72.2132 60.7783 72.2132 60.7777C72.2104 60.7766 72.2076 60.7744 72.2048 60.7727C72.2054 60.7733 72.2054 60.7733 72.206 60.7738C72.2054 60.7738 72.2054 60.7733 72.2048 60.7727C72.2043 60.7727 72.2037 60.7727 72.2037 60.7727C72.2032 60.7722 72.2026 60.7722 72.2021 60.7716C72.2015 60.7716 72.2021 60.7716 72.2015 60.7716C72.2015 60.7716 72.2009 60.771 72.2004 60.771C72.2004 60.771 72.2009 60.771 72.2015 60.7716C72.1987 60.7694 72.1965 60.7683 72.1937 60.7666C72.1931 60.7666 72.192 60.766 72.1915 60.7655C72.1904 60.7649 72.1887 60.7638 72.1876 60.7632C72.1881 60.7638 72.1881 60.7638 72.1887 60.7643C72.1876 60.7638 72.1876 60.7627 72.1865 60.7621H72.1859C72.1853 60.7616 72.1848 60.7616 72.1848 60.761C72.1848 60.761 72.1837 60.7604 72.1831 60.7604C72.1826 60.7604 72.1826 60.7599 72.182 60.7599H72.1826C72.1809 60.7588 72.1792 60.7582 72.1781 60.7571C72.1764 60.756 72.1748 60.7554 72.1725 60.7543C72.1787 60.7582 72.1837 60.7604 72.1887 60.7643C72.075 60.6963 71.9597 60.631 71.8449 60.5635C71.67 60.4602 71.4956 60.3564 71.3207 60.2543C71.1502 60.155 70.9808 60.0546 70.8203 59.9402C70.8237 59.9424 70.827 59.9446 70.8298 59.9469C70.8254 59.9435 70.8203 59.9402 70.8159 59.9368C70.8137 59.9352 70.8114 59.9335 70.8086 59.9318C70.8103 59.9329 70.8114 59.9335 70.8131 59.9346C70.8081 59.9307 70.8036 59.9279 70.7992 59.9246C70.7981 59.9234 70.7964 59.9223 70.7953 59.9212C70.7947 59.9212 70.7942 59.9218 70.7936 59.9212C70.7942 59.9212 70.7942 59.9212 70.7947 59.9212C70.7875 59.9156 70.7808 59.9106 70.7741 59.9056C70.7724 59.9045 70.7702 59.9039 70.7685 59.9028C70.7674 59.9017 70.7663 59.9006 70.7646 59.8994C70.7585 59.8955 70.754 59.8916 70.7485 59.8877C70.7546 59.8922 70.7602 59.8967 70.7663 59.9011C70.7123 59.8621 70.6582 59.8219 70.6047 59.7828C70.193 59.5161 69.7896 59.2393 69.3952 58.9542C68.6492 58.3817 67.8965 57.8131 67.2011 57.1831C67.0691 57.0676 66.9376 56.9521 66.8089 56.8332C66.8223 56.8461 66.8357 56.8583 66.8485 56.8706C66.7454 56.7758 66.6429 56.6798 66.542 56.5821C66.3381 56.3868 66.1342 56.1882 65.9487 55.9767C65.8462 55.8601 65.7453 55.7429 65.6473 55.6241C65.5013 55.4472 65.3642 55.2641 65.2272 55.0811C65.2277 55.0817 65.2283 55.0817 65.2289 55.0817C65.0127 54.7904 64.8088 54.4908 64.6043 54.1922C64.4199 53.9227 64.236 53.6521 64.0561 53.3792C63.8471 53.0595 63.6338 52.742 63.4388 52.4133C63.2443 52.083 63.0605 51.7476 62.8822 51.4089C62.7863 51.227 62.6922 51.0423 62.6108 50.8537C62.5412 50.6908 62.4777 50.5262 62.4103 50.3627C62.2381 49.9492 62.1155 49.5201 61.9768 49.0954C61.8409 48.6725 61.7456 48.2389 61.6331 47.8098C61.6364 47.821 61.6397 47.8321 61.6425 47.8433C61.5874 47.6391 61.5339 47.4332 61.4821 47.2278C61.4843 47.2368 61.4865 47.2457 61.4888 47.2541C61.4319 47.0303 61.3784 46.8043 61.3149 46.5817C61.2308 46.301 61.1322 46.0253 61.0592 45.7413C61.0146 45.5672 60.9801 45.3909 60.9389 45.2168C60.9049 45.0689 60.8781 44.9205 60.8564 44.7704C60.8441 44.6811 60.8324 44.5929 60.8246 44.5037C60.7767 44.3876 60.7271 44.2721 60.6764 44.1577C60.4709 43.6254 60.3371 43.0724 60.1756 42.5278C60.0212 41.9731 59.9098 41.404 59.7031 40.8644C59.6363 40.6858 59.6468 40.4894 59.5978 40.307C59.5588 40.1596 59.4101 40.0893 59.2646 40.1178C58.8273 40.2366 58.7688 40.7813 58.7398 41.1579C58.5755 42.2566 58.5626 43.3726 58.7426 44.4747C58.9621 45.5577 59.3438 46.6062 59.5265 47.6988C59.8708 48.99 60.1271 50.3152 60.6475 51.5534C61.0068 52.3776 61.5094 53.1326 61.9501 53.9155C62.442 54.6933 62.8616 55.5136 63.3569 56.2881C63.8198 56.9627 64.2672 57.6552 64.84 58.2472C66.1855 59.621 67.7655 60.7694 69.3679 61.8385C69.9534 62.1934 70.5501 62.5349 71.1585 62.8568C71.2588 62.9037 71.3591 62.9495 71.4588 62.9986C71.5129 63.0254 71.568 63.0516 71.6232 63.0767C71.6689 63.0929 71.7134 63.1146 71.7558 63.1381C71.7937 63.1565 71.831 63.1755 71.8689 63.1933C71.9252 63.2184 71.9825 63.2419 72.0388 63.2681C72.0377 63.2675 72.0366 63.2675 72.0355 63.267C72.041 63.2692 72.0461 63.2714 72.0516 63.2737C72.0527 63.2742 72.0533 63.2748 72.0539 63.2753C72.065 63.2804 72.0761 63.2854 72.0878 63.291L72.0817 63.2876C72.0867 63.2899 72.0912 63.2926 72.0956 63.2949C72.1062 63.2993 72.1163 63.3038 72.1263 63.3088C72.1235 63.3077 72.1207 63.306 72.1179 63.3049C72.1241 63.3077 72.1296 63.3111 72.1363 63.3133C72.1424 63.3166 72.1491 63.32 72.1553 63.3222C72.158 63.3239 72.1603 63.325 72.1625 63.3261C72.1642 63.3267 72.1658 63.3272 72.1675 63.3284C72.1681 63.3284 72.1686 63.3278 72.1692 63.3284C72.1686 63.3284 72.1686 63.3289 72.1686 63.3284C72.1692 63.3289 72.1697 63.3295 72.1703 63.3295C72.1709 63.33 72.1714 63.33 72.172 63.3306C72.1742 63.3317 72.177 63.3328 72.1792 63.3339C72.1764 63.3328 72.1736 63.3306 72.1709 63.3295H72.1703C72.1681 63.3284 72.1653 63.3272 72.1625 63.3261C72.1608 63.325 72.1586 63.3244 72.1564 63.3233C72.2706 63.3769 72.3815 63.4344 72.4918 63.4941C72.5742 63.5382 72.6545 63.5862 72.7375 63.6297C73.7543 64.0839 74.8022 64.4656 75.8842 64.7362C76.7834 64.9488 77.6955 65.1084 78.6142 65.2127C79.6121 65.2886 80.6183 65.2836 81.6194 65.2942C82.7811 65.259 83.9461 65.1815 85.0971 65.0275ZM69.5512 60.1941C69.5556 60.2169 69.5384 60.2342 69.5161 60.2342C69.4927 60.2342 69.4693 60.2147 69.4643 60.1918C69.4598 60.169 69.4771 60.1511 69.4994 60.1511C69.5228 60.1511 69.5467 60.1712 69.5512 60.1941Z" fill="#004448"/>
<path d="M72.0589 63.2776C72.0684 63.2821 72.0773 63.2865 72.0868 63.291C72.0778 63.2865 72.0684 63.2821 72.0589 63.2776Z" fill="#004448"/>
<path d="M72.0527 63.2737V63.2748H72.0538L72.0527 63.2737Z" fill="#004448"/>
<path d="M72.2194 60.7816L72.2199 60.7827L72.2194 60.7816Z" fill="#004448"/>
<path d="M72.2043 60.7733L72.2032 60.7722L72.2043 60.7733Z" fill="#004448"/>
<path d="M72.2009 60.771L72.2015 60.7721H72.202L72.2009 60.771Z" fill="#004448"/>
<path d="M70.8126 59.9346C70.8137 59.9351 70.8142 59.9357 70.8153 59.9368C70.817 59.9379 70.8192 59.939 70.8204 59.9402C70.8181 59.9385 70.8148 59.9362 70.8126 59.9346Z" fill="#004448"/>
<path d="M72.2695 60.8113C72.279 60.8163 72.2879 60.823 72.2974 60.828C72.2879 60.8224 72.279 60.8163 72.2695 60.8113Z" fill="#004448"/>
<path d="M72.1876 60.7627C72.1893 60.7638 72.1904 60.7649 72.1915 60.7655L72.1926 60.766C72.191 60.7649 72.1893 60.7638 72.1876 60.7627Z" fill="#004448"/>
<path d="M72.187 60.7627L72.1854 60.7616L72.187 60.7627Z" fill="#004448"/>
<path d="M72.1848 60.761H72.1843L72.1854 60.7621L72.1848 60.761Z" fill="#004448"/>
<path d="M72.1837 60.7604V60.7609L72.1848 60.7615L72.1837 60.7604Z" fill="#004448"/>
<path d="M72.1837 60.761L72.1832 60.7599L72.1837 60.761H72.1843H72.1837Z" fill="#004448"/>
<path d="M72.1826 60.7599L72.1831 60.761L72.1826 60.7599Z" fill="#004448"/>
<path d="M72.1815 60.7593L72.1826 60.7598L72.1837 60.7604C72.1837 60.7604 72.1826 60.7598 72.1815 60.7593Z" fill="#004448"/>
<path d="M70.7953 59.9218C70.7964 59.9223 70.7964 59.9234 70.7975 59.924C70.8014 59.9268 70.8048 59.929 70.8087 59.9318C70.8036 59.9284 70.7997 59.9251 70.7953 59.9218Z" fill="#004448"/>
<path d="M70.7981 59.9235C70.797 59.9229 70.7953 59.9218 70.7942 59.9213H70.7947C70.7959 59.9224 70.7975 59.9235 70.7986 59.9246L70.7981 59.9235Z" fill="#004448"/>
<path d="M70.7675 59.9011L70.7686 59.9022C70.7702 59.9034 70.7714 59.9045 70.773 59.9056C70.7708 59.9045 70.7697 59.9028 70.7675 59.9011Z" fill="#004448"/>
<path d="M70.7658 59.9005L70.7646 59.8994L70.7658 59.9005Z" fill="#004448"/>
<path d="M70.7646 59.8989C70.7596 59.895 70.754 59.8911 70.7485 59.8872C70.7535 59.8911 70.7596 59.895 70.7652 59.8995L70.7646 59.8989Z" fill="#004448"/>
<path d="M72.1709 63.3295H72.1697C72.1697 63.3295 72.172 63.33 72.1731 63.3306L72.1709 63.3295Z" fill="#004448"/>
<path d="M72.1686 63.3289H72.1681L72.1698 63.33L72.1686 63.3289Z" fill="#004448"/>
<path d="M72.1631 63.3261C72.1614 63.3255 72.1597 63.3244 72.1581 63.3233L72.1558 63.3228C72.1597 63.3244 72.1631 63.3267 72.1664 63.3283C72.1653 63.3272 72.1647 63.3267 72.1631 63.3261Z" fill="#004448"/>
<path d="M70.7986 59.9246L70.7998 59.9257L70.7986 59.9246Z" fill="#004448"/>
<path d="M70.7657 59.9L70.7663 59.9011H70.7669L70.7657 59.9Z" fill="#004448"/>
<path d="M69.3562 58.8811L69.3579 58.8817V58.8822L69.3562 58.8811Z" fill="#004448"/>
<path d="M72.2144 60.7788L72.2166 60.7805C72.2177 60.781 72.2188 60.7816 72.2199 60.7822C72.2183 60.781 72.216 60.7799 72.2144 60.7788Z" fill="#004448"/>
<path d="M72.2065 60.7733C72.2077 60.7739 72.2088 60.775 72.2099 60.7755C72.2116 60.7767 72.2132 60.7778 72.2149 60.7789C72.2121 60.7772 72.2093 60.775 72.2065 60.7733Z" fill="#004448"/>
<path d="M72.2048 60.7727L72.2059 60.7738L72.2048 60.7727Z" fill="#004448"/>
<path d="M72.2026 60.7716L72.2009 60.7705V60.7711L72.2026 60.7716Z" fill="#004448"/>
<path d="M72.1848 60.761L72.1865 60.7621H72.187C72.1859 60.7621 72.1848 60.761 72.1848 60.761Z" fill="#004448"/>
<path d="M72.1848 60.761L72.1854 60.7621H72.1859L72.1848 60.761Z" fill="#004448"/>
<path d="M72.1848 60.761C72.1843 60.761 72.1843 60.761 72.1843 60.7604C72.1837 60.7604 72.1831 60.7599 72.1826 60.7593C72.1815 60.7582 72.1792 60.7577 72.1781 60.7565C72.1776 60.7565 72.177 60.756 72.1765 60.756C72.1792 60.7577 72.1826 60.7593 72.1854 60.7616L72.1848 60.761Z" fill="#004448"/>
<path d="M69.5457 59.0094C69.5468 59.01 69.5479 59.0111 69.549 59.0116C69.5479 59.0105 69.5468 59.01 69.5457 59.0094Z" fill="#004448"/>
<path d="M68.7823 53.0405C69.6297 52.5668 69.3138 51.3459 68.906 50.6629C68.4714 49.5608 68.0296 48.4616 67.4858 47.4069C66.6785 45.3077 66.2323 43.0852 65.767 40.8901C65.0311 36.3212 66.3615 30.7116 69.7517 27.445C71.0153 26.3921 72.3803 25.323 73.9938 24.8955C76.1644 24.3727 78.3913 23.9163 80.6338 24.0318C83.063 24.1584 85.5373 24.3515 87.8661 25.0936C89.0946 25.6064 90.2919 26.2258 91.404 26.959C93.486 28.5387 94.9385 30.8103 96.3698 32.9637C97.1375 34.3469 97.8434 35.7659 98.5588 37.1771C99.0736 38.2206 99.6129 37.4093 99.4291 36.5856C99.0151 33.7309 97.6947 31.0481 95.9781 28.7519C94.8521 27.2029 93.6571 25.6488 92.023 24.6054C90.4674 23.6735 89.0985 22.8806 87.4198 22.4387C86.7524 22.2835 86.0782 22.1496 85.4008 22.0358C85.262 22.0224 85.1239 22.009 84.9857 21.9923C84.9105 21.9833 84.8358 21.9739 84.7612 21.961C84.7132 21.9599 84.6648 21.9588 84.6163 21.9577C84.5032 21.9538 84.3895 21.951 84.277 21.942C84.1873 21.9354 84.097 21.9242 84.0079 21.9141C83.8213 21.8935 83.6335 21.8751 83.4469 21.8505C83.2786 21.8293 83.1103 21.8076 82.9432 21.7841C82.7917 21.7629 82.6418 21.7322 82.4908 21.7082C82.4668 21.7055 82.4434 21.7021 82.4195 21.6988C82.2847 21.6932 82.1498 21.687 82.015 21.677C81.8412 21.6647 81.6696 21.6391 81.4974 21.6184C81.4746 21.6156 81.4523 21.6134 81.43 21.6112C80.4728 21.566 79.5151 21.5615 78.5613 21.5989C76.5394 21.8522 74.4897 22.139 72.562 22.8231C71.0772 23.481 69.7155 24.4659 68.5099 25.5473C64.109 29.7914 62.6515 37.4344 64.2366 43.2253C64.7592 45.5371 65.3085 47.8712 66.4339 49.9737C66.9666 50.9235 67.2011 53.0662 68.5216 53.0662C68.604 53.0662 68.6909 53.0578 68.7823 53.0405Z" fill="#004448"/>
<path d="M81.8457 60.3129C83.0541 60.299 84.2537 60.0897 85.4053 59.7253C87.0767 59.2856 88.6679 58.5591 90.1822 57.7461C90.156 57.7595 90.1293 57.7729 90.1025 57.7863C90.092 57.7919 90.0814 57.7969 90.0257 57.8248C91.1327 57.2746 92.1768 56.6072 93.1613 55.8606C93.6359 55.5069 94.1725 55.1481 94.4109 54.5856C94.5714 54.2067 94.5758 53.5712 94.0939 53.4244C93.6254 53.286 93.1167 53.4333 92.6994 53.6604C92.3033 53.8987 91.9846 54.2391 91.6007 54.4969C90.8129 55.1124 89.8067 55.7312 88.976 56.1475C87.7208 56.8165 86.4276 57.4264 85.0476 57.7896C83.9472 58.1507 82.799 58.3376 81.6401 58.3147C80.25 58.2734 78.8143 58.3041 77.4966 57.7986C75.3929 56.8829 73.3766 55.6787 71.7246 54.0723C71.0834 53.4462 70.4204 52.7727 69.8771 52.0891C69.5663 51.6656 69.3005 51.2119 69.0152 50.7711C68.6364 50.1724 68.3695 49.5128 68.1065 48.8572C67.2006 46.806 66.5588 44.6649 66.2173 42.4513C65.7002 39.918 65.7058 37.3283 66.0423 34.771C66.2579 33.8621 66.478 32.9414 66.9014 32.1027C67.6458 30.4114 68.6837 28.8713 69.8771 27.4663C70.8076 26.4105 71.9252 25.5512 72.9537 24.5993C73.2373 24.3186 73.698 24.1523 73.9287 23.8499H73.9248C74.2424 22.9744 72.2918 23.6177 71.9687 23.7924C69.5312 24.7778 67.6163 26.6839 66.1972 28.8618C65.7994 29.3858 65.4685 29.9538 65.1866 30.5481C64.6484 31.5988 64.1269 32.669 63.8789 33.8314C63.5447 34.9122 63.5162 36.0578 63.4327 37.1794C63.2533 39.4861 63.5764 41.7823 64.0182 44.0416C64.3793 45.8206 64.8996 47.5671 65.6195 49.2338C65.9487 50.0061 66.1699 50.6316 66.5465 51.3442C66.9443 52.0294 67.3683 52.7012 67.8224 53.3508C68.8598 54.5834 69.9919 55.7507 71.265 56.7412C72.7643 57.8851 74.4914 58.8872 76.2152 59.6115C77.9975 60.3191 79.9559 60.3073 81.8457 60.3129Z" fill="#004448"/>
<path d="M81.4128 60.4993C87.9737 59.8749 93.8482 57.3823 97.5248 51.6796C98.5839 50.0803 99.2486 48.2696 99.7144 46.4171C100.417 43.7655 100.856 40.9291 100.308 38.2117C100.074 36.1895 99.4592 34.4011 98.5154 32.6244C97.2819 30.4471 96.1358 28.18 94.4627 26.2989C92.93 24.8465 91.1578 23.678 89.1777 22.9415C88.1247 22.4917 86.9747 22.456 85.8928 22.1128C85.8565 22.1017 85.8198 22.0905 85.7836 22.0805C85.778 22.0793 85.773 22.0782 85.7674 22.0777C85.7657 22.0771 85.7641 22.0777 85.7624 22.0777L85.7618 22.0766C85.759 22.0766 85.7563 22.0766 85.754 22.0766H85.7557C85.7546 22.076 85.7524 22.0754 85.7524 22.0754C85.7479 22.0749 85.744 22.0749 85.7395 22.0743C85.7418 22.0749 85.744 22.0749 85.7462 22.0754C85.6437 22.0626 85.5406 22.0492 85.4376 22.0392C85.2866 22.0247 85.1362 22.0102 84.9857 21.9923C84.9105 21.9839 84.8353 21.9739 84.7606 21.961C84.7127 21.9599 84.6648 21.9588 84.6163 21.9571C84.5027 21.9532 84.3896 21.951 84.2765 21.9421C84.1868 21.9348 84.0971 21.9242 84.0079 21.9142C83.8207 21.8935 83.633 21.8746 83.4469 21.8506C83.2786 21.8288 83.1104 21.8076 82.9427 21.7842C82.9093 21.7791 82.8764 21.7747 82.8435 21.7697C82.0462 22.1921 81.8446 23.7003 82.8229 24.0441C83.492 24.2728 84.1985 24.2807 84.8905 24.3844C85.7017 24.6489 86.5959 24.8147 87.3998 24.9402C89.6317 25.5964 91.7049 26.8106 93.2961 28.4952C94.5045 29.9494 95.4572 31.711 96.3687 33.3437C99.1867 38.0119 98.9767 42.8531 97.2457 47.8601C95.8807 51.4848 92.9311 54.3948 89.473 56.0554C87.8038 56.8433 86.0727 57.2975 84.2921 57.687C82.5861 58.0101 80.8467 58.2824 79.1296 57.8695C77.0698 57.3394 75.1137 56.4326 73.2746 55.3758C71.675 54.3139 70.3262 52.9518 68.8815 51.698C68.3912 51.2906 68.0809 50.7226 67.7745 50.1797C67.5154 49.851 67.1232 50.1819 67.1438 50.5206C67.1549 50.895 67.3137 51.2449 67.4079 51.6042C68.5862 54.907 71.4772 57.408 74.6067 58.7991C76.5896 59.7025 78.675 60.5161 80.8746 60.5166C81.0534 60.5166 81.2328 60.5105 81.4128 60.4993Z" fill="#004448"/>
<path d="M85.7808 22.0799C85.778 22.0793 85.7747 22.0793 85.7719 22.0788C85.7713 22.0788 85.7708 22.0788 85.7702 22.0788C85.7697 22.0782 85.7691 22.0777 85.768 22.0777C85.7658 22.0771 85.7635 22.0771 85.7607 22.0765C85.7613 22.0765 85.7613 22.0765 85.7613 22.0771C85.7619 22.0771 85.763 22.0771 85.7635 22.0771C85.7646 22.0777 85.7663 22.0777 85.7674 22.0777C85.7719 22.0782 85.7769 22.0793 85.7814 22.0799H85.7808Z" fill="#004448"/>
<path d="M85.7612 22.077C85.7596 22.0765 85.7585 22.0759 85.7568 22.0759H85.7557C85.7573 22.0759 85.7596 22.077 85.7612 22.077Z" fill="#004448"/>
<path d="M83.1483 59.8587C84.4124 59.8476 85.6248 59.5105 86.8026 59.077C87.7018 58.7818 88.6211 58.5379 89.4963 58.173C90.9611 57.5564 92.2497 56.6112 93.4911 55.6336C97.0506 52.9764 98.5711 50.7912 99.7851 46.5097C100.587 43.405 100.962 40.0185 100.024 36.9048C99.7405 36.1298 99.4107 35.3737 99.1004 34.6092C98.8965 34.0451 98.6558 33.496 98.4023 32.9531C98.2279 32.4191 97.6251 32.019 97.1582 32.5078C96.5737 33.1674 97.1782 33.9954 97.239 34.7314C97.4685 36.1114 98.18 37.3568 98.4402 38.7267C98.9416 41.9944 98.2758 45.3613 96.9983 48.3807C96.7609 48.9041 96.5052 49.4197 96.2027 49.9079C95.67 50.7421 94.9619 51.4446 94.2761 52.1516C92.7417 53.68 91.1689 55.1749 89.2072 56.1067C87.9207 56.6781 86.5279 56.9661 85.2231 57.49C84.3968 57.7802 83.5076 57.8432 82.6479 57.937C82.1426 58.0223 81.4763 58.0609 80.9999 58.0385C80.0205 57.9509 79.0416 57.783 78.0599 57.9398C77.6325 57.9995 77.2035 57.8734 76.7801 57.9308C76.2586 58.0497 76.4492 58.6384 76.8904 58.7539C77.6286 59.1886 78.4839 59.2131 79.3068 59.3638C79.8739 59.4681 80.43 59.6249 80.9916 59.7544C81.7025 59.8827 82.429 59.9089 83.1483 59.8587Z" fill="#004448"/>
<path d="M89.4729 77.0446C85.8783 76.8091 82.283 76.5613 78.724 75.976C76.5829 75.6412 74.429 75.322 72.3447 74.7144C71.4973 74.4421 70.5986 74.1413 69.949 73.5041C69.1406 72.7262 68.9077 71.7575 69.4526 70.7492C70.3774 68.8537 72.6667 68.1763 74.639 68.2103C74.9092 68.236 75.2134 68.1908 75.4558 68.3286C75.697 68.5278 75.4931 68.756 75.2368 68.775C74.2551 68.9374 73.3242 69.3509 72.5408 69.9669C72.1096 70.3078 71.7341 70.7224 71.524 71.2375C71.4505 71.4847 71.2956 71.7648 71.3831 72.0231C71.8561 72.8914 74.3175 73.1788 75.2925 73.4326C78.1317 73.9443 80.991 74.3818 83.8631 74.6552C87.0538 74.9565 90.2557 75.1278 93.4532 75.3483C96.8367 75.5609 100.227 75.5023 103.612 75.3789C105.101 75.3098 109.626 75.4889 110.313 74.0537C109.985 73.5839 109.333 73.4728 108.824 73.2747C107.852 72.9494 106.879 72.6274 105.898 72.3334C105.333 72.1838 104.789 71.9618 104.224 71.8156C103.776 71.7224 103.35 71.2146 103.608 70.7621C104.096 69.9747 105.449 70.5288 106.21 70.5684C107.213 70.7213 108.2 70.9546 109.153 71.3067C110.121 71.6113 111.127 71.9076 111.907 72.5873C113.363 73.7853 112.789 75.274 111.38 76.1819C110.565 76.6573 109.624 76.8861 108.705 77.0602C106.748 77.3269 104.77 77.3186 102.799 77.3671C101.727 77.4223 100.654 77.4408 99.5801 77.4447C99.121 77.4564 98.663 77.4614 98.2045 77.4614C95.2901 77.4614 92.3795 77.2488 89.4729 77.0446Z" fill="#004448"/>
<path d="M90.1928 18.7776C89.9404 18.478 89.6941 18.1739 89.459 17.8608C88.3224 16.2934 87.1914 14.7165 86.2215 13.0392C84.7055 10.4065 80.3776 2.85455 84.5383 1.02598C85.1763 0.789949 85.9379 0.726894 86.563 1.03324C86.8003 1.15488 87.0934 1.42551 86.9675 1.71623C86.8042 1.92771 86.5023 1.75975 86.2744 1.73911C85.1412 1.75361 84.3027 2.7396 84.3645 3.85337C84.3795 5.14793 84.9523 6.3599 85.432 7.5384C86.3741 9.62755 87.5564 11.6029 88.7815 13.5358C89.6746 14.827 90.5677 16.1232 91.5567 17.3436C91.7907 17.6187 92.067 17.9284 92.1823 18.2922C92.3952 18.8552 92.0904 19.6403 91.4185 19.6297C91.4124 19.6297 91.4062 19.6303 91.4001 19.6303C90.8558 19.6297 90.4931 19.1766 90.1928 18.7776Z" fill="#004448"/>
<path d="M112.984 90.7351C112.787 90.2223 112.888 89.661 112.848 89.1247C112.83 87.8101 112.763 80.6816 112.619 78.5568C112.462 77.2209 112.409 75.7735 111.653 74.6156C111.303 74.162 110.779 73.8857 110.339 73.5297C109.916 73.3272 109.491 73.0287 109.073 72.7932C108.8 72.647 108.508 72.469 108.454 72.1336C108.386 71.6186 108.878 71.4512 109.291 71.6013C109.795 71.7369 110.249 72.0053 110.756 72.1353C111.098 72.2207 111.403 72.3964 111.72 72.5426C112.07 72.6777 112.331 72.8161 112.641 73.0939C114.211 74.5687 114.54 89.2408 114.504 89.6303C114.454 89.9974 114.484 90.4617 114.279 90.7998C114.118 91.0883 113.876 91.2278 113.638 91.2278C113.378 91.2278 113.122 91.0599 112.984 90.7351Z" fill="#004448"/>
<path d="M113.095 77.0652C112.86 76.159 112.702 75.1781 112.095 74.4337C111.716 74.1145 111.222 74.0146 110.785 73.8015C110 73.4539 109.14 73.3942 108.307 73.2301C108.004 73.1827 107.703 73.1241 107.402 73.0638C106.774 72.9377 106.333 72.219 106.495 71.5991C106.636 71.0344 107.169 70.8932 107.68 71.0199C108.038 71.0718 108.397 71.1164 108.751 71.1901C110.035 71.324 111.225 71.8982 112.27 72.6369C113.516 73.5286 113.786 75.1864 113.831 76.6227C113.851 77.0624 113.82 77.5172 113.818 77.9636C113.802 78.1299 113.845 78.3933 113.636 78.4502C113.627 78.4513 113.619 78.4513 113.611 78.4513C113.232 78.4507 113.22 77.3654 113.095 77.0652Z" fill="#004448"/>
<path d="M68.6163 87.348C68.4792 86.7755 68.4787 86.1126 68.4285 85.4854C68.3238 84.25 68.3466 82.8098 68.316 81.5431C68.2246 78.7643 68.0436 75.9748 68.3483 73.2021C68.5377 71.9706 69.0971 70.7581 70.0019 69.8926C70.2248 69.7023 70.4577 69.5355 70.7262 69.4172C71.3742 69.1399 72.0299 68.8626 72.718 68.7063C72.9698 68.6661 73.2501 68.6003 73.5008 68.6673C73.6451 68.7203 73.7314 68.9267 73.6445 69.0618C73.5075 69.247 73.2495 69.2621 73.0551 69.362C72.601 69.5729 72.1993 69.8541 71.8188 70.1761C71.2549 70.5656 70.8716 71.1643 70.6493 71.8054C69.8883 73.4493 70.5145 82.9331 70.261 85.8693C70.2348 86.2337 70.222 86.42 70.1886 86.8313C70.1557 87.1622 70.1991 87.531 69.9657 87.8016C69.8286 87.9668 69.6565 88.036 69.4815 88.036C69.1088 88.036 68.721 87.7224 68.6163 87.348Z" fill="#004448"/>
<path d="M107.053 81.4656C109.972 80.6146 111.184 85.7438 108.542 86.6885C108.31 86.7671 108.087 86.804 107.875 86.804C105.486 86.8034 104.461 82.1698 107.053 81.4656ZM107.393 83.7963C107.412 84.1356 107.568 84.5759 107.934 84.659C107.955 84.659 107.975 84.6579 107.996 84.6573C108.137 84.2478 108.03 83.7578 107.614 83.7578C107.548 83.7578 107.475 83.7701 107.393 83.7963Z" fill="#004448"/>
<mask id="mask0_1_264" style="mask-type:alpha" maskUnits="userSpaceOnUse" x="17" y="30" width="29" height="18">
<path d="M21.2887 44.4188C23.4554 36.5913 28.4495 34.3246 32.8958 34.1501C40.7887 33.8401 42.5298 44.4576 42.5298 44.4576" fill="white"/>
<path d="M21.2887 44.4188C23.4554 36.5913 28.4495 34.3246 32.8958 34.1501C40.7887 33.8401 42.5298 44.4576 42.5298 44.4576" stroke="white" stroke-width="6.7" stroke-linecap="round" stroke-linejoin="round"/>
</mask>
<g mask="url(#mask0_1_264)">
<path d="M35.5101 41.5946C34.1808 40.6661 33.5835 38.7103 33.9585 37.1602C34.1702 36.23 34.6298 35.1436 35.5614 34.7664C35.8756 34.6157 36.2361 34.5404 36.5759 34.6548C37.6579 35.109 37.4155 36.2289 36.4428 36.6507C35.943 37.0285 35.6488 38.356 35.8689 38.9391C35.9881 39.2683 36.094 39.6511 36.4589 39.7778C37.079 40.0283 37.844 40.098 38.4251 39.7153C38.7399 39.3849 38.5454 38.881 38.7961 38.5167C39.3076 37.7366 40.3511 38.2812 40.5974 39.0099C40.8186 39.5679 40.6531 40.2147 40.4698 40.7626C39.7004 42.686 36.9927 42.609 35.5101 41.5946Z" fill="#004448"/>
<path d="M33.4821 40.9903C31.7031 40.0936 32.8185 36.5146 34.7958 38.183C35.9541 39.155 35.1646 41.7581 33.4821 40.9903Z" fill="white"/>
<path d="M36.1898 40.6565C32.8034 39.2638 34.6922 33.9371 37.7837 35.7986C41.3957 36.4983 39.6435 42.3305 36.1898 40.6565Z" fill="#004448"/>
</g>
<mask id="mask1_1_264" style="mask-type:alpha" maskUnits="userSpaceOnUse" x="68" y="30" width="29" height="18">
<path d="M71.8958 44.4188C74.0625 36.5913 79.0566 34.3246 83.503 34.1501C91.3958 33.8401 93.1369 44.4576 93.1369 44.4576" fill="white"/>
<path d="M71.8958 44.4188C74.0625 36.5913 79.0566 34.3246 83.503 34.1501C91.3958 33.8401 93.1369 44.4576 93.1369 44.4576" stroke="white" stroke-width="6.7" stroke-linecap="round" stroke-linejoin="round"/>
</mask>
<g mask="url(#mask1_1_264)">
<path d="M91.0948 40.3574C91.2781 39.8095 91.4436 39.1622 91.2224 38.6042C90.9761 37.876 89.9326 37.332 89.4211 38.1115C89.1704 38.4764 89.366 38.9797 89.0512 39.3101C88.4695 39.6923 87.704 39.6231 87.0839 39.3726C86.719 39.2453 86.6131 38.8637 86.4939 38.5344C86.2744 37.9513 86.568 36.6227 87.0683 36.245C88.0405 35.8237 88.2834 34.7043 87.2009 34.2501C86.8611 34.1352 86.5011 34.2105 86.1864 34.3612C85.2548 34.7384 84.7952 35.8259 84.5835 36.755C84.2085 38.3057 84.8058 40.2615 86.1351 41.19C86.7792 41.6302 87.6539 41.8936 88.5007 41.8936C89.6039 41.8936 90.6597 41.4455 91.0948 40.3574Z" fill="#004448"/>
<path d="M83.6787 37.9937C85.656 36.3242 86.7719 39.9043 84.993 40.8016C84.7818 40.8975 84.5846 40.9411 84.4035 40.9411C83.1427 40.9411 82.6658 38.843 83.6787 37.9937Z" fill="white"/>
<path d="M88.4094 35.3929C85.3178 33.5308 83.4279 38.8586 86.8148 40.2514C87.2449 40.4595 87.6489 40.551 88.0188 40.551C90.6218 40.551 91.5712 36.005 88.4094 35.3929Z" fill="#004448"/>
</g>
<path d="M21.2887 44.4188C23.4554 36.5913 28.4495 34.3246 32.8958 34.1501C40.7887 33.8401 42.5298 44.4576 42.5298 44.4576" stroke="#004449" stroke-width="6.7" stroke-linecap="round" stroke-linejoin="round"/>
<path d="M71.8958 44.4188C74.0625 36.5913 79.0566 34.3246 83.503 34.1501C91.3958 33.8401 93.1369 44.4576 93.1369 44.4576" stroke="#004449" stroke-width="6.7" stroke-linecap="round" stroke-linejoin="round"/>
</svg>
