<svg width="24" height="24" viewBox="0 0 24 24" fill="none" xmlns="http://www.w3.org/2000/svg">
<path d="M22.2691 0H1.7309C0.7749 0 0 0.7749 0 1.7309V22.2691C0 23.2251 0.7749 24 1.7309 24H22.2691C23.2251 24 24 23.2251 24 22.2691V1.7309C24 0.7749 23.2251 0 22.2691 0ZM8.5129 18.1406H5.59039V9.3481H8.5129V18.1406ZM7.0518 8.1475H7.0327C6.052 8.1475 5.41772 7.4724 5.41772 6.6286C5.41772 5.76581 6.0714 5.10938 7.0712 5.10938C8.0709 5.10938 8.6862 5.76581 8.7052 6.6286C8.7052 7.4724 8.0709 8.1475 7.0518 8.1475ZM19.051 18.1406H16.1288V13.4368C16.1288 12.2547 15.7057 11.4485 14.6483 11.4485C13.8409 11.4485 13.3601 11.9923 13.1488 12.5173C13.0715 12.7051 13.0527 12.9677 13.0527 13.2305V18.1406H10.1303C10.1303 18.1406 10.1686 10.173 10.1303 9.3481H13.0527V10.593C13.441 9.9939 14.1359 9.1417 15.6865 9.1417C17.6093 9.1417 19.051 10.3984 19.051 13.099V18.1406Z" fill="#FFFEF0"/>
</svg>
