<svg width="137" height="119" viewBox="0 0 137 119" fill="none" xmlns="http://www.w3.org/2000/svg">
<path d="M63.3806 75.0111C64.0893 76.9563 63.4255 77.8994 61.7455 78.8912C60.0291 79.8664 58.2504 80.7262 56.525 81.686C53.1125 83.5749 33.9501 92.6833 32.5687 93.2958C31.0265 93.9794 29.4804 94.6522 27.9075 95.2954C26.1148 96.0194 24.3297 96.8165 22.4326 97.2259C21.9136 97.338 21.403 97.5245 20.8654 97.5065C20.3721 97.4835 19.8672 97.331 19.475 97.0247C19.1054 96.6775 18.7715 96.2994 18.4666 95.9003C18.2917 95.6933 18.1289 95.4684 17.9745 95.2403C17.2332 94.1569 16.6418 92.9825 16.1299 91.776C15.4321 90.1473 14.6812 88.5436 13.9803 86.9168C13.296 85.226 12.5976 83.5422 11.8659 81.8712C9.60613 76.7199 7.40271 71.5435 5.14611 66.3903C4.07484 64.1023 3.19835 61.7316 2.18538 59.4186V59.4174C2.16936 59.3885 2.15398 59.3597 2.13796 59.3315C1.59207 58.3 1.06669 57.2389 0.576541 56.183C-0.560726 53.7297 1.15318 52.8564 3.00677 51.7262C3.08302 51.6775 41.6803 32.9213 42.4171 32.9616C42.5542 32.9527 42.6926 32.9546 42.831 32.9687C43.9913 33.1641 44.7051 34.2187 45.2779 35.1529C45.884 36.0377 63.2224 74.5997 63.3806 75.0111Z" fill="#D5FFBF"/>
<path d="M5.8592 66.8003C5.45043 66.6908 5.20439 66.2974 5.0455 65.9322C4.87315 65.5497 4.67004 65.1825 4.48679 64.8052C3.77817 63.2924 3.12143 61.7554 2.41537 60.2414C1.80284 59.0573 1.23389 57.8585 0.714269 56.6316C0.477845 56.0601 0.18568 55.4796 0.202338 54.8465C0.178632 54.3698 0.316386 53.9354 0.720676 53.6535C0.958381 53.428 1.24094 53.2018 1.56322 53.1288C1.74326 53.164 1.77337 53.3806 1.67021 53.5113C1.54656 53.6984 1.41265 53.8803 1.30437 54.077C1.19609 54.2571 1.02822 54.4057 0.951333 54.6005C0.798203 55.3777 1.26464 56.0838 1.54015 56.7796C1.85923 57.492 2.15011 58.2225 2.52108 58.9106C3.42641 60.6405 4.15106 62.4569 4.98207 64.2228C5.30883 65.0595 6.03348 65.854 5.85985 66.8003H5.8592Z" fill="#B7E8FF"/>
<path d="M19.8075 98.6977C18.2025 98.2505 17.3908 96.5019 16.6789 95.1334C15.4456 92.5327 7.79158 75.079 5.26076 68.9282C4.25035 66.0623 2.98814 63.3001 1.8938 60.4669C1.6183 59.7512 1.36714 59.0272 1.12751 58.2987C0.928889 57.6112 0.0242001 55.4866 1.10124 55.5308C1.85024 55.7429 2.8946 58.6306 3.34566 59.427C4.333 61.5369 5.38378 63.6218 6.29743 65.765C7.34564 68.4944 8.56941 71.1489 9.71116 73.8386C12.4899 80.2214 15.0944 86.683 18.1551 92.9389C18.53 93.6834 18.8535 94.4747 19.3148 95.1725C19.3206 95.1821 19.327 95.1917 19.3328 95.2019C19.4122 95.3307 19.5077 95.4505 19.5993 95.5723C19.6698 95.6729 19.7422 95.7735 19.8146 95.8734C19.9344 96.0381 20.0734 96.1842 20.2458 96.2822H20.2445C20.2445 96.2828 20.2451 96.2815 20.2458 96.2822C20.249 96.2835 20.2516 96.2854 20.2541 96.2867C20.29 96.3072 20.3278 96.3257 20.3669 96.3411C20.3682 96.3418 20.3688 96.3424 20.3694 96.3424L20.3688 96.3418C20.3739 96.3443 20.3797 96.3469 20.3861 96.3488C20.5476 96.4206 20.7186 96.4757 20.8948 96.4821C20.9173 96.4827 20.9416 96.4827 20.9647 96.4827C21.171 96.4827 21.3805 96.4533 21.5823 96.4142C21.7649 96.3776 21.9482 96.3456 22.1276 96.2969C22.405 96.2213 22.6792 96.1431 22.9438 96.0304C23.1847 95.9266 23.4244 95.8241 23.6589 95.7081C23.8562 95.6114 24.058 95.5236 24.2586 95.4352C24.8115 96.0906 24.8019 97.2849 23.9901 97.7039C22.9246 98.1556 21.69 98.7707 20.4912 98.7707C20.2618 98.7707 20.0331 98.7483 19.8075 98.6977Z" fill="#004448"/>
<path d="M32.9793 93.6437C32.9806 93.6431 32.9813 93.6411 32.9825 93.6405C32.9806 93.6418 32.9793 93.6443 32.9774 93.6456L32.9793 93.6437Z" fill="#004448"/>
<path d="M20.734 98.2184C19.9953 98.1864 19.2315 97.9346 18.7497 97.3496C18.5992 97.2016 18.4691 97.0369 18.3397 96.8703C18.0911 96.6051 17.7496 96.2623 17.8239 95.8702C17.8982 95.6075 18.143 95.4268 18.4121 95.3961C18.6863 95.3647 18.9189 95.4492 19.1342 95.5825C19.6224 95.8836 20.0222 96.4347 20.6181 96.4545C20.6418 96.4545 20.6655 96.4539 20.6885 96.4539C20.7564 96.4699 20.8256 96.4801 20.8948 96.4827C20.9179 96.4833 20.9403 96.4833 20.964 96.4833C21.171 96.4833 21.3799 96.4532 21.5823 96.4148C21.7649 96.3783 21.9488 96.3462 22.1282 96.2975C22.405 96.2219 22.6799 96.1438 22.9438 96.031C23.1854 95.9272 24.2753 95.4287 24.2753 95.4287C24.3111 95.4172 24.5213 95.3185 24.5937 95.2839C24.7084 95.2372 57.3175 79.6928 58.6643 79.0886C59.3832 78.7695 60.1091 78.4658 60.8575 78.2249C61.2797 78.1083 62.0447 78.1935 62.0422 78.7785C61.9941 79.432 61.2227 79.5672 60.7735 79.8792C58.9988 80.9447 57.3073 82.1512 55.4748 83.12C51.4255 85.2734 47.0501 87.1827 42.9995 89.0639C40.1419 90.4536 37.2452 91.7632 34.378 93.1343C32.2105 94.1089 30.0532 95.1033 27.8703 96.0432C25.6739 96.9395 23.4724 98.2255 21.0473 98.2255C20.9435 98.2255 20.8391 98.2235 20.734 98.2184Z" fill="#004448"/>
<mask id="mask0_1_625" style="mask-type:alpha" maskUnits="userSpaceOnUse" x="7" y="60" width="35" height="32">
<path d="M19.25 71.6786C19.25 71.6786 26.3868 76.86 30.0989 79.5554" stroke="#FF0000" stroke-width="23.3" stroke-linecap="round" stroke-linejoin="round"/>
</mask>
<g mask="url(#mask0_1_625)">
<path d="M30.1258 80.8093C26.9319 79.5574 23.9096 77.6096 21.423 75.2511C20.3742 73.9216 21.5114 72.9683 22.7781 74.0408C25.1635 75.469 27.4951 77.0214 30.0874 78.06C31.9346 78.9955 32.4106 74.6239 32.9027 73.4757C34.3988 67.7356 35.768 61.964 37.1731 56.2021C37.4985 54.861 37.6613 53.4643 38.1271 52.1656C38.7748 50.9751 40.3401 52.0323 40.2229 53.1375C39.6571 56.409 38.7646 59.6222 38.0316 62.8604C36.9873 66.5964 36.2338 70.4067 35.1926 74.1433C34.3392 76.6319 33.8055 81.6807 30.1258 80.8093Z" fill="#004448"/>
</g>
<path d="M75.8966 72.0619C75.6203 71.8582 75.6386 71.4721 75.5909 71.166C75.5101 70.7578 75.4842 70.1625 75.4911 69.7905C75.4386 68.4575 76.1004 67.2558 76.7666 66.1477C77.5183 64.8961 78.5216 63.811 79.5903 62.8225C81.2211 61.1994 83.0557 59.8073 84.866 58.3928C86.0104 57.5313 87.1336 56.6406 88.2797 55.7822C89.4527 54.8519 90.5642 53.8484 91.758 52.9435C93.5067 51.5667 95.3324 50.2929 97.0443 48.8691C98.8142 47.3977 100.721 45.602 102.351 44.1008C102.864 43.6102 103.394 43.1364 103.91 42.6467C104.832 41.7426 105.713 40.7573 106.885 40.1693C107.941 39.6386 109.041 39.1249 110.224 38.9766C111.468 38.7617 112.944 38.5355 113.998 39.3946C114.86 40.0691 115.132 41.2344 114.942 42.2761C114.553 44.3735 112.818 45.8263 111.349 47.2261C110.335 48.2207 109.282 49.1702 108.167 50.0503C107.013 51.1068 105.737 52.0098 104.502 52.9674C102.02 54.9609 99.72 57.1729 97.1797 59.0955C94.6464 60.994 92.3209 63.154 89.7665 65.024C89.0339 65.5322 88.3559 66.1098 87.6802 66.6898C86.5696 67.6017 85.3668 68.3954 84.1554 69.1636C83.5425 69.5408 82.9043 69.8692 82.229 70.1178C81.6361 70.3839 81.052 70.676 80.4099 70.8108C78.961 71.1997 77.4665 70.519 77.211 68.9511C76.9623 69.5108 76.8683 70.1359 76.8604 70.7465C76.8755 71.2193 76.8892 71.7624 76.4627 72.0637C76.2969 72.1799 76.061 72.1799 75.8966 72.0619ZM87.0035 61.8603C87.5978 62.1432 87.8244 62.8467 87.7357 63.4668C90.0434 61.827 92.1653 59.9561 94.3791 58.195C95.5904 57.2263 96.8345 56.2973 98.0299 55.3071C99.8384 53.7349 101.641 52.1542 103.5 50.6434C105.595 49.0668 107.629 47.4079 109.552 45.6239C110.461 44.6619 112.435 43.1921 112.7 41.9256C112.354 41.1919 109.954 41.7654 109.297 41.956C108.223 42.3553 107.138 42.8204 106.321 43.6485C105.285 44.7153 104.17 45.6992 103.084 46.7153C100.323 49.2421 97.5687 51.7972 94.4861 53.9351C92.6945 55.2612 91.0146 56.7305 89.2759 58.1217C88.2564 58.8818 87.2654 59.6788 86.2493 60.4417C86.3712 60.6069 86.4453 60.8063 86.4767 61.0169C86.6442 61.2338 86.7286 61.5101 86.7499 61.781C86.8384 61.7945 86.9264 61.8152 87.0035 61.8603Z" fill="#004448"/>
<path d="M106.997 47.3636C106.997 47.3624 106.997 47.3618 106.996 47.3599C106.912 47.1732 106.862 46.9808 106.849 46.7856C106.141 47.1565 105.421 46.4806 105.411 45.7636C103.867 43.7619 105.828 42.4855 107.607 41.8375C108.435 41.4491 109.386 40.4361 110.342 40.9295C110.735 40.8098 111.181 40.9826 111.426 41.3019C112.105 40.9922 112.914 41.3413 113.056 42.0979C113.419 42.6279 113.319 43.3311 113.014 43.8615C113.123 44.8634 112.233 45.4301 111.493 45.8934C110.701 46.4152 109.891 46.9107 109.015 47.2831C108.434 47.8469 107.482 48.296 106.997 47.3636Z" fill="#004448"/>
<path d="M104.632 42.4084C103.52 42.5063 102.687 41.5082 103.626 40.6081C104.291 40.0828 105.144 39.8733 105.901 39.5088C107.695 38.7817 109.648 38.2307 111.578 38.4428C112.202 38.5084 112.722 38.7506 113.295 38.943C113.513 39.0462 113.825 39.0777 113.941 39.3119C114.031 39.7287 113.501 39.7475 113.217 39.6974C112.965 39.6798 112.714 39.6809 112.462 39.6769C112.137 39.6617 111.602 39.835 111.384 39.9149C110.368 40.2189 109.458 40.5725 108.46 40.8959C107.64 41.1984 106.846 41.5631 106.049 41.9186C105.589 42.1173 105.141 42.3745 104.632 42.4084Z" fill="#004448"/>
<path d="M92.1808 27.7227C92.5659 28.5205 91.6864 28.9628 91.0337 28.5811C90.6056 28.3259 90.3597 27.8639 89.9939 27.5353C89.3416 26.8806 88.7043 26.2093 88.065 25.5485C87.8481 25.84 87.6629 26.1536 87.446 26.4451C86.294 27.7771 85.2795 29.216 84.1952 30.6011C83.4671 31.6224 82.6036 32.5368 81.8588 33.5446C81.3543 34.3025 80.7118 34.9435 80.0928 35.6056C79.6851 36.0711 79.3442 36.5918 78.9756 37.0874C77.9849 38.3122 76.9394 39.497 75.8462 40.6313C75.2223 41.2496 74.6976 41.9605 74.1292 42.6291C74.0969 42.68 74.0622 42.7269 74.0252 42.7704C74.8576 43.7097 75.5419 44.7919 75.6682 46.0598C75.7677 46.6729 75.772 47.2972 75.6424 47.9062C75.6195 48.046 75.5759 48.1827 75.4793 48.2915C75.1479 48.6641 74.5678 48.5514 74.221 48.255C73.713 47.8366 73.8128 47.344 73.9174 46.776C73.9722 45.7514 73.6506 44.7289 72.9519 43.9678C71.8005 42.6333 70.4229 41.5145 69.0645 40.398C67.1909 38.869 65.2077 37.5152 63.0035 36.5155C61.6997 35.9451 60.2303 35.5109 58.8131 35.8831C58.7925 35.8879 58.7725 35.8925 58.7522 35.8984C58.7494 35.9005 58.7465 35.9019 58.7429 35.9035C57.6738 36.4838 56.7571 37.2916 55.748 37.964C55.1409 38.3739 54.5434 38.7978 54.017 39.1798C53.0615 39.8647 52.1232 40.5748 51.1776 41.2723C49.5678 42.4476 47.9215 43.5696 46.252 44.6586C44.8836 45.5977 43.4707 46.5034 41.9862 47.2576C41.4652 47.6223 40.8348 47.8806 40.2998 48.1563C39.1522 48.7055 37.9448 49.1703 36.6636 49.2458C35.9914 49.2919 35.2975 49.2403 34.6869 48.9356C33.7366 48.5108 32.9073 47.5071 33.2302 46.4213C33.5087 45.3605 34.3678 44.5883 35.056 43.7782C36.641 41.9562 65.8806 16.6861 67.541 15.9962C67.9063 15.836 68.2729 15.6781 68.6453 15.5373C69.1224 15.2325 69.7126 15.0913 70.2507 14.9407C72.8486 14.2915 75.4686 15.3662 77.7387 16.5639C79.3471 17.4113 80.9571 18.3379 82.4894 19.2841C83.73 19.9997 84.8645 20.8663 85.9724 21.7677C85.9966 21.7819 86.0185 21.7947 86.0393 21.8058C87.0047 22.2604 87.7536 23.0461 88.5331 23.7568C89.4606 24.6699 90.3752 25.5949 91.2187 26.5869C91.5422 26.9611 91.9111 27.3113 92.1808 27.7227Z" fill="#C16B27"/>
<path d="M29.8248 74.9914C29.7178 74.5889 29.61 74.186 29.503 73.7835C29.4354 72.4797 29.8984 71.3293 30.5503 70.2399C32.6558 66.7225 35.2101 63.5237 37.6852 60.2709C44.0608 51.8905 50.7559 43.7732 57.8465 35.984C58.2023 35.5931 58.4364 35.5058 58.7899 35.9184C58.9388 36.0919 59.1318 36.2267 59.2844 36.3966C61.8873 39.2849 64.7245 41.9281 67.6875 44.4396C68.0471 44.7446 68.1414 44.9219 67.8031 45.3287C60.1461 54.528 51.8657 63.1345 43.0843 71.2611C41.5697 72.6625 40.0082 74.0213 38.3794 75.2983C37.3994 76.0664 36.3033 76.6047 35.1605 77.0407C32.8552 77.9211 30.989 77.1817 29.8248 74.9914Z" fill="#0FFD7E"/>
<path d="M96.4946 2.64181C96.702 3.49222 96.5316 4.41472 96.2208 5.31713C95.6952 6.84433 94.9731 8.27938 94.1403 9.66135C90.4968 15.7092 86.3021 21.3712 82.0545 27.0007C78.0408 32.3203 74.326 37.8623 70.0897 43.0178C69.6092 43.6024 69.3856 43.5856 68.8399 43.1148C66.1142 40.7649 63.4412 38.3588 60.8692 35.8427C60.4299 35.4135 59.5452 35.1901 59.5919 34.6035C59.6315 34.1115 60.3111 33.6647 60.7191 33.2078C67.9173 25.1598 75.3009 17.283 82.8474 9.56224C85.301 7.05236 87.8097 4.56048 90.7242 2.54897C91.7993 1.80751 92.9127 1.13087 94.2713 1.04497C95.3817 0.974603 96.192 1.52492 96.4946 2.64181Z" fill="#0FFD7E"/>
<path d="M90.8318 68.6194C90.6562 68.5966 90.501 68.5427 90.3619 68.4646C90.124 68.4516 89.884 68.3676 89.7071 68.2139C89.0254 67.51 88.6575 66.5606 88.1147 65.7525C87.7869 65.1881 87.5048 64.5905 87.0534 64.1102C86.7356 63.7478 86.4546 63.3414 86.0452 63.0739C85.645 62.7962 85.1981 62.6154 84.7232 62.5149C83.0083 62.079 81.2452 62.0148 79.4854 62.0186C77.8076 61.9789 76.1287 61.9502 74.4509 61.9762C71.2908 61.9523 67.9137 61.6422 64.8247 61.2664C62.1149 60.9547 59.4094 60.5888 56.7361 60.0376C54.6091 59.5814 52.4907 59.0798 50.3649 58.6206C49.2013 58.3724 48.0281 58.1201 46.9311 57.6484C46.7722 57.5882 46.6098 57.5122 46.4506 57.4229C46.4398 57.4171 46.4291 57.412 46.418 57.4049C46.1728 57.2733 45.9389 57.1168 45.7239 56.9261C45.0152 56.2584 44.6712 55.2107 44.7876 54.2493C45.0214 53.0333 45.834 51.9276 46.9004 51.3043C47.7697 50.8031 48.7568 50.5359 49.7533 50.4583C52.3652 50.2056 54.9941 50.2345 57.6146 50.1835C60.561 50.1099 63.5135 50.0796 66.446 49.7486C68.4896 49.5895 70.625 49.3135 72.443 48.3107C73.1159 47.8385 73.7903 47.1626 73.9364 46.3266C74.0278 45.1082 73.3821 44.0397 72.5019 43.2381C72.6378 43.062 72.7703 42.8828 72.9077 42.7076C73.2361 42.2881 73.572 41.8746 73.9054 41.4591C74.2573 41.0183 74.5972 40.5673 74.9341 40.1145C74.9237 40.1278 74.9136 40.1424 74.9033 40.1563C75.0803 39.9197 75.2548 39.6811 75.4345 39.4471C75.7719 39.0067 76.1179 38.5734 76.4582 38.1363C76.7867 37.7148 77.1252 37.3039 77.4534 36.8838C77.7974 36.4431 78.1412 36.0017 78.4781 35.5568C78.8122 35.116 79.1388 34.6724 79.4781 34.2362C79.7694 33.8676 80.0623 33.4998 80.357 33.1336C80.6546 32.7633 80.9539 32.3945 81.2442 32.0195C81.2402 32.0245 81.2363 32.0296 81.2312 32.0355C81.2825 31.971 81.333 31.9061 81.3834 31.8406C81.3785 31.8471 81.3746 31.8528 81.3704 31.8592C81.5055 31.6852 81.6396 31.5096 81.774 31.3352C81.7744 31.3344 81.7744 31.3344 81.7744 31.3344C81.7738 31.3346 81.774 31.3352 81.774 31.3352C81.774 31.3352 81.774 31.3352 81.7733 31.3354C81.7735 31.336 81.7729 31.3361 81.773 31.3368C81.7726 31.3375 81.7714 31.3379 81.7709 31.3387C81.772 31.3377 81.7726 31.3375 81.773 31.3368C81.7729 31.3361 81.7735 31.336 81.7733 31.3354C81.774 31.3352 81.774 31.3352 81.7744 31.3344C81.7755 31.3335 81.7766 31.3325 81.7781 31.3308C81.7786 31.33 81.7789 31.3286 81.7793 31.3278C81.7877 31.317 81.7962 31.3062 81.8046 31.2954C81.8229 31.272 81.8407 31.2488 81.8584 31.2256C81.8609 31.2223 81.8629 31.2198 81.8647 31.2166C81.8662 31.2149 81.8679 31.2138 81.8693 31.2114C81.8808 31.1972 81.8909 31.1826 81.9024 31.1683C81.8984 31.1733 81.895 31.1782 81.891 31.1832C81.9001 31.1722 81.9083 31.1608 81.9161 31.1501C81.9168 31.15 81.9168 31.15 81.9174 31.1498C81.9172 31.1492 81.9177 31.1484 81.9183 31.1482C81.9192 31.1467 81.9204 31.1463 81.9214 31.1448C81.9581 31.098 81.9945 31.05 82.0306 31.0035C82.032 31.0011 82.0342 30.9992 82.0357 30.9975C82.0335 30.9994 82.032 31.0011 82.0306 31.0035C82.0296 31.0044 82.0293 31.0058 82.0282 31.0068C82.0305 31.0028 82.0329 30.9996 82.036 30.9961L82.0357 30.9975C82.0362 30.9967 82.0371 30.9952 82.0375 30.9944C82.0371 30.9952 82.036 30.9961 82.036 30.9961C82.0438 30.9854 82.0527 30.9738 82.06 30.964C82.0528 30.9745 82.0455 30.9843 82.0375 30.9944C82.5586 30.3275 83.0926 29.6719 83.6187 29.0091C84.2874 28.1651 84.9558 27.3204 85.637 26.4863C85.973 26.0755 86.3106 25.6662 86.6524 25.2598C86.9955 24.851 87.342 24.4454 87.6826 24.0346C87.7697 23.9296 87.8576 23.8257 87.9456 23.7218C88.1708 23.9084 88.394 24.0975 88.6254 24.2772C89.5511 24.9893 90.4531 25.7302 91.2767 26.5605C94.1388 29.3311 96.9235 32.1828 99.5403 35.1873C101.936 37.8464 104.115 40.6837 106.424 43.4161C107.21 44.3609 107.993 45.31 108.782 46.2535C108.783 46.2558 108.785 46.2586 108.787 46.2607C108.792 46.2673 108.796 46.2741 108.801 46.2807C108.874 46.379 108.952 46.4718 109.022 46.5712C109.012 46.5567 109.001 46.5423 108.991 46.527C109.102 46.6854 109.228 46.8272 109.354 46.9709C109.455 47.0861 109.553 47.2043 109.647 47.3251L109.648 47.3262C109.649 47.3273 109.649 47.3279 109.65 47.329L109.651 47.3302C109.652 47.3307 109.652 47.3326 109.653 47.3336C109.655 47.3356 109.658 47.3384 109.66 47.3418C109.661 47.3433 109.663 47.3455 109.665 47.3478C109.665 47.3484 109.665 47.3484 109.665 47.349C109.666 47.3501 109.667 47.3512 109.668 47.3516C109.668 47.3523 109.668 47.3523 109.669 47.3527C109.669 47.3533 109.669 47.3533 109.669 47.354L109.67 47.355C109.67 47.3557 109.671 47.3561 109.671 47.3561C109.672 47.3578 109.674 47.3593 109.675 47.361C109.675 47.3623 109.676 47.3627 109.677 47.3632C109.677 47.3636 109.678 47.3643 109.678 47.3643C109.678 47.3643 109.677 47.363 109.677 47.3632C109.677 47.3636 109.678 47.3649 109.679 47.3653C109.679 47.3664 109.68 47.3677 109.68 47.3683C109.68 47.3683 109.681 47.3687 109.682 47.3692C109.682 47.3698 109.683 47.3709 109.683 47.3715L109.682 47.3704C109.682 47.371 109.683 47.3715 109.684 47.3726C109.685 47.373 109.685 47.3737 109.685 47.3737C109.685 47.3741 109.686 47.3747 109.686 47.3754C109.686 47.3752 109.687 47.3764 109.687 47.3764C109.688 47.3775 109.689 47.3786 109.69 47.3801C109.691 47.3807 109.691 47.3812 109.691 47.3818C109.692 47.3824 109.692 47.3829 109.693 47.3835C109.693 47.3841 109.693 47.384 109.694 47.3846C109.694 47.3846 109.694 47.385 109.694 47.3857C109.695 47.3863 109.695 47.3869 109.696 47.3874C109.696 47.388 109.696 47.3878 109.697 47.3884C109.697 47.3891 109.697 47.3891 109.697 47.3895C109.698 47.3901 109.698 47.3908 109.698 47.3906L109.699 47.3918C109.7 47.3923 109.7 47.3929 109.7 47.3927C109.702 47.3951 109.703 47.3974 109.705 47.3989C109.707 47.4017 109.708 47.4032 109.71 47.406C109.712 47.4083 109.713 47.4094 109.714 47.4109C109.714 47.4115 109.715 47.4126 109.716 47.4132C109.717 47.4143 109.717 47.4148 109.718 47.4152C109.719 47.4163 109.72 47.4174 109.721 47.4192C109.784 47.4987 109.85 47.574 109.914 47.6519C109.914 47.6525 109.914 47.6531 109.915 47.6536C109.916 47.6541 109.917 47.6558 109.918 47.6568C109.921 47.6601 109.923 47.6628 109.926 47.6661C109.929 47.6712 109.933 47.6753 109.937 47.6802C109.943 47.6875 109.949 47.6956 109.955 47.7027C110.069 47.8443 110.184 47.9866 110.297 48.1284C110.393 48.5734 110.325 49.0617 110.123 49.6161C109.968 50.0365 109.686 50.3934 109.394 50.7272C108.763 51.458 108.063 52.126 107.381 52.8091C106.103 54.0087 104.823 55.2048 103.632 56.4933C101.628 58.4407 99.7565 60.5115 97.9235 62.6199C96.2979 64.2445 94.9774 66.1905 93.0988 67.5477C92.5523 67.9211 91.9809 68.3812 91.3314 68.5518C91.1697 68.5943 91.0038 68.6186 90.8318 68.6194Z" fill="#C16B27"/>
<path d="M29.5161 79.9069C28.9911 79.9865 28.5052 79.559 28.5187 79.0275C28.5073 78.6211 28.7151 78.2446 28.9847 77.9545C29.5269 77.3073 30.0949 76.6805 30.7103 76.1028C31.099 75.7616 31.807 75.4359 32.2201 75.9163C32.6084 76.4416 32.1891 77.1606 31.8337 77.5904C31.46 78.0668 31.0711 78.5307 30.7209 79.0261C30.4723 79.3961 30.1436 79.7587 29.7042 79.8741C29.6435 79.89 29.5808 79.9012 29.5161 79.9069Z" fill="#004448"/>
<path d="M67.8258 50.6666C62.2104 51.1034 56.5611 50.8211 50.9391 51.1749C49.6102 51.2503 48.2758 51.673 47.0918 52.2423C46.7397 52.4275 46.4538 52.8272 46.0496 52.8671C44.7872 52.6687 46.5033 51.2932 46.958 51.0393C51.1676 48.5287 56.3315 48.8974 61.0577 48.6796C63.4888 48.6008 65.9285 48.6636 68.3458 48.3486C69.3663 48.2211 70.4388 48.1454 71.3599 47.6471C72.0019 47.2287 72.4452 46.4777 72.463 45.7105C72.4992 45.2002 72.2397 44.6536 72.5003 44.1831C72.9338 43.4777 74.1838 43.4375 74.5785 44.2036C75.2463 45.4399 75.2318 47.072 74.3462 48.1996C73.5181 49.2763 72.3549 49.8467 71.0932 50.1781C70.0267 50.4582 68.8895 50.5675 67.8258 50.6666Z" fill="#004448"/>
<path d="M39.0266 49.4957C38.4491 49.5845 38.0735 48.9769 38.449 48.4895C38.6134 48.2655 38.851 48.1361 39.0817 47.9954C39.848 47.5232 40.5808 46.9968 41.324 46.4896C43.6089 44.9137 45.9294 43.3901 48.2009 41.7959C52.5301 38.5907 57.2329 35.6099 60.9626 31.7388C63.5148 29.2083 65.8198 26.4427 68.2249 23.776C69.5732 22.2785 70.864 20.7285 72.3134 19.3263C73.1483 18.5427 73.8889 17.8162 74.7536 17.0929C75.0375 16.8474 75.3239 16.606 75.5984 16.3497C75.7892 16.1731 75.9971 15.9482 76.2516 15.8655C76.8888 15.714 76.812 16.3423 76.4996 16.7039C75.9476 17.465 75.4515 18.0908 74.897 18.7869C72.4013 22.2286 69.6963 25.4358 66.8318 28.5604C64.8002 30.7832 62.7551 33.0069 60.5434 35.0432C56.2972 38.7082 51.6309 41.8383 46.9236 44.8725C45.118 46.0311 43.3278 47.218 41.4309 48.2257C40.9853 48.4712 40.5396 48.7188 40.101 48.9784C39.7712 49.1452 39.4654 49.3831 39.1078 49.477C39.0811 49.484 39.0537 49.4906 39.0266 49.4957Z" fill="#004448"/>
<path d="M36.1225 77.573C35.7898 77.6279 35.4172 77.7529 35.0983 77.5882C34.5449 77.2341 35.132 76.6089 35.54 76.4196C36.6504 75.8325 37.713 75.0712 38.675 74.3124C40.6637 72.7487 42.5922 71.0995 44.4349 69.3662C47.4003 66.3734 50.4151 63.42 53.0767 60.1481C53.0722 60.1539 53.0676 60.159 53.0635 60.1634C53.2193 59.9722 53.3694 59.8022 53.5757 59.652C54.332 59.0711 55.5861 59.3386 55.4493 60.4623C55.3722 61.1297 54.8042 61.5777 54.4203 62.0833C53.1597 63.569 51.8753 65.0398 50.4997 66.4206C47.9806 68.941 45.5562 71.5671 42.7314 73.7584C40.8 75.2402 38.7959 76.8761 36.4026 77.5047C36.3097 77.5291 36.2162 77.5517 36.1225 77.573Z" fill="#004448"/>
<path d="M67.0351 47.0329C66.818 46.915 67.0539 46.5775 67.2545 46.6678C67.4716 46.7857 67.2357 47.1233 67.0351 47.0329Z" fill="#004448"/>
<path d="M67.0222 47.2814C66.3623 47.2685 66.8988 46.5215 67.0969 46.2568C67.3831 45.8332 67.6659 45.4065 67.948 44.98C69.7395 42.3022 71.5589 39.8039 73.4261 37.2003C78.5407 30.309 83.5051 23.3074 88.6867 16.4648C90.0209 14.7067 91.3635 12.7615 92.5698 10.9681C93.1866 10.0681 93.8259 9.18281 94.4656 8.29935C94.7402 7.91457 95.0527 7.44759 95.5815 7.46836C95.9039 7.48768 96.0172 7.83818 95.9604 8.1088C95.9236 8.33706 95.7852 8.52115 95.6665 8.71262C95.151 9.58467 94.6436 10.4625 94.0874 11.3108C91.8532 14.8733 89.4662 18.3355 86.9982 21.7388C85.5949 23.6979 84.1257 25.61 82.7625 27.5977C81.664 29.2694 80.5061 30.8991 79.3652 32.5428C77.3063 35.4207 75.3748 38.4075 72.9848 41.0285C72.1909 41.9558 71.4481 42.926 70.625 43.8278C69.7494 44.8321 68.8605 45.8287 67.9042 46.6874C67.637 46.9185 67.3784 47.2024 67.0222 47.2814Z" fill="#004448"/>
<path d="M81.9772 34.6894C80.9205 34.7344 80.2157 33.8113 79.5251 33.1494C79.0656 32.6884 78.5256 32.2394 78.2991 31.6112C78.2014 31.305 78.2486 30.8315 78.5757 30.6721C79.0569 30.4384 79.4581 30.7908 79.8127 31.0766C80.368 31.4958 80.8963 31.9486 81.4519 32.3638C82.1623 32.1606 82.5597 31.472 83.0158 30.9434C83.591 30.2631 84.0485 29.5004 84.523 28.7497C85.2994 27.6045 86.0976 26.472 86.8193 25.2901C88.3994 22.915 89.7667 20.4029 91.3657 18.0413C92.0783 17.0771 93.4701 17.8794 93.5718 18.902C93.6714 19.4052 93.4635 19.8718 93.1435 20.25C92.8169 20.7346 92.5147 21.2359 92.2111 21.7343C90.3809 24.6608 88.6057 27.6251 86.5655 30.4126C85.9889 31.2841 85.423 32.1661 84.7099 32.9343C84.0041 33.7782 83.146 34.6501 81.9772 34.6894Z" fill="#004448"/>
<path d="M134.427 135.285C134.205 137.731 99.3911 155.337 97.3486 156.656C95.9852 156.213 81.9084 93.6449 81.4391 92.2563C81.1691 91.5685 81.2031 90.8249 81.1041 90.1042C80.8533 88.9386 80.6736 87.7568 80.3832 86.6001C79.8592 84.4525 78.9964 82.3897 78.6723 80.1964C78.4672 78.436 78.0875 76.6993 77.4926 75.0287C77.1847 74.1414 76.9654 73.2289 76.7872 72.3074C76.4116 70.7913 78.1684 70.3597 79.3314 70.4328C81.9497 70.581 109.711 50.0089 110.299 49.9567C110.437 49.823 110.572 49.6818 110.698 49.5198C111.037 49.0837 113.534 45.7144 114.4 44.4568C114.593 44.1436 114.846 43.7724 115.163 43.5456C115.032 42.9483 114.888 42.3523 114.72 41.7643C114.607 41.4189 114.535 41.2567 114.422 40.9526C114.289 40.5978 114.315 40.1167 113.934 39.9251C113.717 39.8167 113.759 39.4609 113.939 39.3451C114.286 39.166 114.591 39.3897 114.852 39.559C115.315 40.0149 115.857 40.3796 116.214 40.9309C116.894 41.9535 117.207 43.1741 117.531 44.3458C118.33 47.5171 134.566 133.981 134.427 135.285Z" fill="#0FFE7F"/>
<path d="M109.73 48.2612L109.732 48.2624L109.73 48.2612Z" fill="#FFD2B6"/>
<path d="M109.729 48.2601L109.731 48.2613L109.729 48.2601Z" fill="#FFD2B6"/>
<path d="M84.5046 28.3101L84.5035 28.3115C84.5023 28.3123 84.5011 28.3137 84.4999 28.3145C84.5017 28.313 84.5028 28.3116 84.5046 28.3101Z" fill="#FFD2B6"/>
<path d="M84.6044 28.2147C84.6026 28.2162 84.6003 28.2184 84.5985 28.2199C84.5973 28.2207 84.5962 28.2221 84.5962 28.2221C84.5985 28.2199 84.602 28.2169 84.6044 28.2147Z" fill="#FFD2B6"/>
<path d="M84.6084 28.2105L84.6067 28.2126C84.6067 28.2126 84.6049 28.2141 84.6037 28.2149C84.6055 28.2134 84.6072 28.2119 84.6084 28.2105Z" fill="#FFD2B6"/>
<path d="M84.6603 28.1603C84.6632 28.158 84.6649 28.1559 84.6679 28.1537L84.6673 28.1544C84.6644 28.1566 84.6615 28.1602 84.6586 28.1624L84.6603 28.1603Z" fill="#FFD2B6"/>
<path d="M84.6685 28.1529L84.6674 28.1543L84.6685 28.1529Z" fill="#FFD2B6"/>
<path d="M84.6883 28.1334C84.6848 28.137 84.6813 28.1406 84.6767 28.145C84.6807 28.1406 84.6842 28.137 84.6883 28.1334Z" fill="#FFD2B6"/>
<path d="M84.4928 27.9852C84.4952 27.983 84.4969 27.9809 84.4986 27.9794C84.4952 27.983 84.4911 27.9874 84.487 27.991C84.4888 27.9895 84.4905 27.9874 84.4928 27.9852Z" fill="#FFD2B6"/>
<path d="M109.917 48.5721C109.921 48.5794 109.926 48.5867 109.93 48.594C109.925 48.5867 109.921 48.5801 109.917 48.5721Z" fill="#FFD2B6"/>
<path d="M109.772 48.3346L109.771 48.3328L109.773 48.3352L109.772 48.3346Z" fill="#FFD2B6"/>
<path d="M109.772 48.3341L109.77 48.3317L109.771 48.3322L109.772 48.3341Z" fill="#FFD2B6"/>
<path d="M109.771 48.3329C109.77 48.331 109.769 48.3298 109.768 48.328C109.769 48.3298 109.771 48.3323 109.772 48.3341L109.771 48.3329Z" fill="#FFD2B6"/>
<path d="M109.769 48.3311L109.769 48.3304L109.771 48.3316L109.769 48.3311Z" fill="#FFD2B6"/>
<path d="M109.765 48.3238L109.765 48.3232C109.765 48.3244 109.767 48.3256 109.768 48.3268L109.765 48.3238Z" fill="#FFD2B6"/>
<path d="M109.761 48.3153C109.761 48.3159 109.761 48.3159 109.761 48.3165C109.763 48.3189 109.764 48.3214 109.765 48.3232C109.764 48.3208 109.762 48.3183 109.761 48.3153Z" fill="#FFD2B6"/>
<path d="M109.759 48.3116L109.76 48.3141L109.759 48.3116Z" fill="#FFD2B6"/>
<path d="M109.759 48.3116L109.758 48.3104L109.759 48.3116Z" fill="#FFD2B6"/>
<path d="M109.756 48.3074L109.756 48.3068L109.756 48.3062L109.754 48.3057L109.754 48.3044C109.756 48.3069 109.757 48.3093 109.759 48.3117C109.758 48.3105 109.757 48.3086 109.756 48.3074Z" fill="#FFD2B6"/>
<path d="M109.756 48.3056L109.754 48.3044L109.755 48.3049L109.756 48.3056Z" fill="#FFD2B6"/>
<path d="M109.755 48.3037L109.753 48.3032L109.755 48.3031L109.755 48.3044L109.755 48.3037Z" fill="#FFD2B6"/>
<path d="M109.755 48.3031L109.754 48.3012L109.752 48.2995C109.752 48.2976 109.75 48.2958 109.749 48.294C109.748 48.2922 109.747 48.291 109.746 48.2892C109.749 48.294 109.752 48.2982 109.755 48.3036L109.755 48.3031Z" fill="#FFD2B6"/>
<path d="M109.752 48.2988L109.753 48.2993L109.753 48.3L109.752 48.2988Z" fill="#FFD2B6"/>
<path d="M109.752 48.2982L109.75 48.2958L109.75 48.2946C109.75 48.2946 109.751 48.297 109.752 48.2982Z" fill="#FFD2B6"/>
<path d="M109.749 48.2959L109.749 48.2965L109.751 48.297L109.749 48.2959Z" fill="#FFD2B6"/>
<path d="M109.745 48.2881L109.746 48.2892L109.745 48.2881Z" fill="#FFD2B6"/>
<path d="M109.743 48.285L109.743 48.2857L109.745 48.2874L109.743 48.285Z" fill="#FFD2B6"/>
<path d="M109.74 48.279L109.74 48.2783L109.741 48.2807L109.74 48.279Z" fill="#FFD2B6"/>
<path d="M109.74 48.2776L109.74 48.2782L109.741 48.28L109.74 48.2776Z" fill="#FFD2B6"/>
<path d="M109.74 48.2789L109.741 48.2801L109.74 48.2789Z" fill="#FFD2B6"/>
<path d="M109.739 48.2771L109.739 48.2777L109.74 48.2782L109.739 48.2771Z" fill="#FFD2B6"/>
<path d="M109.739 48.2752L109.737 48.2728C109.737 48.274 109.739 48.2752 109.74 48.2764L109.739 48.2752Z" fill="#FFD2B6"/>
<path d="M109.736 48.2723C109.736 48.2723 109.735 48.271 109.735 48.2698C109.735 48.271 109.737 48.2721 109.737 48.2721L109.738 48.2746L109.736 48.2723Z" fill="#FFD2B6"/>
<path d="M109.734 48.2686L109.733 48.268L109.733 48.2661C109.734 48.268 109.736 48.2704 109.737 48.2722C109.737 48.2722 109.735 48.2698 109.734 48.2686Z" fill="#FFD2B6"/>
<path d="M109.733 48.268L109.733 48.2668L109.733 48.2668L109.735 48.2692L109.736 48.2704L109.733 48.268Z" fill="#FFD2B6"/>
<path d="M109.734 48.2673C109.734 48.2667 109.733 48.2668 109.733 48.2668C109.733 48.2668 109.734 48.2673 109.734 48.2673Z" fill="#FFD2B6"/>
<path d="M109.729 48.2588L109.729 48.2582L109.73 48.2606L109.729 48.2588Z" fill="#FFD2B6"/>
<path d="M109.725 48.2528C109.724 48.2516 109.724 48.251 109.724 48.2498C109.725 48.2528 109.727 48.2558 109.728 48.2583C109.728 48.2564 109.726 48.2546 109.725 48.2528Z" fill="#FFD2B6"/>
<path d="M78.258 72.2241C77.2886 72.1834 76.3661 71.6528 75.875 70.8113C75.2502 69.715 75.6754 68.3774 76.0774 67.275C76.6011 65.8841 78.798 66.1037 78.2416 68.474C77.6778 71.1172 82.0157 68.9649 83.019 68.409C85.5784 66.9259 88.1106 65.2118 90.523 63.516C93.9676 61.1631 97.1654 58.5762 100.401 55.9575C104.182 52.8787 107.97 49.7727 111.358 46.2569C111.947 45.5465 112.455 44.7742 112.996 44.0272C113.787 42.8397 114.214 41.3916 112.622 40.6385C111.7 40.3154 110.892 40.2582 109.994 40.1774C109.288 40.1884 110.244 38.2151 111.18 38.2279C112.157 38.2124 113.185 38.2106 114.101 38.5943C117.259 39.9661 116.426 43.3472 114.694 45.5704C113.385 47.6507 111.551 49.2877 109.772 50.954C107.113 53.3099 104.421 55.6273 101.642 57.8422C97.1128 61.5559 92.4393 65.0992 87.5582 68.2353C85.6826 69.4359 83.8392 70.7246 81.7428 71.5162C80.9534 71.8354 80.1314 72.1272 79.2868 72.2197C78.9473 72.2569 78.6043 72.2616 78.258 72.2241Z" fill="#004448"/>
<path d="M81.0918 92.933C79.3888 88.7605 78.3023 84.3619 77.071 80.0346C76.3662 77.1669 75.5696 74.2724 75.4991 71.3049C75.3736 69.4643 77.7749 67.3972 77.6176 68.2265C77.0559 70.6065 77.7388 73.0216 78.2256 75.3595C78.9896 78.7384 79.9981 82.0549 80.9587 85.3813C81.3633 86.7511 81.775 88.1201 82.2383 89.4726C82.5152 90.4232 83.0558 91.3038 83.2262 92.277C83.2841 93.088 82.775 93.6658 82.212 93.7275C81.8012 93.7725 81.3624 93.5441 81.0918 92.933Z" fill="#004448"/>
<path d="M85.7014 79.2342C81.5044 79.4955 81.3467 72.172 85.7221 72.4449C88.882 72.9128 89.2739 78.8551 85.9671 79.2174C85.8811 79.2268 85.7921 79.2327 85.7014 79.2342ZM84.7422 75.9851C84.7358 76.4092 85.0765 76.7954 85.8062 76.66C86.4919 76.5533 86.3571 75.2294 85.7545 75.082C85.7159 75.083 85.6783 75.0865 85.642 75.0905C85.0591 75.1537 84.7481 75.5861 84.7422 75.9851Z" fill="#004448"/>
</svg>
