<svg width="114" height="52" viewBox="0 0 114 52" fill="none" xmlns="http://www.w3.org/2000/svg">
<path d="M102.791 44.8872L104.693 38.8302L106.56 44.8872H102.791ZM108.781 51.5369H113.931L106.606 32.6539H102.799L95.4783 51.5368H100.578L101.546 48.7796L107.835 48.7797L108.781 51.5369ZM91.8691 44.5203C90.8228 46.3335 89.3525 47.2377 87.4973 47.2377C86.1552 47.2377 84.9844 46.7168 83.9889 45.6856C83.0049 44.644 82.5146 43.3851 82.5146 41.9107C82.5146 40.5242 83.0049 39.3509 83.985 38.3954C84.965 37.4338 86.1631 36.9529 87.5671 36.9529C89.4812 36.9529 90.9434 37.9045 91.986 39.8118H97.0346C96.4276 37.4975 95.2606 35.6682 93.5299 34.2975C91.7914 32.9269 89.7996 32.2447 87.5438 32.2447C84.8369 32.2447 82.5224 33.1843 80.6009 35.0535C78.6833 36.9229 77.7187 39.1973 77.7187 41.8726C77.7187 44.6778 78.6446 47.0457 80.496 48.9871C82.3398 50.9304 84.6655 51.894 87.4973 51.894C89.7921 51.894 91.7834 51.2417 93.4716 49.9188C95.1598 48.5998 96.3069 46.7988 96.941 44.5203H91.8691ZM76.0386 32.6537H71.3942V51.5368H76.0386V32.6537ZM59.8115 36.9051H61.1147C63.1684 36.9051 64.1989 37.6352 64.1989 39.0897C64.1989 39.9176 63.9152 40.4981 63.3471 40.8392C62.7987 41.1865 61.9198 41.3562 60.7334 41.3562H59.8115V36.9051ZM63.4718 51.5368H69.2434L64.5761 45.0408C65.9333 44.6735 66.9874 43.9436 67.7384 42.8684C68.5082 41.787 68.8818 40.4861 68.8818 38.9661C68.8818 36.6318 68.0221 34.8741 66.3147 33.6912C65.3346 33.0047 63.7206 32.6537 61.492 32.6537H55.1828V51.5368H59.8112L59.8113 45.4501L63.4718 51.5368ZM52.2112 47.3454H46.5093V44.0673H52.2112V39.8677H46.5093V36.8492H52.2112V32.6536H41.8809V51.5368H52.2112V47.3454ZM23.9072 39.0437L27.828 51.5368H31.1147L35.0313 39.0437V51.5368H39.4616V32.6537H33.1293L29.4694 44.1988L25.8365 32.6537H19.4772V51.5368H23.9072V39.0437ZM7.56353 44.8872L9.4657 38.8302L11.3405 44.8872H7.56353ZM13.5533 51.5369H18.6953L11.3752 32.6539H7.57537L0.247498 51.5368H5.35044L6.30723 48.7796L12.6082 48.7797L13.5533 51.5369ZM77.0851 11.097V3.2645H78.4384C79.6986 3.2645 80.6634 3.60171 81.3168 4.27598C81.9862 4.95454 82.3085 5.91592 82.3085 7.16689C82.3085 8.51558 82.0051 9.505 81.3676 10.1414C80.7413 10.7859 79.7841 11.097 78.4501 11.097H77.0851ZM83.7085 12.4278C85.0467 11.123 85.7273 9.4013 85.7273 7.27648C85.7273 4.99402 85.0467 3.2126 83.678 1.93776C82.9855 1.2893 82.2072 0.836276 81.3598 0.592926C80.6129 0.379536 79.6366 0.281806 78.4426 0.281806H73.674V14.1475H78.9171C79.9824 14.1475 80.8381 14.0457 81.4953 13.8364C82.2579 13.5889 82.997 13.12 83.7085 12.4278ZM65.6769 3.45222C66.6608 3.45222 67.505 3.80724 68.2052 4.51547C68.9247 5.2237 69.2749 6.08943 69.2749 7.10698C69.2749 8.2242 68.9285 9.1498 68.2169 9.884C67.5205 10.6103 66.661 10.9733 65.6457 10.9733C64.6501 10.9733 63.7904 10.6025 63.0556 9.8501C62.3163 9.1 61.9508 8.19025 61.9508 7.10698C61.9506 6.08943 62.3126 5.2237 63.04 4.51547C63.7554 3.80724 64.6345 3.45222 65.6769 3.45222ZM65.6456 14.3948C67.6684 14.3948 69.3836 13.6746 70.7913 12.2283C72.1376 10.8397 72.8217 9.142 72.8217 7.127C72.8217 5.16393 72.0947 3.47804 70.6595 2.07358C69.2516 0.712876 67.5863 0.0305961 65.6615 0.0305961C63.6626 0.0305961 61.9508 0.712876 60.5505 2.07358C59.1464 3.44021 58.4505 5.10002 58.4505 7.05922C58.4504 9.1338 59.127 10.8695 60.4768 12.2781C61.8418 13.6907 63.553 14.3948 65.6456 14.3948ZM50.6206 3.45222C51.6087 3.45222 52.4448 3.80724 53.1605 4.51547C53.8607 5.2237 54.2145 6.08943 54.2145 7.10698C54.2145 8.2242 53.8607 9.1498 53.1643 9.884C52.4643 10.6103 51.6086 10.9733 50.5819 10.9733C49.5938 10.9733 48.7304 10.6025 47.9992 9.8501C47.2718 9.1 46.8985 8.19025 46.8985 7.10698C46.8984 6.08943 47.2599 5.2237 47.9836 4.51547C48.7071 3.80724 49.5783 3.45222 50.6206 3.45222ZM50.5858 14.3948C52.6043 14.3948 54.335 13.6746 55.7354 12.2283C57.0849 10.8397 57.7617 9.142 57.7617 7.127C57.7617 5.16393 57.0384 3.47804 55.5914 2.07358C54.195 0.712876 52.5421 0.0305961 50.6091 0.0305961C48.5981 0.0305961 46.8985 0.712876 45.5021 2.07358C44.1017 3.44021 43.3977 5.10002 43.3977 7.05922C43.3977 9.1338 44.0707 10.8695 45.4319 12.2781C46.7855 13.6907 48.5048 14.3948 50.5858 14.3948ZM35.7743 9.108H38.7498C38.0499 10.375 36.9956 11.0074 35.603 11.0074C34.6269 11.0074 33.7751 10.6222 33.0477 9.8582C32.3165 9.0901 31.9587 8.1723 31.9587 7.08503C31.9587 6.08156 32.3047 5.21569 33.0164 4.49739C33.7204 3.77714 34.5838 3.41812 35.6108 3.41812C36.6611 3.41812 37.6138 3.87501 38.4776 4.78477H42.3631C41.8109 3.3124 40.9239 2.15101 39.7106 1.2893C38.5241 0.427286 37.1627 0.000366211 35.6537 0.000366211C33.6621 0.000366211 31.9625 0.682786 30.5624 2.05743C29.1541 3.43193 28.4425 5.09988 28.4425 7.05895C28.4425 9.1239 29.1309 10.8615 30.4844 12.2919C31.8302 13.7124 33.5457 14.4246 35.6109 14.4246C36.8168 14.4246 37.9176 14.1533 38.9754 13.5927C40.0373 13.0461 40.8928 12.2879 41.5579 11.3223C42.3512 10.1612 42.7521 8.80448 42.7521 7.26047C42.7521 7.05895 42.7482 6.75555 42.7093 6.34271L35.7743 6.34278V9.108ZM93.5686 25.3098H96.5404C95.8322 26.5767 94.79 27.213 93.4016 27.213C92.4176 27.213 91.5696 26.8242 90.8383 26.064C90.107 25.2999 89.7493 24.3741 89.7493 23.2909C89.7493 22.2794 90.0993 21.4217 90.8033 20.7072C91.5115 19.983 92.3784 19.6238 93.4016 19.6238C94.4479 19.6238 95.4044 20.0808 96.2682 20.9905H100.162C99.5934 19.5123 98.7112 18.3533 97.5132 17.4953C96.307 16.6313 94.9534 16.2044 93.4443 16.2044C91.4489 16.2044 89.7611 16.8888 88.3454 18.2634C86.949 19.636 86.2449 21.3059 86.2449 23.2689C86.2449 25.33 86.9139 27.0675 88.2637 28.4939C89.629 29.9184 91.3327 30.6346 93.4018 30.6346C94.6038 30.6346 95.7201 30.3495 96.7743 29.8027C97.8164 29.2521 98.68 28.488 99.3448 27.5243C100.15 26.3631 100.547 25.0146 100.547 23.4642C100.547 23.2688 100.531 22.9615 100.505 22.5485L93.5686 22.5486V25.3098ZM77.2366 22.6323L82.4366 30.3493H85.4359V16.4777H82.0283V24.1868L76.9099 16.4777H73.8215V30.3495H77.2366V22.6323ZM72.3591 16.4777H68.9522V30.3495H72.3591V16.4777ZM64.5181 30.3493H67.5205V16.4777H64.1097V24.1868L58.9793 16.4777H55.9026V30.3495H59.3094L59.3095 22.6323L64.5181 30.3493ZM47.8124 19.594H48.7573C50.2586 19.594 51.0016 20.1327 51.0016 21.212C51.0016 21.8266 50.7955 22.2534 50.4028 22.5089C49.9865 22.7602 49.3526 22.884 48.4851 22.884H47.8124V19.594ZM50.4882 30.3495H54.7006L51.2895 25.5953C52.2891 25.3218 53.0593 24.7891 53.6116 23.9991C54.1716 23.2012 54.444 22.2454 54.444 21.1263C54.444 19.4106 53.8256 18.1138 52.5654 17.2458C51.8458 16.7351 50.6674 16.4777 49.0259 16.4777H44.3974V30.3495H47.8125V25.8843L50.4882 30.3495ZM36.3732 19.6578C37.3611 19.6578 38.2011 20.0089 38.913 20.7173C39.617 21.4295 39.9748 22.2953 39.9748 23.3069C39.9748 24.43 39.6209 25.3558 38.9171 26.086C38.2206 26.8122 37.3612 27.1792 36.3227 27.1792C35.3504 27.1792 34.483 26.8021 33.7556 26.056C33.0165 25.3038 32.6471 24.3921 32.6471 23.3069C32.647 22.2953 33.0126 21.4295 33.74 20.7173C34.4556 20.0091 35.3349 19.6578 36.3732 19.6578ZM36.3419 30.6008C38.3645 30.6008 40.0798 29.8804 41.4839 28.438C42.8337 27.0494 43.5065 25.3438 43.5065 23.3287C43.5065 21.3616 42.7831 19.6797 41.3517 18.2791C39.9477 16.9187 38.2788 16.2301 36.3536 16.2301C34.3506 16.2301 32.6468 16.9187 31.2504 18.2791C29.8504 19.6458 29.1462 21.3056 29.1462 23.2688C29.1465 25.3398 29.8232 27.0715 31.1807 28.48C32.5345 29.8966 34.2573 30.6008 36.3419 30.6008ZM19.7688 30.3495H22.1804L25.051 21.182V30.3495H28.3105V16.4777H23.6586L20.9708 24.9667L18.3027 16.4777H13.6273V30.3495H16.887L16.8869 21.182L19.7688 30.3495Z" fill="#FFFEF0"/>
</svg>
