<svg width="55" height="55" viewBox="0 0 55 55" fill="none" xmlns="http://www.w3.org/2000/svg">
<path d="M38.7345 42.0732C38.9154 41.8455 38.9677 41.5229 38.8183 41.2735C36.7369 37.8017 37.1832 32.4091 39.1647 28.8045C39.2667 28.6187 39.2283 28.3959 39.1158 28.229C39.0746 28.1696 39.0244 28.1187 38.9622 28.0754L35.2284 25.4954C35.1963 25.473 35.1634 25.4541 35.1278 25.4395H35.1264C34.8799 25.3333 34.5879 25.4087 34.4196 25.6295C31.8808 28.9944 27.9026 30.5464 22.8662 29.5176C22.7893 29.5016 22.7111 29.5057 22.6392 29.5309C22.5519 29.5574 22.4758 29.6105 22.4192 29.6859L19.4823 33.3959C19.4335 33.4623 19.4041 33.5377 19.3985 33.6159C19.3811 33.7696 19.4474 33.9212 19.5787 34.0203C22.2201 36.0172 26.1384 35.6407 27.9696 34.4855C27.9696 34.4855 24.8763 39.3396 19.3517 39.3514C14.7728 39.3605 11.2472 35.8167 11.2472 31.2043C11.2472 28.1361 12.3214 24.9073 14.8553 22.4831C16.8661 24.5469 20.3078 26.9557 24.5383 27.1402C28.4041 27.3084 32.0016 26.0611 33.1016 22.9698C34.268 19.6914 33.0123 16.9152 30.7018 15.1293C27.693 12.8035 21.1928 12.2881 16.3876 14.1885C16.3876 14.1885 16.1466 13.3399 16.7117 11.853C16.8031 11.6141 16.697 11.3424 16.4875 11.1964L12.3332 8.27492C12.1167 8.12266 11.8276 8.20298 11.69 8.42857C10.6277 10.169 9.51857 13.8805 10.9964 17.3873C6.47482 21.1316 4.33484 26.5444 4.33484 31.6526C4.33484 39.5093 10.2142 45.5367 19.0451 45.5367C24.6535 45.5367 29.8673 42.5104 32.5765 37.9309C32.5765 37.9309 31.2041 42.7738 35.0105 45.594C35.301 45.8091 35.6887 45.8259 35.9136 45.543L38.7345 42.0732ZM27.114 20.6496C26.7195 22.2309 22.1224 21.5248 20.076 19.2514C23.2266 17.8218 27.5939 18.7283 27.114 20.6496Z" fill="#004449"/>
<path d="M43.7007 45.5H42.7847V40.8486H41V40H45.4779V40.8486H43.7007V45.5ZM47.3225 45.5H46.4064V40H47.5346L49.2069 44.3686L50.8693 40H52V45.5H51.0839V41.6264L49.6038 45.5H48.8026L47.3225 41.6343V45.5Z" fill="#004449"/>
</svg>
